{
.appVersion = "3131";
.formatVersion = 3;
axes = (
{
name = wght;
tag = wght;
}
);
customParameters = (
{
name = "Write lastChange";
value = 0;
},
{
name = "Use Typo Metrics";
value = 1;
},
{
name = fsType;
value = (
);
}
);
date = "2022-03-16 02:33:55 +0000";
familyName = "Edu VIC WA NT Beginner";
featurePrefixes = (
{
automatic = 1;
code = "languagesystem DFLT dflt;
";
name = Languagesystems;
}
);
fontMaster = (
{
axesValues = (
400
);
customParameters = (
{
name = hheaAscender;
value = 950;
},
{
name = hheaDescender;
value = -300;
},
{
name = hheaLineGap;
value = 0;
},
{
name = typoAscender;
value = 950;
},
{
name = typoDescender;
value = -300;
},
{
name = typoLineGap;
value = 0;
},
{
name = winAscent;
value = 950;
},
{
name = winDescent;
value = 310;
}
);
id = m01;
metricValues = (
{
pos = 650;
},
{
over = 4;
pos = 650;
},
{
over = 4;
pos = 568;
},
{
over = 4;
pos = 350;
},
{
over = -4;
},
{
over = -4;
pos = -300;
},
{
}
);
name = Regular;
stemValues = (
46,
50
);
userData = {
com.typemytype.robofont.compileSettings.autohint = 1;
com.typemytype.robofont.compileSettings.checkOutlines = 0;
com.typemytype.robofont.compileSettings.createDummyDSIG = 1;
com.typemytype.robofont.compileSettings.decompose = 0;
com.typemytype.robofont.compileSettings.generateFormat = 0;
com.typemytype.robofont.compileSettings.releaseMode = 0;
com.typemytype.robofont.italicSlantOffset = 0;
com.typemytype.robofont.segmentType = curve;
com.typemytype.robofont.shouldAddPointsInSplineConversion = 1;
com.typemytype.robofont.smartSets.uniqueKey = "4479870352";
com.typesupply.metricsMachine4.groupColors = {
public.kern1.H_right = (
1,
0,
0,
0.25
);
public.kern1.O_right = (
1,
0,
0.76,
0.25
);
public.kern1.V_right = (
0,
1,
1,
0.25
);
public.kern1.colon_right = (
0.5,
0,
1,
0.25
);
public.kern1.hyphen_right = (
0,
0,
1,
0.25
);
public.kern1.n_right = (
1,
1,
0,
0.25
);
public.kern1.o_right = (
0,
1,
0,
0.25
);
public.kern1.period_right = (
1,
0,
1,
0.25
);
public.kern1.quote_right = (
1,
0,

glyphs = (
{
color = 6;
glyphname = A;
layers = (
{
layerId = m01;
shapes = (
{
closed = 1;
nodes = (
(28,0,o),
(33,7,o),
(42,25,cs),
(287,504,l),
(319,576,l),
(319,500,l),
(357,24,ls),
(358,14,o),
(361,0,o),
(383,0,c),
(401,0,o),
(407,11,o),
(406,26,c),
(354,631,ls),
(353,641,o),
(347,650,o),
(330,650,cs),
(308,650,o),
(307,639,o),
(300,625,cs),
(-9,32,ls),
(-19,12,o),
(-7,0,o),
(8,0,cs)
);
},
{
closed = 1;
nodes = (
(358,304,l),
(353,347,l),
(184,347,l),
(162,304,l)
);
}
);
vertWidth = 0;
width = 450;
},
{
layerId = "140DECC1-64C4-40C0-9C07-503DBC3F4160";
shapes = (
{
closed = 1;
nodes = (
(62,0,o),
(77,8,o),
(90,33,cs),
(301,449,l),
(330,523,l),
(327,448,l),
(361,40,ls),
(363,16,o),
(379,0,o),
(410,0,cs),
(438,0,o),
(458,15,o),
(455,46,c),
(407,603,ls),
(404,634,o),
(382,650,o),
(351,650,cs),
(318,650,o),
(298,635,o),
(288,616,cs),
(-2,60,ls),
(-21,24,o),
(5,0,o),
(35,0,cs)
);
},
{
closed = 1;
nodes = (
(388,244,l),
(380,334,l),
(182,334,l),
(139,244,l)
);
}
);
vertWidth = 0;
width = 495;
}
);
unicode = 65;
},
{
color = 6;
glyphname = B;
kernLeft = H_left;
layers = (
{
layerId = m01;
shapes = (
{
closed = 1;
nodes = (
(337,0,o),
(418,53,o),
(434,163,cs),
(451,279,o),
(340,359,o),
(117,359,c),
(109,320,l),
(316,320,o),
(396,248,o),
(385,169,cs),
(372,73,o),
(266,47,o),
(89,46,c),
(187,604,l),
(340,603,o),
(432,568,o),
(421,479,cs),
(411,399,o),
(375,359,o),
(121,359,c),
(115,327,l),
(404,327,o),
(457,373,o),
(471,477,cs),
(487,595,o),
(384,650,o),
(169,650,c),
(152,650,o),
(144,643,o),
(140,623,cs),
(36,31,ls),
(33,16,o),
(41,0,o),
(55,0,cs)
);
}
);
vertWidth = 0;
width = 485;
},
{
layerId = "140DECC1-64C4-40C0-9C07-503DBC3F4160";
shapes = (
{
closed = 1;
nodes = (
(374,0,o),
(476,26,o),
(493,151,cs),
(512,292,o),
(361,358,o),
(142,358,c),
(128,277,l),
(337,277,o),
(404,241,o),
(394,168,cs),
(387,115,o),
(325,94,o),
(147,90,c),
(230,559,l),
(410,554,o),
(448,523,o),
(441,467,cs),
(434,413,o),
(423,358,o),
(147,358,c),
(134,295,l),
(407,295,o),
(525,344,o),
(541,462,cs),
(559,597,o),
(443,650,o),
(186,650,cs),
(163,650,o),
(143,642,o),
(137,609,cs),
(39,53,ls),
(34,23,o),
(55,0,o),
(81,0,cs)
);
}
);
vertWidth = 0;
width = 547;
}
);
unicode = 66;
},
{
color = 6;
glyphname = C;
kernLeft = O_left;
layers = (
{
layerId = m01;
shapes = (
{
closed = 1;
nodes = (
(316,0,o),
(383,45,o),
(440,108,cs),
(465,135,o),
(467,147,o),
(466,154,cs),
(464,166,o),
(455,172,o),
(443,172,cs),
(427,172,o),
(421,155,o),
(401,137,cs),
(346,85,o),
(296,46,o),
(231,46,cs),
(159,46,o),
(85,136,o),
(114,304,cs),
(134,419,o),
(182,604,o),
(357,604,cs),
(403,604,o),
(452,583,o),
(497,536,cs),
(510,523,o),
(524,526,o),
(532,535,cs),
(540,544,o),
(538,560,o),
(529,569,cs),
(480,620,o),
(420,650,o),
(358,650,cs),
(146,650,o),
(89,447,o),
(64,305,cs),
(29,108,o),
(134,0,o),
(230,0,cs)
);
}
);
vertWidth = 0;
width = 521;
},
{
layerId = "140DECC1-64C4-40C0-9C07-503DBC3F4160";
shapes = (
{
closed = 1;
nodes = (
(336,0,o),
(422,39,o),
(480,103,cs),
(505,130,o),
(514,143,o),
(514,162,cs),
(514,180,o),
(500,196,o),
(474,196,cs),
(458,196,o),
(438,190,o),
(414,164,cs),
(373,118,o),
(313,90,o),
(256,90,cs),
(182,90,o),
(143,181,o),
(164,304,cs),
(193,474,o),
(266,560,o),
(382,560,cs),
(428,560,o),
(460,550,o),
(492,520,cs),
(516,498,o),
(546,489,o),
(568,511,cs),
(591,534,o),
(578,563,o),
(553,586,cs),
(500,634,o),
(445,650,o),
(383,650,cs),
(211,650,o),
(104,534,o),
(64,305,cs),
(34,130,o),
(115,0,o),
(255,0,cs)
);
}
);
vertWidth = 0;
width = 566;
}
);
unicode = 67;
},
{
color = 6;
glyphname = D;
kernLeft = H_left;
kernRight = O_right;
layers = (
{
layerId = m01;
shapes = (
{
closed = 1;
nodes = (
(122,0,ls),
(314,0,o),
(476,122,o),
(505,344,cs),
(531,543,o),
(390,650,o),
(205,650,cs),
(169,650,ls),
(148,650,o),
(143,639,o),
(140,623,cs),
(35,27,ls),
(32,12,o),
(40,0,o),
(58,0,cs)
);
},
{
closed = 1;
nodes = (
(187,604,l),
(209,604,ls),
(362,604,o),
(474,512,o),
(455,351,cs),
(431,149,o),
(284,46,o),
(122,46,cs),
(90,46,l)
);
}
);
vertWidth = 0;
width = 525;
},
{
layerId = "140DECC1-64C4-40C0-9C07-503DBC3F4160";
shapes = (
{
closed = 1;
nodes = (
(162,0,ls),
(363,0,o),
(532,150,o),
(559,351,cs),
(584,536,o),
(462,650,o),
(239,650,cs),
(189,650,ls),
(158,650,o),
(143,636,o),
(138,609,cs),
(39,49,ls),
(34,22,o),
(53,0,o),
(84,0,cs)
);
},
{
closed = 1;
nodes = (
(231,561,l),
(244,561,ls),
(396,561,o),
(479,480,o),
(462,350,cs),
(443,201,o),
(314,89,o),
(162,89,cs),
(148,89,l)
);
}
);
vertWidth = 0;
width = 577;
}
);
unicode = 68;
},
{
color = 6;
glyphname = E;
kernLeft = H_left;
layers = (
{
layerId = m01;
shapes = (
{
closed = 1;
nodes = (
(393,0,ls),
(413,0,o),
(419,14,o),
(419,26,cs),
(419,38,o),
(413,46,o),
(393,46,cs),
(90,46,l),
(187,604,l),
(491,604,ls),
(511,604,o),
(517,613,o),
(517,625,cs),
(517,637,o),
(511,650,o),
(491,650,cs),
(170,650,ls),
(148,650,o),
(143,639,o),
(140,623,cs),
(35,27,ls),
(32,12,o),
(40,0,o),
(58,0,cs)
);
},
{
closed = 1;
nodes = (
(399,304,ls),
(419,304,o),
(425,315,o),
(425,327,cs),
(425,339,o),
(419,350,o),
(399,350,cs),
(118,350,l),
(110,304,l)
);
}
);
vertWidth = 0;
width = 495;
},
{
layerId = "140DECC1-64C4-40C0-9C07-503DBC3F4160";
shapes = (
{
closed = 1;
nodes = (
(423,0,ls),
(453,0,o),
(473,16,o),
(473,42,cs),
(473,66,o),
(457,89,o),
(425,89,cs),
(149,89,l),
(232,561,l),
(522,561,ls),
(552,561,o),
(573,580,o),
(573,606,cs),
(573,631,o),
(555,650,o),
(524,650,cs),
(191,650,ls),
(160,650,o),
(143,639,o),
(138,611,cs),
(39,50,ls),
(34,22,o),
(46,0,o),
(76,0,c)
);
},
{
closed = 1;
nodes = (
(441,283,ls),
(473,283,o),
(495,302,o),
(495,326,cs),
(495,352,o),
(476,368,o),
(446,368,cs),
(148,368,l),
(132,283,l)
);
}
);
vertWidth = 0;
width = 547;
}
);
unicode = 69;
},
{
color = 6;
glyphname = F;
kernLeft = H_left;
layers = (
{
layerId = m01;
shapes = (
{
closed = 1;
nodes = (
(80,0,o),
(84,15,o),
(86,25,cs),
(187,604,l),
(481,604,ls),
(501,604,o),
(507,613,o),
(507,625,cs),
(507,637,o),
(501,650,o),
(481,650,cs),
(170,650,ls),
(148,650,o),
(143,639,o),
(140,623,cs),
(35,27,ls),
(32,12,o),
(40,0,o),
(58,0,cs)
);
},
{
closed = 1;
nodes = (
(388,304,ls),
(408,304,o),
(414,315,o),
(414,327,cs),
(414,339,o),
(408,350,o),
(388,350,cs),
(115,350,l),
(108,304,l)
);
}
);
vertWidth = 0;
width = 477;
},
{
layerId = "140DECC1-64C4-40C0-9C07-503DBC3F4160";
shapes = (
{
closed = 1;
nodes = (
(115,0,o),
(137,21,o),
(142,51,cs),
(232,561,l),
(511,561,ls),
(544,561,o),
(563,583,o),
(563,604,cs),
(563,632,o),
(545,650,o),
(514,650,cs),
(189,650,ls),
(158,650,o),
(143,638,o),
(138,610,cs),
(40,54,ls),
(35,27,o),
(45,0,o),
(84,0,cs)
);
},
{
closed = 1;
nodes = (
(436,279,ls),
(468,279,o),
(485,298,o),
(485,322,cs),
(485,348,o),
(467,364,o),
(437,364,cs),
(142,364,l),
(127,279,l)
);
}
);
vertWidth = 0;
width = 537;
}
);
unicode = 70;
},
{
color = 6;
glyphname = G;
kernLeft = O_left;
layers = (
{
layerId = m01;
shapes = (
{
closed = 1;
nodes = (
(292,0,o),
(355,42,o),
(435,169,c),
(416,176,l),
(391,27,ls),
(389,15,o),
(392,1,o),
(412,0,cs),
(435,-1,o),
(440,16,o),
(442,27,cs),
(481,253,ls),
(484,270,o),
(480,280,o),
(461,280,c),
(441,280,o),
(431,266,o),
(420,240,cs),
(367,119,o),
(296,46,o),
(225,46,cs),
(135,46,o),
(88,156,o),
(114,304,cs),
(148,503,o),
(230,604,o),
(357,604,cs),
(403,604,o),
(449,584,o),
(494,537,cs),
(507,524,o),
(521,527,o),
(529,536,cs),
(537,545,o),
(535,561,o),
(526,570,cs),
(477,621,o),
(420,650,o),
(358,650,cs),
(204,650,o),
(105,534,o),
(64,305,cs),
(34,130,o),
(102,0,o),
(224,0,cs)
);
}
);
vertWidth = 0;
width = 517;
},
{
layerId = "140DECC1-64C4-40C0-9C07-503DBC3F4160";
shapes = (
{
closed = 1;
nodes = (
(318,0,o),
(370,51,o),
(425,141,c),
(407,145,l),
(390,49,ls),
(384,18,o),
(405,0,o),
(439,0,cs),
(474,0,o),
(483,18,o),
(487,42,cs),
(527,267,ls),
(532,298,o),
(516,317,o),
(485,317,cs),
(465,317,o),
(444,312,o),
(418,266,cs),
(368,178,o),
(303,90,o),
(235,90,cs),
(176,90,o),
(141,172,o),
(164,304,cs),
(193,474,o),
(266,560,o),
(382,560,cs),
(428,560,o),
(460,550,o),
(492,520,cs),
(516,498,o),
(546,489,o),
(568,511,cs),
(591,534,o),
(578,563,o),
(553,586,cs),
(500,634,o),
(445,650,o),
(383,650,cs),
(211,650,o),
(104,534,o),
(64,305,cs),
(31,116,o),
(104,0,o),
(234,0,cs)
);
}
);
vertWidth = 0;
width = 566;
}
);
unicode = 71;
},
{
color = 6;
glyphname = H;
kernLeft = H_left;
kernRight = H_right;
layers = (
{
layerId = m01;
shapes = (
{
closed = 1;
nodes = (
(80,0,o),
(84,15,o),
(86,25,cs),
(190,619,ls),
(193,637,o),
(187,650,o),
(170,650,cs),
(151,650,o),
(143,639,o),
(140,623,cs),
(35,27,ls),
(32,12,o),
(40,0,o),
(58,0,cs)
);
},
{
closed = 1;
nodes = (
(428,304,l),
(436,350,l),
(134,350,l),
(126,304,l)
);
},
{
closed = 1;
nodes = (
(413,0,o),
(419,13,o),
(421,22,cs),
(526,621,ls),
(529,638,o),
(523,650,o),
(503,650,cs),
(485,650,o),
(478,638,o),
(476,628,cs),
(371,27,ls),
(369,15,o),
(371,0,o),
(394,0,cs)
);
}
);
vertWidth = 0;
width = 517;
},
{
layerId = "140DECC1-64C4-40C0-9C07-503DBC3F4160";
shapes = (
{
closed = 1;
nodes = (
(120,0,o),
(136,20,o),
(139,40,cs),
(236,597,ls),
(242,632,o),
(224,650,o),
(195,650,cs),
(168,650,o),
(142,637,o),
(137,609,cs),
(39,49,ls),
(34,21,o),
(54,0,o),
(86,0,cs)
);
},
{
closed = 1;
nodes = (
(465,282,l),
(479,372,l),
(146,372,l),
(132,282,l)
);
},
{
closed = 1;
nodes = (
(448,0,o),
(469,17,o),
(473,37,cs),
(571,599,ls),
(577,631,o),
(556,650,o),
(525,650,cs),
(497,650,o),
(476,635,o),
(472,613,cs),
(374,49,ls),
(369,20,o),
(386,0,o),
(419,0,cs)
);
}
);
vertWidth = 0;
width = 566;
}
);
unicode = 72;
},
{
color = 6;
glyphname = I;
layers = (
{
layerId = m01;
shapes = (
{
closed = 1;
nodes = (
(133,24,l),
(239,629,l),
(188,630,l),
(82,24,l)
);
},
{
closed = 1;
nodes = (
(154,0,ls),
(174,0,o),
(180,11,o),
(180,23,cs),
(180,35,o),
(174,46,o),
(154,46,cs),
(61,46,ls),
(41,46,o),
(35,35,o),
(35,23,cs),
(35,11,o),
(41,0,o),
(61,0,cs)
);
},
{
closed = 1;
nodes = (
(258,604,ls),
(278,604,o),
(284,616,o),
(284,628,cs),
(284,640,o),
(278,650,o),
(258,650,cs),
(169,650,ls),
(149,650,o),
(143,640,o),
(143,628,cs),
(143,616,o),
(149,604,o),
(169,604,cs)
);
}
);
vertWidth = 0;
width = 276;
},
{
layerId = "140DECC1-64C4-40C0-9C07-503DBC3F4160";
shapes = (
{
closed = 1;
nodes = (
(219,39,l),
(318,612,l),
(217,612,l),
(118,39,l)
);
},
{
closed = 1;
nodes = (
(252,0,ls),
(285,0,o),
(296,20,o),
(300,44,cs),
(304,68,o),
(291,90,o),
(266,90,cs),
(88,90,ls),
(56,90,o),
(41,68,o),
(37,44,cs),
(33,20,o),
(49,0,o),
(74,0,cs)
);
},
{
closed = 1;
nodes = (
(352,560,ls),
(384,560,o),
(398,583,o),
(402,607,cs),
(406,631,o),
(389,650,o),
(366,650,cs),
(188,650,ls),
(157,650,o),
(143,631,o),
(139,607,cs),
(135,583,o),
(151,560,o),
(174,560,cs)
);
}
);
vertWidth = 0;
width = 394;
}
);
unicode = 73;
},
{
color = 6;
glyphname = J;
kernRight = H_right;
layers = (
{
layerId = m01;
shapes = (
{
closed = 1;
nodes = (
(71,0,o),
(161,4,o),
(180,7,cs),
(316,27,o),
(342.912,148.168,o),
(369,296,cs),
(428,625,l),
(377,625,l),
(319,301,ls),
(299.33,187.895,o),
(282,71,o),
(184,54,cs),
(157,49,o),
(64,46,o),
(40,46,cs),
(28,46,o),
(15,38,o),
(15,24,cs),
(15,9,o),
(28,0,o),
(40,0,cs)
);
},
{
closed = 1;
nodes = (
(554,604,ls),
(574,604,o),
(580,615,o),
(580,627,cs),
(580,639,o),
(574,650,o),
(554,650,cs),
(250,650,ls),
(230,650,o),
(224,639,o),
(224,627,cs),
(224,615,o),
(230,604,o),
(250,604,cs)
);
}
);
vertWidth = 0;
width = 570;
},
{
layerId = "140DECC1-64C4-40C0-9C07-503DBC3F4160";
shapes = (
{
closed = 1;
nodes = (
(98,0,o),
(184,2,o),
(202,4,cs),
(384,26,o),
(382,158,o),
(407,294,cs),
(462,602,l),
(360,602,l),
(308,306,ls),
(290,200,o),
(280,105,o),
(200,95,cs),
(176,92,o),
(89,90,o),
(68,90,cs),
(44,90,o),
(19,71,o),
(19,45,cs),
(19,18,o),
(44,0,o),
(68,0,cs)
);
},
{
closed = 1;
nodes = (
(556,560,ls),
(588,560,o),
(606,580,o),
(606,606,cs),
(606,634,o),
(587,650,o),
(557,650,cs),
(269,650,ls),
(238,650,o),
(219,633,o),
(219,606,cs),
(219,578,o),
(238,560,o),
(268,560,cs)
);
}
);
vertWidth = 0;
width = 601;
}
);
unicode = 74;
},
{
color = 6;
glyphname = K;
kernLeft = H_left;
layers = (
{
layerId = m01;
shapes = (
{
closed = 1;
nodes = (
(409,0,o),
(422,10,o),
(422,23,cs),
(422,30,o),
(418,37,o),
(410,48,cs),
(168,369,l),
(160,331,l),
(509,603,ls),
(521,613,o),
(528,619,o),
(528,631,cs),
(528,640,o),
(521,650,o),
(508,650,cs),
(500,651,o),
(489,647,o),
(477,637,cs),
(125,360,l),
(126,345,l),
(368,19,ls),
(375,9,o),
(384,0,o),
(397,0,cs)
);
},
{
closed = 1;
nodes = (
(80,0,o),
(85,18,o),
(87,31,cs),
(191,619,ls),
(194,637,o),
(190,650,o),
(171,650,cs),
(151,650,o),
(144,639,o),
(141,623,cs),
(36,32,ls),
(33,17,o),
(41,0,o),
(59,0,cs)
);
}
);
vertWidth = 0;
width = 468;
},
{
layerId = "140DECC1-64C4-40C0-9C07-503DBC3F4160";
shapes = (
{
closed = 1;
nodes = (
(449,0,o),
(469,22,o),
(469,47,cs),
(469,61,o),
(464,75,o),
(457,85,cs),
(257,370,l),
(248,321,l),
(548,566,ls),
(562,578,o),
(573,593,o),
(573,611,cs),
(573,631,o),
(558,650,o),
(529,650,cs),
(513,650,o),
(493,644,o),
(477,631,cs),
(156,369,l),
(155,339,l),
(373,25,ls),
(384,9,o),
(403,0,o),
(422,0,cs)
);
},
{
closed = 1;
nodes = (
(119,0,o),
(135,19,o),
(140,45,cs),
(238,597,ls),
(245,636,o),
(218,650,o),
(194,650,cs),
(168,650,o),
(144,637,o),
(139,609,cs),
(40,54,ls),
(35,24,o),
(56,0,o),
(88,0,cs)
);
}
);
vertWidth = 0;
width = 516;
}
);
unicode = 75;
},
{
color = 6;
glyphname = L;
kernLeft = H_left;
layers = (
{
layerId = m01;
shapes = (
{
closed = 1;
nodes = (
(395,0,ls),
(413,0,o),
(421,14,o),
(421,26,cs),
(421,38,o),
(413,46,o),
(395,46,cs),
(89,46,l),
(190,619,ls),
(193,637,o),
(190,650,o),
(170,650,cs),
(150,650,o),
(143,639,o),
(140,623,cs),
(35,27,ls),
(32,12,o),
(40,0,o),
(58,0,cs)
);
}
);
vertWidth = 0;
width = 467;
},
{
layerId = "140DECC1-64C4-40C0-9C07-503DBC3F4160";
shapes = (
{
closed = 1;
nodes = (
(428,0,ls),
(458,0,o),
(478,22,o),
(478,46,cs),
(478,70,o),
(458,90,o),
(428,90,cs),
(148,90,l),
(238,597,ls),
(245,639,o),
(221,650,o),
(196,650,cs),
(167,650,o),
(143,637,o),
(138,609,cs),
(39,49,ls),
(34,21,o),
(52,0,o),
(82,0,cs)
);
}
);
vertWidth = 0;
width = 521;
}
);
unicode = 76;
},
{
color = 6;
glyphname = M;
kernLeft = H_left;
kernRight = H_right;
layers = (
{
layerId = m01;
shapes = (
{
closed = 1;
nodes = (
(12,0,o),
(25,7,o),
(34,25,cs),
(314,569,l),
(304,572,l),
(345,24,ls),
(346,14,o),
(350,0,o),
(373,0,cs),
(392,0,o),
(400,17,o),
(404,24,cs),
(686,571,l),
(676,574,l),
(718,24,ls),
(719,14,o),
(724,0,o),
(745,0,cs),
(761,0,o),
(769,11,o),
(768,26,cs),
(719,622,ls),
(718,638,o),
(715,650,o),
(694,650,cs),
(672,650,o),
(666,635,o),
(660,624,cs),
(378,76,l),
(388,73,l),
(346,631,ls),
(345,639,o),
(339,650,o),
(321,650,cs),
(304,650,o),
(297,639,o),
(290,625,cs),
(-16,38,ls),
(-28,14,o),
(-15,0,o),
(1,0,cs)
);
}
);
vertWidth = 0;
width = 814;
},
{
layerId = "140DECC1-64C4-40C0-9C07-503DBC3F4160";
shapes = (
{
closed = 1;
nodes = (
(51,0,o),
(79,9,o),
(91,33,cs),
(309,459,l),
(300,462,l),
(332,40,ls),
(334,18,o),
(351,0,o),
(381,0,cs),
(421,0,o),
(431,19,o),
(437,31,cs),
(657,459,l),
(649,462,l),
(679,40,ls),
(680,19,o),
(702,0,o),
(733,0,cs),
(762,0,o),
(781,20,o),
(779,46,cs),
(733,606,ls),
(731,635,o),
(725,650,o),
(689,650,cs),
(660,650,o),
(642,638,o),
(631,616,cs),
(408,184,l),
(416,181,l),
(385,606,ls),
(383,635,o),
(371,650,o),
(330,650,cs),
(303,650,o),
(294,638,o),
(283,617,cs),
(-6,64,ls),
(-24,30,o),
(3,0,o),
(33,0,cs)
);
}
);
vertWidth = 0;
width = 822;
}
);
unicode = 77;
},
{
color = 6;
glyphname = N;
kernLeft = H_left;
kernRight = H_right;
layers = (
{
layerId = m01;
shapes = (
{
closed = 1;
nodes = (
(80,0,o),
(84,16,o),
(86,28,cs),
(182,577,l),
(167,575,l),
(370,18,ls),
(374,8,o),
(383,0,o),
(397,0,cs),
(418,0,o),
(420,15,o),
(422,25,cs),
(526,619,ls),
(529,637,o),
(526,650,o),
(507,650,cs),
(487,650,o),
(480,639,o),
(477,623,cs),
(381,83,l),
(396,85,l),
(200,630,ls),
(197,639,o),
(187,650,o),
(169,650,cs),
(148,650,o),
(143,639,o),
(140,623,cs),
(35,27,ls),
(32,12,o),
(40,0,o),
(58,0,cs)
);
}
);
vertWidth = 0;
width = 518;
},
{
layerId = "140DECC1-64C4-40C0-9C07-503DBC3F4160";
shapes = (
{
closed = 1;
nodes = (
(115,0,o),
(135,19,o),
(139,42,cs),
(209,463,l),
(197,460,l),
(378,28,ls),
(386,10,o),
(401,0,o),
(426,0,c),
(460,0,o),
(469,19,o),
(473,40,cs),
(571,597,ls),
(577,629,o),
(561,653,o),
(528,653,cs),
(500,653,o),
(477,637,o),
(472,609,cs),
(402,184,l),
(414,187,l),
(232,620,ls),
(223,641,o),
(205,650,o),
(185,650,c),
(160,650,o),
(143,636,o),
(138,609,cs),
(39,49,ls),
(34,21,o),
(53,0,o),
(82,0,cs)
);
}
);
vertWidth = 0;
width = 566;
}
);
unicode = 78;
},
{
color = 6;
glyphname = O;
kernLeft = O_left;
kernRight = O_right;
layers = (
{
layerId = m01;
shapes = (
{
closed = 1;
nodes = (
(412,0,o),
(489,256,o),
(512,387,cs),
(541,551,o),
(488,650,o),
(346,650,cs),
(168,650,o),
(92,467,o),
(68,329,cs),
(40,167,o),
(67,0,o),
(240,0,cs)
);
},
{
closed = 1;
nodes = (
(106,46,o),
(96,202,o),
(117,319,cs),
(133,406,o),
(195,604,o),
(341,604,cs),
(474,604,o),
(482,495,o),
(462,381,cs),
(443,271,o),
(355,46,o),
(239,46,cs)
);
}
);
vertWidth = 0;
width = 524;
},
{
layerId = "140DECC1-64C4-40C0-9C07-503DBC3F4160";
shapes = (
{
closed = 1;
nodes = (
(407,0,o),
(520,148,o),
(562,387,cs),
(591,551,o),
(538,650,o),
(371,650,cs),
(208,650,o),
(106,542,o),
(68,329,cs),
(33,126,o),
(108,0,o),
(265,0,cs)
);
},
{
closed = 1;
nodes = (
(179,90,o),
(142,177,o),
(167,319,cs),
(196,479,o),
(263,560,o),
(366,560,cs),
(474,560,o),
(482,495,o),
(462,381,cs),
(431,201,o),
(355,90,o),
(264,90,cs)
);
}
);
vertWidth = 0;
width = 574;
}
);
unicode = 79;
},
{
color = 6;
glyphname = P;
kernLeft = H_left;
layers = (
{
layerId = m01;
shapes = (
{
closed = 1;
nodes = (
(80,0,o),
(83,15,o),
(85,25,cs),
(187,604,l),
(384,602,o),
(461,556,o),
(451,481,cs),
(436,367,o),
(289,350,o),
(117,350,c),
(110,304,l),
(318,304,o),
(479,321,o),
(501,476,cs),
(518,598,o),
(385,650,o),
(170,650,cs),
(148,650,o),
(143,639,o),
(140,623,cs),
(35,27,ls),
(32,12,o),
(40,0,o),
(58,0,cs)
);
}
);
vertWidth = 0;
width = 497;
},
{
layerId = "140DECC1-64C4-40C0-9C07-503DBC3F4160";
shapes = (
{
closed = 1;
nodes = (
(119,0,o),
(132,17,o),
(136,39,cs),
(228,562,l),
(433,562,o),
(459,533,o),
(451,472,cs),
(440,382,o),
(301,364,o),
(146,363,c),
(134,273,l),
(330,274,o),
(523,289,o),
(548,467,cs),
(567,602,o),
(435,650,o),
(190,650,cs),
(160,650,o),
(142,637,o),
(137,609,cs),
(38,48,ls),
(33,21,o),
(52,0,o),
(85,0,cs)
);
}
);
vertWidth = 0;
width = 546;
}
);
unicode = 80;
},
{
color = 6;
glyphname = Q;
kernLeft = O_left;
kernRight = O_right;
layers = (
{
layerId = m01;
shapes = (
{
closed = 1;
nodes = (
(412,0,o),
(489,256,o),
(512,387,cs),
(541,551,o),
(488,650,o),
(346,650,cs),
(168,650,o),
(92,467,o),
(68,329,cs),
(40,167,o),
(67,0,o),
(240,0,cs)
);
},
{
closed = 1;
nodes = (
(106,46,o),
(96,202,o),
(117,319,cs),
(133,406,o),
(195,604,o),
(341,604,cs),
(474,604,o),
(482,495,o),
(462,381,cs),
(443,271,o),
(355,46,o),
(239,46,cs)
);
},
{
closed = 1;
nodes = (
(424,-69,o),
(424,-50,o),
(416,-38,cs),
(308,119,ls),
(298,133,o),
(280,140,o),
(266,128,cs),
(254,119,o),
(256,107,o),
(267,91,cs),
(371,-61,ls),
(381,-76,o),
(397,-84,o),
(410,-77,cs)
);
}
);
vertWidth = 0;
width = 524;
},
{
layerId = "140DECC1-64C4-40C0-9C07-503DBC3F4160";
shapes = (
{
closed = 1;
nodes = (
(407,0,o),
(520,148,o),
(562,387,cs),
(591,551,o),
(538,650,o),
(371,650,cs),
(208,650,o),
(106,542,o),
(68,329,cs),
(33,126,o),
(108,0,o),
(265,0,cs)
);
},
{
closed = 1;
nodes = (
(179,90,o),
(142,177,o),
(167,319,cs),
(196,479,o),
(263,560,o),
(366,560,cs),
(474,560,o),
(482,495,o),
(462,381,cs),
(431,201,o),
(355,90,o),
(264,90,cs)
);
},
{
closed = 1;
nodes = (
(465,-56,o),
(470,-28,o),
(454,-4,cs),
(347,154,ls),
(329,181,o),
(298,189,o),
(276,173,cs),
(254,158,o),
(250,128,o),
(266,104,cs),
(371,-50,ls),
(389,-77,o),
(420,-85,o),
(442,-71,cs)
);
}
);
vertWidth = 0;
width = 574;
}
);
unicode = 81;
},
{
color = 6;
glyphname = R;
kernLeft = H_left;
layers = (
{
layerId = m01;
shapes = (
{
closed = 1;
nodes = (
(80,0,o),
(84,16,o),
(87,31,cs),
(187,604,l),
(371,602,o),
(462,558,o),
(451,481,cs),
(435,368,o),
(287,350,o),
(116,350,c),
(109,304,l),
(311,304,o),
(479,321,o),
(501,476,cs),
(518,598,o),
(388,650,o),
(170,650,cs),
(148,650,o),
(143,639,o),
(140,623,cs),
(36,33,ls),
(33,16,o),
(40,0,o),
(58,0,cs)
);
},
{
closed = 1;
nodes = (
(420,0,o),
(431,24,o),
(408,50,cs),
(172,321,l),
(108,321,l),
(371,18,ls),
(382,5,o),
(391,0,o),
(399,0,cs)
);
}
);
vertWidth = 0;
width = 497;
},
{
layerId = "140DECC1-64C4-40C0-9C07-503DBC3F4160";
shapes = (
{
closed = 1;
nodes = (
(110,0,o),
(136,23,o),
(141,53,cs),
(231,560,l),
(409,561,o),
(463,531,o),
(452,470,cs),
(437,382,o),
(304,363,o),
(142,363,c),
(128,273,l),
(328,273,o),
(517,289,o),
(549,467,cs),
(573,602,o),
(436,650,o),
(193,650,cs),
(162,650,o),
(143,637,o),
(138,609,cs),
(40,54,ls),
(35,24,o),
(47,0,o),
(79,0,cs)
);
},
{
closed = 1;
nodes = (
(459,0,o),
(493,41,o),
(451,89,cs),
(250,318,l),
(121,318,l),
(375,23,ls),
(393,3,o),
(414,0,o),
(427,0,cs)
);
}
);
vertWidth = 0;
width = 547;
}
);
unicode = 82;
},
{
color = 6;
glyphname = S;
layers = (
{
layerId = m01;
shapes = (
{
closed = 1;
nodes = (
(293,0,o),
(375,75,o),
(375,196,cs),
(375,259,o),
(329,318,o),
(258,368,cs),
(184,419,o),
(139,450,o),
(139,497,cs),
(139,563,o),
(202,604,o),
(303,604,cs),
(372,604,o),
(388,584,o),
(394,547,cs),
(396,534,o),
(416,531,o),
(428,534,cs),
(443,538,o),
(443,552,o),
(441,562,cs),
(429,626,o),
(389,650,o),
(304,650,cs),
(172,650,o),
(90,590,o),
(90,494,cs),
(90,424,o),
(147,386,o),
(218,335,cs),
(297,279,o),
(325,237,o),
(325,189,cs),
(325,101,o),
(262,46,o),
(160,46,cs),
(102,46,o),
(72,66,o),
(64,103,cs),
(61,116,o),
(47,121,o),
(35,118,cs),
(20,114,o),
(15,98,o),
(17,88,cs),
(27,30,o),
(81,0,o),
(160,0,cs)
);
}
);
vertWidth = 0;
width = 425;
},
{
layerId = "140DECC1-64C4-40C0-9C07-503DBC3F4160";
shapes = (
{
closed = 1;
nodes = (
(331,0,o),
(435,91,o),
(435,212,cs),
(435,269,o),
(413,312,o),
(311,385,cs),
(260,421,o),
(196,456,o),
(196,487,cs),
(196,535,o),
(244,560,o),
(339,560,cs),
(383,560,o),
(406,549,o),
(410,526,cs),
(415,496,o),
(445,489,o),
(467,495,cs),
(492,503,o),
(501,524,o),
(497,548,cs),
(483,621,o),
(434,650,o),
(354,650,cs),
(185,650,o),
(99,595,o),
(99,487,cs),
(99,392,o),
(190,352,o),
(244,313,cs),
(318,259,o),
(340,239,o),
(340,201,cs),
(340,139,o),
(284,90,o),
(209,90,cs),
(158,90,o),
(125,104,o),
(121,124,cs),
(115,153,o),
(86,158,o),
(65,154,cs),
(39,149,o),
(29,126,o),
(34,102,cs),
(45,39,o),
(105,0,o),
(192,0,cs)
);
}
);
vertWidth = 0;
width = 484;
}
);
unicode = 83;
},
{
color = 6;
glyphname = T;
layers = (
{
layerId = m01;
shapes = (
{
closed = 1;
nodes = (
(250,0,o),
(253,15,o),
(255,25,cs),
(359,619,l),
(308,619,l),
(205,27,ls),
(202,12,o),
(210,0,o),
(228,0,cs)
);
},
{
closed = 1;
nodes = (
(524,604,ls),
(544,604,o),
(550,615,o),
(550,627,cs),
(550,639,o),
(544,650,o),
(524,650,cs),
(137,650,ls),
(117,650,o),
(111,639,o),
(111,627,cs),
(111,615,o),
(117,604,o),
(137,604,cs)
);
}
);
vertWidth = 0;
width = 510;
},
{
layerId = "140DECC1-64C4-40C0-9C07-503DBC3F4160";
shapes = (
{
closed = 1;
nodes = (
(249,-1,o),
(266,18,o),
(270,39,cs),
(371,617,l),
(270,617,l),
(170,49,ls),
(165,21,o),
(185,-1,o),
(216,-1,cs)
);
},
{
closed = 1;
nodes = (
(500,563,ls),
(532,563,o),
(550,583,o),
(550,607,cs),
(550,633,o),
(530,653,o),
(500,653,cs),
(138,653,ls),
(108,653,o),
(88,633,o),
(88,607,cs),
(88,583,o),
(106,563,o),
(138,563,cs)
);
}
);
vertWidth = 0;
width = 494;
}
);
unicode = 84;
},
{
color = 6;
glyphname = U;
kernLeft = H_left;
kernRight = H_right;
layers = (
{
layerId = m01;
shapes = (
{
closed = 1;
nodes = (
(238,-4,o),
(385,174,o),
(459,417,c),
(458,520,l),
(374,246,o),
(234,42,o),
(137,42,cs),
(90,42,o),
(100,116,o),
(112,180,cs),
(192,622,ls),
(195,636,o),
(186,649,o),
(171,650,cs),
(155,650,o),
(144,636,o),
(141,620,cs),
(62,183,ls),
(38,52,o),
(70,-4,o),
(129,-4,cs)
);
},
{
closed = 1;
nodes = (
(406,-1,o),
(418,7,o),
(421,22,cs),
(527,624,ls),
(530,639,o),
(523,650,o),
(503,650,cs),
(485,650,o),
(478,638,o),
(476,626,cs),
(371,27,ls),
(368,8,o),
(380,-1,o),
(394,-1,cs)
);
}
);
vertWidth = 0;
width = 517;
},
{
layerId = "140DECC1-64C4-40C0-9C07-503DBC3F4160";
shapes = (
{
closed = 1;
nodes = (
(282,-4,o),
(415,146,o),
(483,389,c),
(460,543,l),
(383,260,o),
(276,86,o),
(182,86,cs),
(151,86,o),
(153,125,o),
(164,185,cs),
(238,600,ls),
(243,629,o),
(222,650,o),
(193,650,cs),
(161,651,o),
(141,624,o),
(138,606,cs),
(64,195,ls),
(39,57,o),
(81,-4,o),
(154,-4,cs)
);
},
{
closed = 1;
nodes = (
(443,0,o),
(469,12,o),
(473,37,cs),
(572,602,ls),
(577,630,o),
(559,650,o),
(525,650,cs),
(497,650,o),
(476,635,o),
(472,612,cs),
(374,49,ls),
(368,16,o),
(392,0,o),
(420,0,cs)
);
}
);
vertWidth = 0;
width = 566;
}
);
unicode = 85;
},
{
color = 6;
glyphname = V;
kernLeft = V_left;
kernRight = V_right;
layers = (
{
layerId = m01;
shapes = (
{
closed = 1;
nodes = (
(170,0,o),
(174,11,o),
(181,25,cs),
(474,618,ls),
(484,638,o),
(472,650,o),
(457,650,cs),
(438,650,o),
(430,642,o),
(422,625,cs),
(161,87,l),
(167,84,l),
(141,626,ls),
(141,636,o),
(136,650,o),
(114,650,c),
(96,650,o),
(90,639,o),
(91,624,cs),
(124,28,ls),
(125,15,o),
(133,0,o),
(151,0,cs)
);
}
);
vertWidth = 0;
width = 417;
},
{
layerId = "140DECC1-64C4-40C0-9C07-503DBC3F4160";
shapes = (
{
closed = 1;
nodes = (
(199,-2,o),
(211,15,o),
(221,34,cs),
(497,591,ls),
(514,625,o),
(492,650,o),
(460,650,cs),
(431,650,o),
(412,638,o),
(402,618,cs),
(198,195,l),
(205,192,l),
(185,610,ls),
(184,633,o),
(166,650,o),
(134,650,cs),
(105,650,o),
(86,634,o),
(88,604,cs),
(120,44,ls),
(121,19,o),
(141,-2,o),
(170,-2,cs)
);
}
);
vertWidth = 0;
width = 445;
}
);
unicode = 86;
},
{
color = 6;
glyphname = W;
kernLeft = V_left;
kernRight = V_right;
layers = (
{
layerId = m01;
shapes = (
{
closed = 1;
nodes = (
(169,0,o),
(178,15,o),
(183,26,cs),
(446,570,l),
(439,573,l),
(467,19,ls),
(468,6,o),
(476,0,o),
(493,0,cs),
(506,0,o),
(515,8,o),
(523,25,cs),
(815,618,ls),
(825,638,o),
(813,650,o),
(795,650,cs),
(780,650,o),
(771,641,o),
(763,625,cs),
(503,89,l),
(510,86,l),
(482,626,ls),
(481,636,o),
(476,650,o),
(452,650,cs),
(436,650,o),
(425,633,o),
(422,626,cs),
(161,85,l),
(168,82,l),
(141,626,ls),
(141,636,o),
(136,650,o),
(114,650,c),
(96,650,o),
(90,639,o),
(91,624,cs),
(124,28,ls),
(125,12,o),
(135,0,o),
(152,0,cs)
);
}
);
vertWidth = 0;
width = 758;
},
{
layerId = "140DECC1-64C4-40C0-9C07-503DBC3F4160";
shapes = (
{
closed = 1;
nodes = (
(191,0,o),
(209,13,o),
(220,34,cs),
(436,469,l),
(421,472,l),
(450,45,ls),
(452,17,o),
(471,0,o),
(499,0,cs),
(521,0,o),
(541,13,o),
(551,35,cs),
(824,591,ls),
(841,625,o),
(815,650,o),
(785,650,cs),
(754,650,o),
(737.096,633.192,o),
(728,615,cs),
(521,186,l),
(536,183,l),
(506,610,ls),
(504,635,o),
(487,650,o),
(452,650,cs),
(419,650,o),
(410,631,o),
(404,619,cs),
(190,183,l),
(204,180,l),
(185,610,ls),
(184,633,o),
(167,650,o),
(135,650,cs),
(106,650,o),
(86,634,o),
(88,604,cs),
(118,44,ls),
(120,17,o),
(140,0,o),
(172,0,cs)
);
}
);
vertWidth = 0;
width = 772;
}
);
unicode = 87;
},
{
color = 6;
glyphname = X;
layers = (
{
layerId = m01;
shapes = (
{
closed = 1;
nodes = (
(23,-3,o),
(42,-4,o),
(53,11,cs),
(487,609,ls),
(498,624,o),
(496,638,o),
(487,645,cs),
(477,653,o),
(458,652,o),
(447,637,cs),
(10,38,ls),
(1,26,o),
(3,13,o),
(12,6,cs)
);
},
{
closed = 1;
nodes = (
(388,8,o),
(392,20,o),
(386,35,cs),
(162,631,ls),
(155,650,o),
(138,654,o),
(126,649,cs),
(114,645,o),
(109,631,o),
(116,613,cs),
(338,19,ls),
(345,0,o),
(365,-3,o),
(378,3,cs)
);
}
);
vertWidth = 0;
width = 457;
},
{
layerId = "140DECC1-64C4-40C0-9C07-503DBC3F4160";
shapes = (
{
closed = 1;
nodes = (
(42,-3,o),
(82,-8,o),
(99,16,cs),
(502,578,ls),
(519,602,o),
(515,623,o),
(497,639,cs),
(479,655,o),
(443,656,o),
(425,631,cs),
(20,69,ls),
(5,48,o),
(5,29,o),
(23,13,cs)
);
},
{
closed = 1;
nodes = (
(415,17,o),
(425,36,o),
(415,61,cs),
(203,623,ls),
(192,651,o),
(160,655,o),
(137,647,cs),
(111,638,o),
(102,617,o),
(114,586,cs),
(322,28,ls),
(333,-1,o),
(371,-6,o),
(394,6,cs)
);
}
);
vertWidth = 0;
width = 492;
}
);
unicode = 88;
},
{
color = 6;
glyphname = Y;
layers = (
{
layerId = m01;
shapes = (
{
closed = 1;
nodes = (
(200,0,o),
(204,15,o),
(206,25,cs),
(258,322,l),
(469,609,ls),
(474,616,o),
(477,623,o),
(477,629,cs),
(477,640,o),
(465,650,o),
(454,650,cs),
(444,650,o),
(435,647,o),
(428,637,cs),
(224,356,l),
(249,352,l),
(142,630,ls),
(138,641,o),
(129,650,o),
(114,650,cs),
(102,650,o),
(91,640,o),
(91,630,cs),
(91,624,o),
(92,621,o),
(95,613,cs),
(207,323,l),
(155,27,ls),
(152,12,o),
(160,0,o),
(178,0,cs)
);
}
);
vertWidth = 0;
width = 416;
},
{
layerId = "140DECC1-64C4-40C0-9C07-503DBC3F4160";
shapes = (
{
closed = 1;
nodes = (
(232,-2,o),
(246,19,o),
(250,40,cs),
(298,316,l),
(493,575,ls),
(501,586,o),
(505,596,o),
(505,608,cs),
(505,634,o),
(474,650,o),
(456,650,cs),
(440,650,o),
(424,642,o),
(415,629,cs),
(246,396,l),
(270,392,l),
(184,619,ls),
(175,640,o),
(163,650,o),
(142,650,cs),
(113,650,o),
(89,634,o),
(89,613,cs),
(89,603,o),
(91,597,o),
(95,586,cs),
(197,322,l),
(150,49,ls),
(145,21,o),
(166,-2,o),
(198,-2,cs)
);
}
);
vertWidth = 0;
width = 449;
}
);
unicode = 89;
},
{
color = 6;
glyphname = Z;
layers = (
{
layerId = m01;
shapes = (
{
closed = 1;
nodes = (
(364,0,ls),
(384,0,o),
(390,13,o),
(390,25,cs),
(390,37,o),
(384,46,o),
(364,46,cs),
(51,46,l),
(60,26,l),
(479,608,ls),
(484,615,o),
(487,624,o),
(487,630,cs),
(487,643,o),
(480,650,o),
(462,650,cs),
(137,650,ls),
(117,650,o),
(111,637,o),
(111,625,cs),
(111,613,o),
(117,604,o),
(137,604,cs),
(441,604,l),
(432,624,l),
(11,39,ls),
(6,32,o),
(5,26,o),
(5,21,cs),
(5,11,o),
(13,0,o),
(31,0,cs)
);
}
);
vertWidth = 0;
width = 466;
},
{
layerId = "140DECC1-64C4-40C0-9C07-503DBC3F4160";
shapes = (
{
closed = 1;
nodes = (
(376,0,ls),
(408,0,o),
(426,19,o),
(426,43,cs),
(426,69,o),
(406,90,o),
(376,90,cs),
(126,90,l),
(133,66,l),
(505,577,ls),
(514,589,o),
(518,600,o),
(518,610,cs),
(518,635,o),
(497,653,o),
(464,653,cs),
(160,653,ls),
(130,653,o),
(110,633,o),
(110,607,cs),
(110,583,o),
(128,563,o),
(160,563,cs),
(401,563,l),
(394,587,l),
(17,70,ls),
(11,62,o),
(8,53,o),
(8,44,cs),
(8,25,o),
(21,0,o),
(66,0,cs)
);
}
);
vertWidth = 0;
width = 501;
}
);
unicode = 90;
},
{
color = 6;
glyphname = a;
kernLeft = o_left;
kernRight = n_right;
layers = (
{
layerId = m01;
shapes = (
{
closed = 1;
nodes = (
(162,-4,o),
(221,49,o),
(261,158,c),
(273,270,l),
(220,129,o),
(163,42,o),
(117,42,cs),
(84,42,o),
(66,82,o),
(77,147,cs),
(94,244,o),
(164,304,o),
(260,304,cs),
(301,304,l),
(309,350,l),
(257,350,ls),
(137,350,o),
(49,272,o),
(26,147,cs),
(9,54,o),
(44,-4,o),
(109,-4,cs)
);
},
{
closed = 1;
nodes = (
(277,0,o),
(279,18,o),
(280,23,cs),
(332,316,ls),
(335,334,o),
(333,350,o),
(317,350,cs),
(287,350,l),
(229,23,ls),
(228,15,o),
(229,0,o),
(251,0,cs)
);
}
);
vertWidth = 0;
width = 356;
},
{
layerId = "140DECC1-64C4-40C0-9C07-503DBC3F4160";
shapes = (
{
closed = 1;
nodes = (
(162,-4,o),
(206,39,o),
(250,123,c),
(256,253,l),
(212,142,o),
(165,83,o),
(144,83,cs),
(128,83,o),
(121,109,o),
(127,147,cs),
(139,217,o),
(192,263,o),
(267,263,cs),
(276,263,l),
(288,350,l),
(264,350,ls),
(139,350,o),
(48,272,o),
(26,147,cs),
(9,54,o),
(44,-4,o),
(117,-4,cs)
);
},
{
closed = 1;
nodes = (
(299,0,o),
(311,22,o),
(314,37,cs),
(359,295,ls),
(365,328,o),
(353,350,o),
(321,350,cs),
(273,350,l),
(219,44,ls),
(215,21,o),
(231,0,o),
(263,0,cs)
);
}
);
vertWidth = 0;
width = 387;
}
);
unicode = 97;
},
{
color = 6;
glyphname = b;
kernLeft = h_left;
kernRight = o_right;
layers = (
{
layerId = m01;
shapes = (
{
closed = 1;
nodes = (
(244,-4,o),
(318,82,o),
(318,198,cs),
(318,233,o),
(311,269,o),
(296,323,c),
(274,303,l),
(373,286,ls),
(396,282,o),
(415,287,o),
(415,308,cs),
(415,317,o),
(409,329,o),
(391,332,cs),
(277,350,l),
(246,357,o),
(248,330,o),
(252,319,cs),
(260,294,o),
(272,260,o),
(272,208,cs),
(272,115,o),
(221,42,o),
(161,42,cs),
(111,42,o),
(87,90,o),
(97,148,cs),
(181,623,ls),
(184,642,o),
(174,650,o),
(161,650,cs),
(148,650,o),
(133,640,o),
(130,623,cs),
(46,148,ls),
(31,61,o),
(73,-4,o),
(153,-4,cs)
);
}
);
vertWidth = 0;
width = 401;
},
{
layerId = "140DECC1-64C4-40C0-9C07-503DBC3F4160";
shapes = (
{
closed = 1;
nodes = (
(277,-4,o),
(353,81,o),
(353,196,cs),
(353,215,o),
(343,249,o),
(326,286,c),
(303,264,l),
(378,242,ls),
(418,230,o),
(448,255,o),
(448,296,cs),
(448,319,o),
(430,334,o),
(406,338,cs),
(299,356,ls),
(244,365,o),
(234,327,o),
(243,305,cs),
(254,277,o),
(261,250,o),
(261,233,cs),
(261,147,o),
(230,83,o),
(188,83,cs),
(156,83,o),
(143,116,o),
(152,170,cs),
(231,619,ls),
(237,654,o),
(216,675,o),
(187,675,cs),
(162,675,o),
(136,656,o),
(131,627,cs),
(52,178,ls),
(32,65,o),
(79,-4,o),
(174,-4,cs)
);
}
);
vertWidth = 0;
width = 457;
}
);
unicode = 98;
},
{
color = 6;
glyphname = c;
kernLeft = o_left;
layers = (
{
layerId = m01;
shapes = (
{
closed = 1;
nodes = (
(169,-4,o),
(230,48,o),
(272,131,cs),
(276,140,o),
(271,152,o),
(260,158,cs),
(247,165,o),
(233,164,o),
(228,154,cs),
(195,87,o),
(152,42,o),
(116,42,cs),
(89,42,o),
(73,69,o),
(74,105,cs),
(77,219,o),
(129,308,o),
(196,308,cs),
(219,308,o),
(250,304,o),
(269,297,cs),
(286,290,o),
(300,291,o),
(306,306,cs),
(313,321,o),
(307,335,o),
(290,341,cs),
(267,350,o),
(229,354,o),
(196,354,cs),
(97,354,o),
(23,243,o),
(23,95,cs),
(23,34,o),
(57,-4,o),
(112,-4,cs)
);
}
);
vertWidth = 0;
width = 323;
},
{
layerId = "140DECC1-64C4-40C0-9C07-503DBC3F4160";
shapes = (
{
closed = 1;
nodes = (
(185,-4,o),
(250,44,o),
(292,121,cs),
(298,132,o),
(297,159,o),
(271,172,cs),
(245,185,o),
(219,179,o),
(211,164,cs),
(185,114,o),
(155,83,o),
(132,83,cs),
(119,83,o),
(112,96,o),
(114,118,cs),
(125,216,o),
(162,276,o),
(213,276,cs),
(228,276,o),
(244,273,o),
(263,265,cs),
(286,256,o),
(308,265,o),
(319,288,cs),
(335,322,o),
(309,340,o),
(296,345,cs),
(274,354,o),
(248,358,o),
(213,358,cs),
(111,358,o),
(38,267,o),
(22,120,cs),
(13,43,o),
(51,-4,o),
(122,-4,cs)
);
}
);
vertWidth = 0;
width = 342;
}
);
unicode = 99;
},
{
color = 6;
glyphname = d;
kernLeft = o_left;
layers = (
{
layerId = m01;
shapes = (
{
closed = 1;
nodes = (
(162,-4,o),
(221,49,o),
(261,158,c),
(273,270,l),
(220,129,o),
(163,42,o),
(117,42,cs),
(84,42,o),
(66,82,o),
(77,147,cs),
(94,244,o),
(164,304,o),
(260,304,cs),
(301,304,l),
(309,350,l),
(257,350,ls),
(137,350,o),
(49,272,o),
(26,147,cs),
(9,54,o),
(44,-4,o),
(109,-4,cs)
);
},
{
closed = 1;
nodes = (
(266,0,o),
(276,6,o),
(279,21,cs),
(386,623,ls),
(389,639,o),
(377,649,o),
(363,650,cs),
(352,651,o),
(339,646,o),
(336,631,cs),
(230,29,ls),
(227,11,o),
(241,0,o),
(255,0,cs)
);
}
);
vertWidth = 0;
width = 366;
},
{
layerId = "140DECC1-64C4-40C0-9C07-503DBC3F4160";
shapes = (
{
closed = 1;
nodes = (
(162,-4,o),
(206,39,o),
(250,123,c),
(256,253,l),
(212,142,o),
(165,83,o),
(144,83,cs),
(128,83,o),
(121,109,o),
(127,147,cs),
(139,217,o),
(192,263,o),
(267,263,cs),
(276,263,l),
(288,350,l),
(264,350,ls),
(139,350,o),
(48,272,o),
(26,147,cs),
(9,54,o),
(44,-4,o),
(117,-4,cs)
);
},
{
closed = 1;
nodes = (
(288,0,o),
(314,15,o),
(319,44,cs),
(417,599,ls),
(423,631,o),
(396,650,o),
(368,650,cs),
(346,650,o),
(324,640,o),
(319,612,cs),
(220,50,ls),
(214,15,o),
(243,0,o),
(266,0,cs)
);
}
);
vertWidth = 0;
width = 401;
}
);
unicode = 100;
},
{
color = 6;
glyphname = e;
kernLeft = o_left;
layers = (
{
layerId = m01;
shapes = (
{
closed = 1;
nodes = (
(153,-4,o),
(200,22,o),
(232,64,cs),
(254,93,o),
(249,106,o),
(239,113,cs),
(228,121,o),
(213,119,o),
(194,94,cs),
(167,62,o),
(136,42,o),
(111,42,cs),
(88,42,o),
(74,65,o),
(74,98,cs),
(74,207,o),
(134,308,o),
(201,308,cs),
(220,308,o),
(230,298,o),
(230,288,cs),
(230,267,o),
(187,235,o),
(138,206,cs),
(113,192,o),
(85,177,o),
(63,165,c),
(51,108,l),
(66,115,o),
(128,147,o),
(166,168,cs),
(206,191,o),
(281,230,o),
(281,291,cs),
(281,333,o),
(252,354,o),
(207,354,cs),
(110,354,o),
(23,237,o),
(23,107,cs),
(23,38,o),
(56,-4,o),
(110,-4,cs)
);
}
);
vertWidth = 0;
width = 311;
},
{
layerId = "140DECC1-64C4-40C0-9C07-503DBC3F4160";
shapes = (
{
closed = 1;
nodes = (
(192,-4,o),
(243,19,o),
(275,58,cs),
(301,90,o),
(289,117,o),
(274,128,cs),
(254,142,o),
(228,135,o),
(207,110,cs),
(191,91,o),
(168,81,o),
(147,81,cs),
(132,81,o),
(124,93,o),
(124,118,cs),
(124,212,o),
(166,282,o),
(222,282,cs),
(228,282,o),
(231,279,o),
(231,273,cs),
(231,260,o),
(211,240,o),
(173,217,cs),
(146,201,o),
(100,176,o),
(82,167,c),
(69,88,l),
(128,115,o),
(184,143,o),
(216,162,cs),
(286,201,o),
(321,242,o),
(321,284,cs),
(321,333,o),
(289,358,o),
(225,358,cs),
(120,358,o),
(25,244,o),
(25,117,cs),
(25,36,o),
(64,-4,o),
(140,-4,cs)
);
}
);
vertWidth = 0;
width = 344;
}
);
unicode = 101;
},
{
color = 6;
glyphname = f;
layers = (
{
layerId = m01;
shapes = (
{
closed = 1;
nodes = (
(46,-301,o),
(53,-286,o),
(55,-274,cs),
(185,522,ls),
(195,581,o),
(220,600,o),
(253,600,cs),
(264,600,o),
(283,594,o),
(295,586,cs),
(301,582,o),
(318,580,o),
(328,598,cs),
(337,615,o),
(326,626,o),
(318,631,cs),
(302,642,o),
(273,650,o),
(254,650,cs),
(204,650,o),
(151,622,o),
(137,534,cs),
(5,-270,ls),
(3,-282,o),
(11,-298,o),
(29,-300,cs)
);
},
{
closed = 1;
nodes = (
(221,305,ls),
(241,305,o),
(245,316,o),
(245,328,cs),
(245,340,o),
(238,350,o),
(218,350,cs),
(43,350,ls),
(23,350,o),
(18,340,o),
(18,328,cs),
(18,316,o),
(26,305,o),
(46,305,cs)
);
}
);
vertWidth = 0;
width = 236;
},
{
layerId = "140DECC1-64C4-40C0-9C07-503DBC3F4160";
shapes = (
{
closed = 1;
nodes = (
(83,-299,o),
(105,-279,o),
(109,-255,cs),
(234,504,ls),
(240,542,o),
(263,559,o),
(281,559,cs),
(301,559,o),
(315,551,o),
(323,546,cs),
(335,538,o),
(360,540,o),
(376,567,cs),
(390,592,o),
(384,612,o),
(366,624,cs),
(340,641,o),
(314,650,o),
(281,650,cs),
(217,650,o),
(152,622,o),
(136,527,cs),
(10,-241,ls),
(6,-264,o),
(18,-299,o),
(56,-299,cs)
);
},
{
closed = 1;
nodes = (
(249,265,ls),
(279,265,o),
(296,281,o),
(296,307,cs),
(296,331,o),
(276,350,o),
(244,350,cs),
(61,350,ls),
(30,350,o),
(15,331,o),
(15,307,cs),
(15,283,o),
(35,265,o),
(66,265,cs)
);
}
);
vertWidth = 0;
width = 297;
}
);
unicode = 102;
},
{
color = 6;
glyphname = g;
kernLeft = o_left;
layers = (
{
layerId = m01;
shapes = (
{
closed = 1;
nodes = (
(162,-4,o),
(221,49,o),
(261,158,c),
(273,270,l),
(220,129,o),
(163,42,o),
(117,42,cs),
(84,42,o),
(66,82,o),
(77,147,cs),
(94,244,o),
(164,304,o),
(260,304,cs),
(301,304,l),
(309,350,l),
(257,350,ls),
(137,350,o),
(49,272,o),
(26,147,cs),
(9,54,o),
(44,-4,o),
(109,-4,cs)
);
},
{
closed = 1;
nodes = (
(180,-300,o),
(231,-244,o),
(256,-107,cs),
(332,322,ls),
(335,340,o),
(328,350,o),
(308,350,c),
(286,350,l),
(207,-103,ls),
(190,-207,o),
(157,-254,o),
(93,-254,cs),
(64,-254,o),
(34,-246,o),
(15,-232,cs),
(4,-225,o),
(-10,-225,o),
(-17,-233,cs),
(-26,-244,o),
(-25,-259,o),
(-15,-267,cs),
(9,-287,o),
(49,-300,o),
(91,-300,cs)
);
}
);
vertWidth = 0;
width = 355;
},
{
layerId = "140DECC1-64C4-40C0-9C07-503DBC3F4160";
shapes = (
{
closed = 1;
nodes = (
(162,-4,o),
(206,39,o),
(250,123,c),
(256,253,l),
(212,142,o),
(165,83,o),
(144,83,cs),
(128,83,o),
(121,109,o),
(127,147,cs),
(139,217,o),
(192,263,o),
(267,263,cs),
(276,263,l),
(288,350,l),
(264,350,ls),
(139,350,o),
(48,272,o),
(26,147,cs),
(9,54,o),
(44,-4,o),
(117,-4,cs)
);
},
{
closed = 1;
nodes = (
(202,-300,o),
(273,-215,o),
(303,-47,cs),
(365,302,ls),
(370,332,o),
(354,350,o),
(322,350,cs),
(273,350,l),
(203,-40,ls),
(179,-173,o),
(124,-203,o),
(85,-203,cs),
(66,-203,o),
(52,-196,o),
(44,-191,cs),
(23,-178,o),
(-3,-183,o),
(-16,-204,cs),
(-32,-228,o),
(-28,-256,o),
(-7,-271,cs),
(8,-282,o),
(44,-300,o),
(92,-300,cs)
);
}
);
vertWidth = 0;
width = 392;
}
);
unicode = 103;
},
{
color = 6;
glyphname = h;
kernLeft = h_left;
kernRight = n_right;
layers = (
{
layerId = m01;
shapes = (
{
closed = 1;
nodes = (
(73,0,o),
(75,18,o),
(76,23,cs),
(181,623,ls),
(184,640,o),
(180,650,o),
(163,650,c),
(143,650,o),
(133,641,o),
(130,623,cs),
(25,23,ls),
(24,15,o),
(25,0,o),
(47,0,cs)
);
},
{
closed = 1;
nodes = (
(298,0,o),
(299,16,o),
(300,21,cs),
(337,230,ls),
(348,294,o),
(316,354,o),
(244,354,cs),
(189,354,o),
(148,319,o),
(102,246,c),
(92,174,l),
(154,270,o),
(199,308,o),
(241,308,cs),
(285,308,o),
(293,267,o),
(287,233,cs),
(250,24,ls),
(249,16,o),
(250,0,o),
(272,0,cs)
);
}
);
vertWidth = 0;
width = 376;
},
{
layerId = "140DECC1-64C4-40C0-9C07-503DBC3F4160";
shapes = (
{
closed = 1;
nodes = (
(97,0,o),
(123,15,o),
(128,44,cs),
(226,599,ls),
(232,631,o),
(205,650,o),
(177,650,cs),
(155,650,o),
(133,640,o),
(128,612,cs),
(29,50,ls),
(23,15,o),
(52,0,o),
(75,0,cs)
);
},
{
closed = 1;
nodes = (
(320,0,o),
(336,19,o),
(339,34,cs),
(367,193,ls),
(386,302,o),
(357,358,o),
(281,358,cs),
(235,358,o),
(197,321,o),
(159,268,c),
(138,136,l),
(184,218,o),
(221,272,o),
(247,272,cs),
(267,272,o),
(275,250,o),
(268,208,cs),
(240,49,ls),
(236,25,o),
(252,0,o),
(284,0,cs)
);
}
);
vertWidth = 0;
width = 423;
}
);
unicode = 104;
},
{
color = 6;
glyphname = i;
layers = (
{
layerId = m01;
shapes = (
{
closed = 1;
nodes = (
(72,0,o),
(74,18,o),
(75,23,cs),
(128,323,ls),
(130,340,o),
(127,350,o),
(110,350,c),
(90,350,o),
(81,341,o),
(77,323,cs),
(24,23,ls),
(23,15,o),
(24,0,o),
(46,0,cs)
);
},
{
closed = 1;
nodes = (
(144,438,o),
(158,452,o),
(158,468,cs),
(158,485,o),
(143,497,o),
(127,497,cs),
(109,497,o),
(97,483,o),
(97,468,cs),
(97,452,o),
(110,438,o),
(127,438,cs)
);
}
);
vertWidth = 0;
width = 161;
},
{
layerId = "140DECC1-64C4-40C0-9C07-503DBC3F4160";
shapes = (
{
closed = 1;
nodes = (
(106,0,o),
(125,22,o),
(128,37,cs),
(175,302,ls),
(180,332,o),
(164,350,o),
(132,350,cs),
(90,350,o),
(77,320,o),
(75,308,cs),
(28,44,ls),
(24,20,o),
(35,0,o),
(69,0,cs)
);
},
{
closed = 1;
nodes = (
(179,413,o),
(204,437,o),
(204,466,cs),
(204,497,o),
(178,519,o),
(150,519,cs),
(121,519,o),
(98,495,o),
(98,466,cs),
(98,437,o),
(122,413,o),
(150,413,cs)
);
}
);
vertWidth = 0;
width = 212;
}
);
unicode = 105;
},
{
color = 6;
glyphname = j;
layers = (
{
layerId = m01;
shapes = (
{
closed = 1;
nodes = (
(-24,-300,o),
(28,-244,o),
(52,-107,cs),
(128,323,ls),
(131,340,o),
(127,350,o),
(110,350,c),
(90,350,o),
(80,341,o),
(77,323,cs),
(2,-103,ls),
(-16,-207,o),
(-48,-254,o),
(-112,-254,cs),
(-141,-254,o),
(-170,-246,o),
(-189,-232,cs),
(-200,-225,o),
(-214,-225,o),
(-221,-233,cs),
(-230,-244,o),
(-229,-259,o),
(-219,-267,cs),
(-195,-287,o),
(-155,-300,o),
(-113,-300,cs)
);
},
{
closed = 1;
nodes = (
(144,438,o),
(158,452,o),
(158,468,cs),
(158,485,o),
(143,497,o),
(127,497,cs),
(109,497,o),
(97,483,o),
(97,468,cs),
(97,452,o),
(110,438,o),
(127,438,cs)
);
}
);
vertWidth = 0;
width = 161;
},
{
layerId = "140DECC1-64C4-40C0-9C07-503DBC3F4160";
shapes = (
{
closed = 1;
nodes = (
(12,-300,o),
(83,-215,o),
(113,-47,cs),
(175,302,ls),
(180,332,o),
(164,350,o),
(132,350,cs),
(90,350,o),
(77,320,o),
(75,308,cs),
(13,-40,ls),
(-11,-173,o),
(-66,-203,o),
(-105,-203,cs),
(-124,-203,o),
(-138,-196,o),
(-146,-191,cs),
(-167,-178,o),
(-193,-183,o),
(-206,-204,cs),
(-222,-228,o),
(-218,-256,o),
(-197,-271,cs),
(-182,-282,o),
(-146,-300,o),
(-98,-300,cs)
);
},
{
closed = 1;
nodes = (
(179,413,o),
(204,437,o),
(204,466,cs),
(204,497,o),
(178,519,o),
(150,519,cs),
(121,519,o),
(98,495,o),
(98,466,cs),
(98,437,o),
(122,413,o),
(150,413,cs)
);
}
);
vertWidth = 0;
width = 212;
}
);
unicode = 106;
},
{
color = 6;
glyphname = k;
kernLeft = h_left;
layers = (
{
layerId = m01;
shapes = (
{
closed = 1;
nodes = (
(61,0,o),
(73,7,o),
(76,26,cs),
(181,621,ls),
(185,642,o),
(173,650,o),
(157,650,cs),
(142,650,o),
(133,639,o),
(130,622,cs),
(25,26,ls),
(22,10,o),
(32,0,o),
(45,0,cs)
);
},
{
closed = 1;
nodes = (
(155,264,o),
(229,308,o),
(270,308,cs),
(283,308,o),
(285,299,o),
(285,292,cs),
(286,263,o),
(253,231,o),
(189,192,cs),
(176,184,o),
(171,175,o),
(171,166,cs),
(171,158,o),
(177,146,o),
(189,129,cs),
(267,18,ls),
(274,8,o),
(284,-1,o),
(297,-1,cs),
(308.961,-1,o),
(319,9.802,o),
(319,22,cs),
(319,28,o),
(317,34,o),
(312,41,cs),
(228,160,l),
(299,202,o),
(335,248,o),
(335,297,cs),
(335,346,o),
(309,354,o),
(284,354,cs),
(211,354,o),
(132,290,o),
(100,203,c),
(85,78,l)
);
}
);
vertWidth = 0;
width = 385;
},
{
layerId = "140DECC1-64C4-40C0-9C07-503DBC3F4160";
shapes = (
{
closed = 1;
nodes = (
(97,0,o),
(123,15,o),
(128,44,cs),
(226,599,ls),
(232,631,o),
(205,650,o),
(177,650,cs),
(155,650,o),
(133,640,o),
(128,612,cs),
(29,50,ls),
(23,15,o),
(52,0,o),
(75,0,cs)
);
},
{
closed = 1;
nodes = (
(184,218,o),
(221,273,o),
(274,273,cs),
(280,273,o),
(283,270,o),
(283,265,cs),
(283,250,o),
(259,219,o),
(213,193,cs),
(205,188,o),
(198,179,o),
(198,166,cs),
(198,151,o),
(211,134,o),
(223,116,cs),
(286,25,ls),
(297,9,o),
(315,0,o),
(333,0,cs),
(357,0,o),
(379,24,o),
(379,42,cs),
(379,51,o),
(376,59,o),
(369,69,cs),
(303,166,l),
(333,184,o),
(385,227,o),
(385,291,cs),
(385,329,o),
(346,358,o),
(303,358,cs),
(235,358,o),
(197,321,o),
(159,268,c),
(138,136,l)
);
}
);
vertWidth = 0;
width = 422;
}
);
unicode = 107;
},
{
color = 6;
glyphname = l;
kernLeft = h_left;
layers = (
{
layerId = m01;
shapes = (
{
closed = 1;
nodes = (
(60,0,o),
(71,7,o),
(74,22,cs),
(180,624,ls),
(183,640,o),
(170,650,o),
(156,650,cs),
(145,650,o),
(134,644,o),
(131,629,cs),
(25,27,ls),
(22,9,o),
(35,0,o),
(49,0,cs)
);
}
);
vertWidth = 0;
width = 160;
},
{
layerId = "140DECC1-64C4-40C0-9C07-503DBC3F4160";
shapes = (
{
closed = 1;
nodes = (
(97,0,o),
(123,15,o),
(128,44,cs),
(226,599,ls),
(232,631,o),
(205,650,o),
(177,650,cs),
(155,650,o),
(133,640,o),
(128,612,cs),
(29,50,ls),
(23,15,o),
(52,0,o),
(75,0,cs)
);
}
);
vertWidth = 0;
width = 210;
}
);
unicode = 108;
},
{
color = 6;
glyphname = m;
kernLeft = n_left;
kernRight = n_right;
layers = (
{
layerId = m01;
shapes = (
{
closed = 1;
nodes = (
(62,0,o),
(64,18,o),
(65,23,cs),
(118,323,ls),
(120,340,o),
(117,350,o),
(100,350,c),
(80,350,o),
(71,341,o),
(67,323,cs),
(14,23,ls),
(13,15,o),
(14,0,o),
(36,0,cs)
);
},
{
closed = 1;
nodes = (
(277,0,o),
(278,16,o),
(279,21,cs),
(316,230,ls),
(327,294,o),
(295,354,o),
(223,354,cs),
(168,354,o),
(137,319,o),
(91,246,c),
(81,174,l),
(143,270,o),
(178,308,o),
(220,308,cs),
(264,308,o),
(272,267,o),
(266,233,cs),
(229,24,ls),
(228,16,o),
(229,0,o),
(251,0,cs)
);
},
{
closed = 1;
nodes = (
(491,0,o),
(492,16,o),
(493,21,cs),
(530,230,ls),
(541,294,o),
(509,354,o),
(437,354,cs),
(382,354,o),
(351,319,o),
(305,246,c),
(295,174,l),
(357,270,o),
(392,308,o),
(434,308,cs),
(478,308,o),
(486,267,o),
(480,233,cs),
(443,24,ls),
(442,16,o),
(443,0,o),
(465,0,cs)
);
}
);
vertWidth = 0;
width = 569;
},
{
layerId = "140DECC1-64C4-40C0-9C07-503DBC3F4160";
shapes = (
{
closed = 1;
nodes = (
(96,0,o),
(115,22,o),
(118,37,cs),
(165,302,ls),
(170,332,o),
(154,350,o),
(122,350,cs),
(80,350,o),
(67,320,o),
(65,308,cs),
(18,44,ls),
(14,20,o),
(25,0,o),
(59,0,cs)
);
},
{
closed = 1;
nodes = (
(304,0,o),
(320,19,o),
(323,34,cs),
(351,193,ls),
(370,302,o),
(341,358,o),
(265,358,cs),
(219,358,o),
(187,321,o),
(149,268,c),
(128,136,l),
(174,218,o),
(205,272,o),
(231,272,cs),
(251,272,o),
(259,250,o),
(252,208,cs),
(224,49,ls),
(220,25,o),
(236,0,o),
(268,0,cs)
);
},
{
closed = 1;
nodes = (
(509,0,o),
(525,19,o),
(528,34,cs),
(556,193,ls),
(575,302,o),
(546,358,o),
(470,358,cs),
(424,358,o),
(392,321,o),
(354,268,c),
(333,136,l),
(379,218,o),
(410,272,o),
(436,272,cs),
(456,272,o),
(464,250,o),
(457,208,cs),
(429,49,ls),
(425,25,o),
(441,0,o),
(473,0,cs)
);
}
);
vertWidth = 0;
width = 602;
}
);
unicode = 109;
},
{
color = 6;
glyphname = n;
kernLeft = n_left;
kernRight = n_right;
layers = (
{
layerId = m01;
shapes = (
{
closed = 1;
nodes = (
(62,0,o),
(64,18,o),
(65,23,cs),
(118,323,ls),
(120,340,o),
(117,350,o),
(100,350,c),
(80,350,o),
(71,341,o),
(67,323,cs),
(14,23,ls),
(13,15,o),
(14,0,o),
(36,0,cs)
);
},
{
closed = 1;
nodes = (
(287,0,o),
(288,16,o),
(289,21,cs),
(326,230,ls),
(337,294,o),
(305,354,o),
(233,354,cs),
(178,354,o),
(137,319,o),
(91,246,c),
(81,174,l),
(143,270,o),
(188,308,o),
(230,308,cs),
(274,308,o),
(282,267,o),
(276,233,cs),
(239,24,ls),
(238,16,o),
(239,0,o),
(261,0,cs)
);
}
);
vertWidth = 0;
width = 365;
},
{
layerId = "140DECC1-64C4-40C0-9C07-503DBC3F4160";
shapes = (
{
closed = 1;
nodes = (
(96,0,o),
(115,22,o),
(118,37,cs),
(165,302,ls),
(170,332,o),
(154,350,o),
(122,350,cs),
(80,350,o),
(67,320,o),
(65,308,cs),
(18,44,ls),
(14,20,o),
(25,0,o),
(59,0,cs)
);
},
{
closed = 1;
nodes = (
(310,0,o),
(326,19,o),
(329,34,cs),
(357,193,ls),
(376,302,o),
(347,358,o),
(271,358,cs),
(225,358,o),
(187,321,o),
(149,268,c),
(128,136,l),
(174,218,o),
(211,272,o),
(237,272,cs),
(257,272,o),
(265,250,o),
(258,208,cs),
(230,49,ls),
(226,25,o),
(242,0,o),
(274,0,cs)
);
}
);
vertWidth = 0;
width = 403;
}
);
unicode = 110;
},
{
color = 6;
glyphname = o;
kernLeft = o_left;
kernRight = o_right;
layers = (
{
layerId = m01;
shapes = (
{
closed = 1;
nodes = (
(237,-4,o),
(308,95,o),
(308,228,cs),
(308,306,o),
(262,354,o),
(187,354,cs),
(96,354,o),
(28,257,o),
(28,126,cs),
(28,46,o),
(72,-4,o),
(143,-4,cs)
);
},
{
closed = 1;
nodes = (
(103,42,o),
(78,80,o),
(78,136,cs),
(78,232,o),
(125,308,o),
(187,308,cs),
(231,308,o),
(258,275,o),
(258,227,cs),
(258,123,o),
(209,42,o),
(143,42,cs)
);
}
);
vertWidth = 0;
width = 343;
},
{
layerId = "140DECC1-64C4-40C0-9C07-503DBC3F4160";
shapes = (
{
closed = 1;
nodes = (
(241,-4,o),
(323,103,o),
(323,222,cs),
(323,306,o),
(275,358,o),
(196,358,cs),
(95,358,o),
(32,279,o),
(32,152,cs),
(32,56,o),
(77,-4,o),
(150,-4,cs)
);
},
{
closed = 1;
nodes = (
(136,83,o),
(122,109,o),
(122,150,cs),
(122,225,o),
(148,271,o),
(189,271,cs),
(214,271,o),
(230,253,o),
(230,223,cs),
(230,149,o),
(196,83,o),
(159,83,cs)
);
}
);
vertWidth = 0;
width = 358;
}
);
unicode = 111;
},
{
color = 6;
glyphname = p;
kernLeft = n_left;
kernRight = o_right;
layers = (
{
layerId = m01;
shapes = (
{
closed = 1;
nodes = (
(269,0,o),
(276,2,o),
(285,9,cs),
(366,76,ls),
(383,90,o),
(391,101,o),
(391,113,cs),
(391,125,o),
(384,132,o),
(372,132,cs),
(361,132,o),
(349,126,o),
(334,114,cs),
(301,86,l),
(326,230,ls),
(337,294,o),
(305,354,o),
(233,354,cs),
(178,354,o),
(137,319,o),
(91,246,c),
(81,174,l),
(143,270,o),
(188,308,o),
(230,308,cs),
(274,308,o),
(282,267,o),
(276,233,cs),
(240,29,ls),
(238,17,o),
(239,0,o),
(261,0,cs)
);
},
{
closed = 1;
nodes = (
(-5,-300,o),
(9,-292,o),
(12,-277,cs),
(119,327,ls),
(122,342,o),
(110,350,o),
(97,350,cs),
(85,350,o),
(71,342,o),
(68,327,cs),
(-39,-276,ls),
(-42,-292,o),
(-30,-300,o),
(-17,-300,cs)
);
}
);
vertWidth = 0;
width = 430;
},
{
layerId = "140DECC1-64C4-40C0-9C07-503DBC3F4160";
shapes = (
{
closed = 1;
nodes = (
(298,0,o),
(311,10,o),
(321,19,cs),
(404,88,ls),
(419,100,o),
(430,114,o),
(432,127,cs),
(436,152,o),
(416,171,o),
(391,172,cs),
(380,173,o),
(367,169,o),
(354,161,cs),
(351,159,l),
(357,193,ls),
(376,302,o),
(347,358,o),
(271,358,cs),
(225,358,o),
(187,321,o),
(149,268,c),
(128,136,l),
(174,218,o),
(211,272,o),
(237,272,cs),
(257,272,o),
(265,250,o),
(258,208,cs),
(230,49,ls),
(226,25,o),
(242,0,o),
(274,0,cs)
);
},
{
closed = 1;
nodes = (
(43,-300,o),
(62,-278,o),
(65,-263,cs),
(165,302,ls),
(170,332,o),
(154,350,o),
(122,350,cs),
(80,350,o),
(67,320,o),
(65,308,cs),
(-35,-256,ls),
(-39,-280,o),
(-28,-300,o),
(6,-300,cs)
);
}
);
vertWidth = 0;
width = 448;
}
);
unicode = 112;
},
{
color = 6;
glyphname = q;
kernLeft = o_left;
layers = (
{
layerId = m01;
shapes = (
{
closed = 1;
nodes = (
(162,-4,o),
(221,49,o),
(261,158,c),
(273,270,l),
(220,129,o),
(163,42,o),
(117,42,cs),
(84,42,o),
(66,82,o),
(77,147,cs),
(94,244,o),
(164,304,o),
(260,304,cs),
(301,304,l),
(309,350,l),
(257,350,ls),
(137,350,o),
(49,272,o),
(26,147,cs),
(9,54,o),
(44,-4,o),
(109,-4,cs)
);
},
{
closed = 1;
nodes = (
(206,-300,o),
(213,-298,o),
(222,-291,cs),
(303,-224,ls),
(320,-210,o),
(328,-199,o),
(328,-187,cs),
(328,-175,o),
(321,-168,o),
(309,-168,cs),
(298,-168,o),
(286,-174,o),
(271,-186,cs),
(238,-214,l),
(333,327,ls),
(334,335,o),
(333,350,o),
(311,350,cs),
(286,350,l),
(177,-271,ls),
(175,-283,o),
(176,-300,o),
(198,-300,cs)
);
}
);
vertWidth = 0;
width = 355;
},
{
layerId = "140DECC1-64C4-40C0-9C07-503DBC3F4160";
shapes = (
{
closed = 1;
nodes = (
(162,-4,o),
(206,39,o),
(250,123,c),
(256,253,l),
(212,142,o),
(165,83,o),
(144,83,cs),
(128,83,o),
(121,109,o),
(127,147,cs),
(139,217,o),
(192,263,o),
(267,263,cs),
(276,263,l),
(288,350,l),
(264,350,ls),
(139,350,o),
(48,272,o),
(26,147,cs),
(9,54,o),
(44,-4,o),
(117,-4,cs)
);
},
{
closed = 1;
nodes = (
(222,-300,o),
(237,-295,o),
(247,-284,c),
(344,-207,ls),
(359,-195,o),
(370,-181,o),
(372,-168,cs),
(376,-143,o),
(356,-124,o),
(331,-123,cs),
(319,-122,o),
(306,-127,o),
(291,-137,cs),
(288,-139,l),
(366,306,ls),
(370,326,o),
(353,350,o),
(318,350,cs),
(273,350,l),
(167,-248,ls),
(161,-280,o),
(182,-300,o),
(209,-300,cs)
);
}
);
vertWidth = 0;
width = 392;
}
);
unicode = 113;
},
{
color = 6;
glyphname = r;
kernLeft = n_left;
layers = (
{
layerId = m01;
shapes = (
{
closed = 1;
nodes = (
(49,0,o),
(63,9,o),
(66,27,cs),
(117,320,ls),
(120,340,o),
(109,350,o),
(96,350,cs),
(84,350,o),
(70,341,o),
(67,323,cs),
(15,27,ls),
(12,9,o),
(23,0,o),
(36,0,cs)
);
},
{
closed = 1;
nodes = (
(156,285,o),
(192,307,o),
(209,307,cs),
(223,307,o),
(235,278,o),
(265,278,cs),
(276,278,o),
(298,282,o),
(316,293,cs),
(332,302,o),
(344,313,o),
(344,329,cs),
(344,350,o),
(317,353,o),
(297,339,cs),
(290,334,o),
(276,326,o),
(266,326,cs),
(247,326,o),
(250,354,o),
(217,354,cs),
(180,354,o),
(134,318,o),
(100,249,c),
(85,176,l)
);
}
);
vertWidth = 0;
width = 336;
},
{
layerId = "140DECC1-64C4-40C0-9C07-503DBC3F4160";
shapes = (
{
closed = 1;
nodes = (
(87,0,o),
(113,14,o),
(118,41,cs),
(163,297,ls),
(169,329,o),
(143,350,o),
(117,350,cs),
(95,350,o),
(69,336,o),
(64,309,cs),
(18,48,ls),
(13,18,o),
(38,0,o),
(64,0,cs)
);
},
{
closed = 1;
nodes = (
(164,213,o),
(207,264,o),
(221,264,cs),
(238,264,o),
(257,244,o),
(285,244,cs),
(301,244,o),
(331,259,o),
(349,269,cs),
(365,278,o),
(391,288,o),
(391,318,cs),
(391,361,o),
(344,364,o),
(324,350,cs),
(317,345,o),
(301,333,o),
(288,333,cs),
(269,333,o),
(272,358,o),
(239,358,cs),
(202,358,o),
(148,275,o),
(117,203,c),
(101,78,l)
);
}
);
vertWidth = 0;
width = 386;
}
);
unicode = 114;
},
{
color = 6;
glyphname = s;
layers = (
{
layerId = m01;
shapes = (
{
closed = 1;
nodes = (
(201,-4,o),
(249,35,o),
(249,88,cs),
(249,125,o),
(236,145,o),
(218,162,cs),
(196,184,o),
(170,195,o),
(143,214,cs),
(121,229,o),
(98,246,o),
(98,265,cs),
(98,289,o),
(124,304,o),
(165,304,cs),
(197,304,o),
(224,285,o),
(236,279,cs),
(253,270,o),
(271,272,o),
(279,284,cs),
(287,297,o),
(279,314,o),
(259,325,cs),
(223,346,o),
(192,350,o),
(165,350,cs),
(93,350,o),
(48,318,o),
(48,265,cs),
(48,226,o),
(80,194,o),
(109,176,cs),
(136,159,o),
(161,144,o),
(175,133,cs),
(188,122,o),
(199,110,o),
(199,91,cs),
(199,63,o),
(173,42,o),
(137,42,cs),
(105,42,o),
(73,63,o),
(58,74,cs),
(43,85,o),
(23,85,o),
(16,73,cs),
(6,56,o),
(20,45,o),
(37,32,cs),
(71,7,o),
(110,-4,o),
(137,-4,cs)
);
}
);
vertWidth = 0;
width = 305;
},
{
layerId = "140DECC1-64C4-40C0-9C07-503DBC3F4160";
shapes = (
{
closed = 1;
nodes = (
(223,-4,o),
(270,36,o),
(270,100,cs),
(270,141,o),
(257,159,o),
(238,177,cs),
(227,188,o),
(202,203,o),
(182,216,cs),
(152,235,o),
(140,248,o),
(140,260,cs),
(140,269,o),
(150,274,o),
(167,274,cs),
(190,274,o),
(215,268,o),
(231,259,cs),
(256,246,o),
(286,244,o),
(298,266,cs),
(314,296,o),
(297,323,o),
(260,341,cs),
(235,353,o),
(202,358,o),
(175,358,cs),
(96,358,o),
(48,321,o),
(48,260,cs),
(48,216,o),
(70,181,o),
(113,156,cs),
(135,142,o),
(155,129,o),
(168,120,cs),
(176,114,o),
(178,110,o),
(178,103,cs),
(178,92,o),
(169,82,o),
(149,82,cs),
(126,82,o),
(101,96,o),
(93,101,cs),
(71,115,o),
(38,120,o),
(24,97,cs),
(9,73,o),
(20,45,o),
(59,20,cs),
(84,4,o),
(121,-4,o),
(148,-4,cs)
);
}
);
vertWidth = 0;
width = 324;
}
);
unicode = 115;
},
{
color = 6;
glyphname = t;
layers = (
{
layerId = m01;
shapes = (
{
closed = 1;
nodes = (
(97,0,o),
(110,7,o),
(113,23,cs),
(203,540,ls),
(206,558,o),
(192,568,o),
(178,568,cs),
(167,568,o),
(157,561,o),
(154,547,cs),
(61,24,ls),
(58,8,o),
(71,0,o),
(84,0,cs)
);
},
{
closed = 1;
nodes = (
(248,305,ls),
(268,305,o),
(274,316,o),
(274,328,cs),
(274,340,o),
(268,350,o),
(248,350,cs),
(44,350,ls),
(24,350,o),
(18,340,o),
(18,328,cs),
(18,316,o),
(24,305,o),
(44,305,cs)
);
}
);
vertWidth = 0;
width = 269;
},
{
layerId = "140DECC1-64C4-40C0-9C07-503DBC3F4160";
shapes = (
{
closed = 1;
nodes = (
(141,0,o),
(163,9,o),
(168,35,cs),
(254,523,ls),
(260,557,o),
(231,568,o),
(204,568,cs),
(182,568,o),
(159,555,o),
(155,532,cs),
(69,44,ls),
(63,12,o),
(90,0,o),
(116,0,cs)
);
},
{
closed = 1;
nodes = (
(275,265,ls),
(307,265,o),
(325,283,o),
(325,307,cs),
(325,332,o),
(307,350,o),
(275,350,cs),
(65,350,ls),
(33,350,o),
(15,332,o),
(15,307,cs),
(15,283,o),
(33,265,o),
(65,265,cs)
);
}
);
vertWidth = 0;
width = 324;
}
);
unicode = 116;
},
{
color = 6;
glyphname = u;
kernLeft = n_left;
kernRight = n_right;
layers = (
{
layerId = m01;
shapes = (
{
closed = 1;
nodes = (
(170,-4,o),
(208,27,o),
(256,104,c),
(266,176,l),
(206,83,o),
(166,42,o),
(127,42,cs),
(91,42,o),
(73,72,o),
(81,117,cs),
(118,326,ls),
(119,334,o),
(118,350,o),
(96,350,cs),
(70,350,o),
(69,334,o),
(68,329,cs),
(31,120,ls),
(18,43,o),
(54,-4,o),
(124,-4,cs)
);
},
{
closed = 1;
nodes = (
(267,0,o),
(276,9,o),
(280,27,cs),
(333,327,ls),
(334,335,o),
(333,350,o),
(311,350,cs),
(285,350,o),
(283,332,o),
(282,327,cs),
(229,27,ls),
(227,10,o),
(230,0,o),
(247,0,cs)
);
}
);
vertWidth = 0;
width = 355;
},
{
layerId = "140DECC1-64C4-40C0-9C07-503DBC3F4160";
shapes = (
{
closed = 1;
nodes = (
(161,-4,o),
(200,25,o),
(241,82,c),
(262,214,l),
(213,126,o),
(178,82,o),
(158,82,cs),
(137,82,o),
(130,102,o),
(137,142,cs),
(165,301,ls),
(169,325,o),
(153,350,o),
(121,350,cs),
(85,350,o),
(69,331,o),
(66,316,cs),
(38,157,ls),
(19,50,o),
(48,-4,o),
(124,-4,cs)
);
},
{
closed = 1;
nodes = (
(310,0,o),
(323,30,o),
(325,42,cs),
(372,306,ls),
(376,330,o),
(365,350,o),
(331,350,cs),
(294,350,o),
(275,328,o),
(272,313,cs),
(225,48,ls),
(220,18,o),
(236,0,o),
(268,0,cs)
);
}
);
vertWidth = 0;
width = 398;
}
);
unicode = 117;
},
{
color = 6;
glyphname = v;
kernLeft = v_left;
kernRight = v_right;
layers = (
{
layerId = m01;
shapes = (
{
closed = 1;
nodes = (
(152,-4,o),
(242,94,o),
(345,288,cs),
(349,296,l),
(405,284,ls),
(426,279,o),
(447,287,o),
(447,310,cs),
(447,321,o),
(441,331,o),
(423,334,cs),
(358,347,o),
(342,350,o),
(338,350,cs),
(320,350,o),
(314,337,o),
(302,315,cs),
(210,137,o),
(139,42,o),
(90,42,cs),
(76,42,o),
(72,62,o),
(79,102,cs),
(118,320,ls),
(122,340,o),
(110,350,o),
(97,350,cs),
(85,350,o),
(70,341,o),
(67,323,cs),
(28,102,ls),
(19,50,o),
(23,-4,o),
(76,-4,cs)
);
}
);
vertWidth = 0;
width = 433;
},
{
layerId = "140DECC1-64C4-40C0-9C07-503DBC3F4160";
shapes = (
{
closed = 1;
nodes = (
(190,-4,o),
(299,101,o),
(370,241,cs),
(373,247,l),
(411,239,ls),
(451,231,o),
(484,249,o),
(484,288,cs),
(484,310,o),
(469,329,o),
(439,335,cs),
(368,349,o),
(362,350,o),
(358,350,cs),
(331,350,o),
(317,337,o),
(302,307,cs),
(238,177,o),
(168,83,o),
(137,83,cs),
(129,83,o),
(127,92,o),
(131,115,cs),
(164,297,ls),
(170,330,o),
(147,350,o),
(120,350,cs),
(98,350,o),
(69,334,o),
(64,307,cs),
(30,115,ls),
(17,36,o),
(45,-4,o),
(111,-4,cs)
);
}
);
vertWidth = 0;
width = 474;
}
);
unicode = 118;
},
{
color = 6;
glyphname = w;
kernLeft = v_left;
kernRight = v_right;
layers = (
{
layerId = m01;
shapes = (
{
closed = 1;
nodes = (
(158,-4,o),
(237,106,o),
(298,216,c),
(292,216,l),
(270,102,ls),
(260,52,o),
(264,-4,o),
(318,-4,cs),
(437,-4,o),
(568,250,o),
(587,288,cs),
(591,296,l),
(647,284,ls),
(670,279,o),
(689,287,o),
(689,309,cs),
(689,321,o),
(683,331,o),
(665,334,cs),
(610,345,o),
(584,350,o),
(580,350,cs),
(562,350,o),
(556,337,o),
(544,315,cs),
(498,226,o),
(399,42,o),
(332,42,cs),
(317,42,o),
(313,62,o),
(321,102,cs),
(360,320,ls),
(364,340,o),
(352,350,o),
(339,350,c),
(321,350,o),
(313,337,o),
(302,315,cs),
(256,222,o),
(154,42,o),
(90,42,cs),
(75,42,o),
(71,62,o),
(79,102,cs),
(118,320,ls),
(122,340,o),
(110,350,o),
(97,350,cs),
(85,350,o),
(70,341,o),
(67,323,cs),
(28,102,ls),
(18,52,o),
(22,-4,o),
(76,-4,cs)
);
}
);
vertWidth = 0;
width = 675;
},
{
layerId = "140DECC1-64C4-40C0-9C07-503DBC3F4160";
shapes = (
{
closed = 1;
nodes = (
(167,-4,o),
(221,49,o),
(289,154,c),
(277,159,l),
(271,115,ls),
(258,36,o),
(286,-4,o),
(352,-4,cs),
(431,-4,o),
(540,101,o),
(611,241,cs),
(614,247,l),
(652,239,ls),
(692,231,o),
(725,249,o),
(725,288,cs),
(725,310,o),
(710,329,o),
(680,335,cs),
(609,349,o),
(603,350,o),
(599,350,cs),
(572,350,o),
(558,337,o),
(543,307,cs),
(479,177,o),
(409,83,o),
(378,83,cs),
(370,83,o),
(368,92,o),
(372,115,cs),
(405,297,ls),
(411,330,o),
(388,350,o),
(358,350,cs),
(331,350,o),
(317,337,o),
(302,307,cs),
(238,177,o),
(168,83,o),
(137,83,cs),
(129,83,o),
(127,92,o),
(131,115,cs),
(164,297,ls),
(170,330,o),
(147,350,o),
(120,350,cs),
(98,350,o),
(69,334,o),
(64,307,cs),
(30,115,ls),
(17,36,o),
(45,-4,o),
(111,-4,cs)
);
}
);
vertWidth = 0;
width = 715;
}
);
unicode = 119;
},
{
color = 6;
glyphname = x;
layers = (
{
layerId = m01;
shapes = (
{
closed = 1;
nodes = (
(190,-4,o),
(252,107,o),
(253,255,cs),
(253,330,o),
(219,354,o),
(182,354,cs),
(132,354,o),
(90,322,o),
(59,260,cs),
(55,251,o),
(60,239,o),
(71,233,cs),
(84,226,o),
(98,227,o),
(103,237,cs),
(126,281,o),
(151,308,o),
(178,308,cs),
(206,308,o),
(214,273,o),
(213,245,cs),
(210,131,o),
(160,42,o),
(105,42,cs),
(83,42,o),
(63,46,o),
(45,53,cs),
(28,60,o),
(15,59,o),
(9,44,cs),
(2,29,o),
(8,15,o),
(24,9,cs),
(46,0,o),
(73,-4,o),
(105,-4,cs)
);
},
{
closed = 1;
nodes = (
(328,-4,o),
(384,48,o),
(426,131,cs),
(430,140,o),
(425,152,o),
(414,158,cs),
(401,165,o),
(387,164,o),
(382,154,cs),
(348,87,o),
(310,42,o),
(283,42,cs),
(255,42,o),
(247,77,o),
(248,105,cs),
(251,219,o),
(301,308,o),
(356,308,cs),
(378,308,o),
(398,304,o),
(416,297,cs),
(433,290,o),
(446,291,o),
(452,306,cs),
(459,321,o),
(453,335,o),
(437,341,cs),
(415,350,o),
(388,354,o),
(356,354,cs),
(271,354,o),
(207,243,o),
(207,95,cs),
(207,20,o),
(242,-4,o),
(279,-4,cs)
);
}
);
vertWidth = 0;
width = 483;
},
{
layerId = "140DECC1-64C4-40C0-9C07-503DBC3F4160";
shapes = (
{
closed = 1;
nodes = (
(222,-4,o),
(265,87,o),
(281,234,cs),
(290,311,o),
(282,358,o),
(211,358,cs),
(145,358,o),
(96,329,o),
(65,272,cs),
(59,261,o),
(60,234,o),
(86,221,cs),
(112,208,o),
(138,214,o),
(146,229,cs),
(161,257,o),
(180,271,o),
(201,271,cs),
(214,271,o),
(221,258,o),
(219,236,cs),
(208,138,o),
(171,78,o),
(120,78,cs),
(105,78,o),
(89,81,o),
(70,89,cs),
(47,98,o),
(25,89,o),
(14,66,cs),
(-2,32,o),
(24,14,o),
(37,9,cs),
(59,0,o),
(85,-4,o),
(120,-4,cs)
);
},
{
closed = 1;
nodes = (
(362,-4,o),
(427,44,o),
(469,121,cs),
(475,132,o),
(474,159,o),
(448,172,cs),
(422,185,o),
(396,179,o),
(388,164,cs),
(362,114,o),
(332,83,o),
(309,83,cs),
(296,83,o),
(289,96,o),
(291,118,cs),
(302,216,o),
(339,276,o),
(390,276,cs),
(405,276,o),
(421,273,o),
(440,265,cs),
(463,256,o),
(485,265,o),
(496,288,cs),
(512,322,o),
(486,340,o),
(473,345,cs),
(451,354,o),
(425,358,o),
(390,358,cs),
(288,358,o),
(245,267,o),
(229,120,cs),
(220,43,o),
(228,-4,o),
(299,-4,cs)
);
}
);
vertWidth = 0;
width = 519;
}
);
unicode = 120;
},
{
color = 6;
glyphname = y;
kernLeft = n_left;
kernRight = n_right;
layers = (
{
layerId = m01;
shapes = (
{
closed = 1;
nodes = (
(170,-4,o),
(208,27,o),
(256,104,c),
(266,176,l),
(206,83,o),
(166,42,o),
(127,42,cs),
(91,42,o),
(73,72,o),
(81,117,cs),
(118,326,ls),
(119,334,o),
(118,350,o),
(96,350,cs),
(70,350,o),
(69,334,o),
(68,329,cs),
(31,120,ls),
(18,43,o),
(54,-4,o),
(124,-4,cs)
);
},
{
closed = 1;
nodes = (
(180,-300,o),
(232,-244,o),
(256,-107,cs),
(332,323,ls),
(335,340,o),
(331,350,o),
(314,350,c),
(294,350,o),
(284,341,o),
(281,323,cs),
(206,-103,ls),
(188,-207,o),
(156,-250,o),
(92,-250,cs),
(63,-250,o),
(34,-242,o),
(15,-228,cs),
(4,-221,o),
(-10,-225,o),
(-17,-233,cs),
(-26,-244,o),
(-25,-259,o),
(-15,-267,cs),
(9,-287,o),
(49,-300,o),
(91,-300,cs)
);
}
);
vertWidth = 0;
width = 355;
},
{
layerId = "140DECC1-64C4-40C0-9C07-503DBC3F4160";
shapes = (
{
closed = 1;
nodes = (
(161,-4,o),
(200,25,o),
(241,82,c),
(262,214,l),
(213,126,o),
(178,82,o),
(158,82,cs),
(137,82,o),
(130,102,o),
(137,142,cs),
(165,301,ls),
(169,325,o),
(153,350,o),
(121,350,cs),
(85,350,o),
(69,331,o),
(66,316,cs),
(38,157,ls),
(19,50,o),
(48,-4,o),
(124,-4,cs)
);
},
{
closed = 1;
nodes = (
(208,-300,o),
(279,-215,o),
(309,-47,cs),
(371,302,ls),
(376,332,o),
(360,350,o),
(328,350,cs),
(286,350,o),
(273,320,o),
(271,308,cs),
(209,-40,ls),
(185,-173,o),
(130,-203,o),
(91,-203,cs),
(72,-203,o),
(58,-196,o),
(50,-191,cs),
(29,-178,o),
(3,-183,o),
(-10,-204,cs),
(-26,-228,o),
(-22,-256,o),
(-1,-271,cs),
(14,-282,o),
(50,-300,o),
(98,-300,cs)
);
}
);
vertWidth = 0;
width = 398;
}
);
unicode = 121;
},
{
color = 6;
glyphname = z;
layers = (
{
layerId = m01;
shapes = (
{
closed = 1;
nodes = (
(246,0,ls),
(266,0,o),
(272,13,o),
(272,25,cs),
(272,37,o),
(266,46,o),
(246,46,cs),
(56,46,l),
(63,28,l),
(306,308,ls),
(322,326,o),
(317,350,o),
(291,350,cs),
(84,350,ls),
(64,350,o),
(58,337,o),
(58,325,cs),
(58,313,o),
(64,304,o),
(84,304,cs),
(263,304,l),
(256,322,l),
(13,44,ls),
(-2,27,o),
(6,0,o),
(27,0,cs)
);
}
);
vertWidth = 0;
width = 348;
},
{
layerId = "140DECC1-64C4-40C0-9C07-503DBC3F4160";
shapes = (
{
closed = 1;
nodes = (
(272,0,ls),
(302,0,o),
(320,19,o),
(320,43,cs),
(320,67,o),
(302,87,o),
(272,87,cs),
(134,87,l),
(137,64,l),
(334,268,ls),
(372,308,o),
(354,350,o),
(308,350,cs),
(103,350,ls),
(73,350,o),
(55,329,o),
(55,305,cs),
(55,281,o),
(73,263,o),
(103,263,cs),
(225,263,l),
(222,281,l),
(23,75,ls),
(-4,48,o),
(8,0,o),
(54,0,cs)
);
}
);
vertWidth = 0;
width = 383;
}
);
unicode = 122;
},
{
color = 6;
glyphname = zero;
layers = (
{
layerId = m01;
shapes = (
{
closed = 1;
nodes = (
(347,-3,o),
(455,149,o),
(455,352,cs),
(455,487,o),
(398,569,o),
(306,569,cs),
(164,568,o),
(56,416,o),
(56,213,cs),
(56,78,o),
(113,-3,o),
(205,-3,cs)
);
},
{
closed = 1;
nodes = (
(143,47,o),
(106,108,o),
(106,208,cs),
(106,386,o),
(192,519,o),
(307,519,cs),
(368,519,o),
(405,457,o),
(405,357,cs),
(405,179,o),
(319,47,o),
(204,47,cs)
);
}
);
vertWidth = 0;
width = 481;
},
{
layerId = "140DECC1-64C4-40C0-9C07-503DBC3F4160";
shapes = (
{
closed = 1;
nodes = (
(332,-3,o),
(453,172,o),
(453,366,cs),
(453,491,o),
(393,569,o),
(297,569,cs),
(101,569,o),
(46,340,o),
(46,222,cs),
(46,82,o),
(104,-4,o),
(198,-4,cs)
);
},
{
closed = 1;
nodes = (
(166,86,o),
(146,138,o),
(146,218,cs),
(146,331,o),
(193,479,o),
(299,479,cs),
(333,479,o),
(354,436,o),
(354,369,cs),
(354,221,o),
(280,86,o),
(198,86,cs)
);
}
);
vertWidth = 0;
width = 476;
}
);
unicode = 48;
},
{
color = 6;
glyphname = one;
layers = (
{
layerId = m01;
shapes = (
{
closed = 1;
nodes = (
(69,0,o),
(82,6,o),
(85,23,cs),
(177,543,ls),
(180,560,o),
(169,568,o),
(156,568,cs),
(143,568,o),
(129,561,o),
(126,543,cs),
(35,28,ls),
(32,9,o),
(44,0,o),
(57,0,cs)
);
}
);
vertWidth = 0;
width = 181;
},
{
layerId = "140DECC1-64C4-40C0-9C07-503DBC3F4160";
shapes = (
{
closed = 1;
nodes = (
(108,0,o),
(133,12,o),
(138,39,cs),
(223,518,ls),
(228,548,o),
(204,568,o),
(177,568,cs),
(154,568,o),
(128,554,o),
(123,526,cs),
(39,51,ls),
(33,18,o),
(59,0,o),
(86,0,cs)
);
}
);
vertWidth = 0;
width = 232;
}
);
unicode = 49;
},
{
color = 6;
glyphname = two;
layers = (
{
layerId = m01;
shapes = (
{
closed = 1;
nodes = (
(310,0,ls),
(330,0,o),
(336,13,o),
(336,25,cs),
(336,37,o),
(330,46,o),
(310,46,cs),
(81,46,l),
(76,27,l),
(152,115,o),
(289,263,o),
(302,278,cs),
(375,367,o),
(414,428,o),
(414,473,cs),
(414,532,o),
(366,568,o),
(287,568,cs),
(225,568,o),
(156,541,o),
(113,505,cs),
(89,485,o),
(93,472,o),
(101,463,cs),
(109,454,o),
(125,451,o),
(150,471,cs),
(185,500,o),
(241,522,o),
(287,522,cs),
(335,522,o),
(364,502,o),
(364,469,cs),
(364,430,o),
(323,376,o),
(286,332,cs),
(260,301,o),
(152,185,o),
(22,35,cs),
(5,16,o),
(16,0,o),
(38,0,c)
);
}
);
vertWidth = 0;
width = 412;
},
{
layerId = "140DECC1-64C4-40C0-9C07-503DBC3F4160";
shapes = (
{
closed = 1;
nodes = (
(310,0,ls),
(340,0,o),
(360,20,o),
(360,47,cs),
(360,71,o),
(342,90,o),
(310,90,cs),
(138,90,l),
(148,68,l),
(242,173,o),
(319,254,o),
(327,264,cs),
(398,352,o),
(433,413,o),
(433,460,cs),
(433,527,o),
(378,568,o),
(288,568,cs),
(223,568,o),
(150,540,o),
(107,504,cs),
(73,476,o),
(79,454,o),
(96,434,cs),
(108,421,o),
(138,413,o),
(176,443,cs),
(207,468,o),
(251,482,o),
(286,482,cs),
(316,482,o),
(335,472,o),
(335,455,cs),
(335,430,o),
(305,385,o),
(269,343,cs),
(243,313,o),
(146,205,o),
(21,65,cs),
(-10,29,o),
(15,0,o),
(54,0,cs)
);
}
);
vertWidth = 0;
width = 434;
}
);
unicode = 50;
},
{
color = 6;
glyphname = three;
layers = (
{
layerId = m01;
shapes = (
{
closed = 1;
nodes = (
(265,-4,o),
(386,105,o),
(386,226,cs),
(386,301,o),
(338,369,o),
(213,341,c),
(209,327,l),
(330,415,o),
(383,458,o),
(383,500,cs),
(383,542,o),
(345,568,o),
(284,568,cs),
(236,568,o),
(175,551,o),
(115,511,cs),
(90,495,o),
(95,478,o),
(100,470,cs),
(106,460,o),
(122,455,o),
(135,464,cs),
(196,505,o),
(253,522,o),
(290,522,cs),
(317,522,o),
(334,512,o),
(334,498,cs),
(334,464,o),
(199,366,o),
(115,314,cs),
(98,303,o),
(100,288,o),
(104,280,cs),
(109,270,o),
(125,266,o),
(140,275,cs),
(187,304,o),
(229,305,o),
(257,305,cs),
(316,305,o),
(336,266,o),
(336,225,cs),
(336,131,o),
(239,42,o),
(130,42,cs),
(106,42,o),
(82,49,o),
(67,61,cs),
(43,79,o),
(30,74,o),
(25,67,cs),
(20,60,o),
(14,45,o),
(39,25,cs),
(61,7,o),
(95,-4,o),
(129,-4,cs)
);
}
);
vertWidth = 0;
width = 429;
},
{
layerId = "140DECC1-64C4-40C0-9C07-503DBC3F4160";
shapes = (
{
closed = 1;
nodes = (
(285,-4,o),
(416,106,o),
(416,229,cs),
(416,327,o),
(351,370,o),
(246,343,c),
(244,325,l),
(371,415,o),
(413,446,o),
(413,495,cs),
(413,535,o),
(363,568,o),
(295,568,cs),
(241,568,o),
(180,550,o),
(120,510,cs),
(87,489,o),
(89,464,o),
(100,445,cs),
(113,423,o),
(141,424,o),
(164,439,cs),
(219,476,o),
(269,488,o),
(300,488,cs),
(307,488,o),
(316,487,o),
(316,481,cs),
(316,465,o),
(199,381,o),
(122,333,cs),
(95,316,o),
(94,290,o),
(104,270,cs),
(115,249,o),
(146,237,o),
(176,256,cs),
(211,278,o),
(240,288,o),
(263,288,cs),
(299,288,o),
(319,264,o),
(319,228,cs),
(319,148,o),
(224,83,o),
(161,83,cs),
(129,83,o),
(110,89,o),
(95,100,cs),
(64,124,o),
(35,115,o),
(22,97,cs),
(10,81,o),
(5,54,o),
(38,28,cs),
(64,7,o),
(101,-4,o),
(149,-4,cs)
);
}
);
vertWidth = 0;
width = 458;
}
);
unicode = 51;
},
{
color = 6;
glyphname = four;
layers = (
{
layerId = m01;
shapes = (
{
closed = 1;
nodes = (
(366,135,ls),
(382,135,o),
(392,146,o),
(392,158,cs),
(392,170,o),
(382,180,o),
(366,180,cs),
(104,180,l),
(315,540,ls),
(325,558,o),
(308,569,o),
(296,569,cs),
(284,569,o),
(271,565,o),
(261,547,cs),
(44,177,ls),
(29,151,o),
(48,135,o),
(66,135,cs)
);
},
{
closed = 1;
nodes = (
(227,-1,o),
(241,6,o),
(245,26,cs),
(288,258,ls),
(291,275,o),
(280,285,o),
(268,287,cs),
(255,289,o),
(241,282,o),
(238,265,cs),
(195,31,ls),
(191,11,o),
(202,1,o),
(215,0,cs)
);
}
);
vertWidth = 0;
width = 444;
},
{
guides = (
{
name = " [#kC2ohKlSA4]";
pos = (525,569);
}
);
layerId = "140DECC1-64C4-40C0-9C07-503DBC3F4160";
shapes = (
{
closed = 1;
nodes = (
(366,122,ls),
(394,122,o),
(415,143,o),
(415,168,cs),
(415,192,o),
(394,212,o),
(366,212,cs),
(153,212,l),
(323,500,ls),
(351,547,o),
(315,569,o),
(291,569,c),
(264,569,o),
(251,556,o),
(235,528,cs),
(43,202,ls),
(9,145,o),
(40,122,o),
(86,122,cs)
);
},
{
closed = 1;
nodes = (
(254,0,o),
(270,16,o),
(275,44,cs),
(310,235,ls),
(315,264,o),
(304,282,o),
(280,287,cs),
(256,291,o),
(236,276,o),
(231,248,cs),
(196,59,ls),
(190,26,o),
(200,0,o),
(226,0,cs)
);
}
);
vertWidth = 0;
width = 466;
}
);
unicode = 52;
},
{
color = 6;
glyphname = five;
layers = (
{
layerId = m01;
shapes = (
{
closed = 1;
nodes = (
(255,-4,o),
(350,89,o),
(350,206,cs),
(350,291,o),
(288,350,o),
(205,350,cs),
(164,350,o),
(145,348,o),
(93,331,c),
(115,316,l),
(157,553,l),
(124,524,l),
(383,524,ls),
(403,524,o),
(409,534,o),
(409,546,cs),
(409,558,o),
(403,569,o),
(383,569,c),
(139,569,ls),
(121,569,o),
(110,561,o),
(106,541,cs),
(65,310,ls),
(62,295,o),
(72,286,o),
(85,286,cs),
(89,286,o),
(96,288,o),
(111,293,cs),
(134,300,o),
(162,304,o),
(187,304,cs),
(252,304,o),
(300,262,o),
(300,205,cs),
(300,117,o),
(226,42,o),
(127,42,cs),
(102,42,o),
(80,50,o),
(66,63,cs),
(59,70,o),
(52,72,o),
(43,72,cs),
(32,72,o),
(21,67,o),
(21,55,cs),
(21,46,o),
(25,37,o),
(34,28,cs),
(55,8,o),
(88,-4,o),
(127,-4,cs)
);
}
);
vertWidth = 0;
width = 397;
},
{
layerId = "140DECC1-64C4-40C0-9C07-503DBC3F4160";
shapes = (
{
closed = 1;
nodes = (
(272,-3,o),
(373,91,o),
(373,216,cs),
(373,312,o),
(322,371,o),
(240,371,cs),
(196,371,o),
(174,367,o),
(136,355,c),
(161,341,l),
(191,517,l),
(158,487,l),
(381,487,ls),
(413,487,o),
(430,505,o),
(430,529,cs),
(430,556,o),
(411,571,o),
(381,571,c),
(165,571,ls),
(127,571,o),
(100,560,o),
(93,523,cs),
(55,312,ls),
(49,281,o),
(78,264,o),
(98,264,cs),
(107,264,o),
(115,266,o),
(122,268,cs),
(147,275,o),
(170,281,o),
(195,281,cs),
(243,281,o),
(273,251,o),
(273,203,cs),
(273,134,o),
(215,83,o),
(138,83,cs),
(120,83,o),
(105,86,o),
(95,93,cs),
(83,101,o),
(74,110,o),
(54,110,cs),
(36,110,o),
(13,97,o),
(13,72,cs),
(13,58,o),
(19,45,o),
(33,31,cs),
(57,8,o),
(96,-3,o),
(137,-3,cs)
);
}
);
vertWidth = 0;
width = 418;
}
);
unicode = 53;
},
{
color = 6;
glyphname = six;
layers = (
{
layerId = m01;
shapes = (
{
closed = 1;
nodes = (
(263,0,o),
(367,121,o),
(367,257,cs),
(367,321,o),
(329,354,o),
(270,354,cs),
(222,354,o),
(86,319,o),
(86,185,c),
(91,146,l),
(110,286,o),
(232,308,o),
(255,308,cs),
(296,308,o),
(317,289,o),
(317,251,cs),
(317,145,o),
(240,46,o),
(158,46,cs),
(118,46,o),
(90,87,o),
(90,147,cs),
(90,377,o),
(250,468,o),
(341,524,cs),
(352,531,o),
(357,540,o),
(357,548,cs),
(356,559,o),
(348,568,o),
(335,568,cs),
(329,568,o),
(322,567,o),
(314,562,cs),
(209,502,o),
(41,388,o),
(41,125,cs),
(41,49,o),
(86,0,o),
(149,0,cs)
);
}
);
vertWidth = 0;
width = 406;
},
{
layerId = "140DECC1-64C4-40C0-9C07-503DBC3F4160";
shapes = (
{
closed = 1;
nodes = (
(265,-1,o),
(388,143,o),
(388,247,cs),
(388,325,o),
(349,354,o),
(301,354,cs),
(223,354,o),
(120,277,o),
(120,206,c),
(125,138,l),
(125,192,o),
(215,272,o),
(264,272,cs),
(282,272,o),
(294,261,o),
(294,234,cs),
(294,174,o),
(208,89,o),
(159,89,cs),
(139,89,o),
(125,104,o),
(125,138,cs),
(124,258,o),
(116,322,o),
(362,494,cs),
(379,506,o),
(387,521,o),
(387,537,cs),
(386,559,o),
(366,576,o),
(341,576,cs),
(331,576,o),
(320,573,o),
(309,568,c),
(155,478,o),
(31,348,o),
(31,133,cs),
(31,50,o),
(79,-1,o),
(158,-1,cs)
);
}
);
vertWidth = 0;
width = 427;
}
);
unicode = 54;
},
{
color = 6;
glyphname = seven;
layers = (
{
layerId = m01;
shapes = (
{
closed = 1;
nodes = (
(245,0,o),
(257,8,o),
(262,26,cs),
(404,544,ls),
(407,556,o),
(400,568,o),
(381,568,cs),
(134,568,ls),
(116,568,o),
(107,557,o),
(107,546,cs),
(107,534,o),
(116,522,o),
(134,522,cs),
(378,522,l),
(354,552,l),
(210,26,ls),
(205,8,o),
(220,0,o),
(233,0,cs)
);
}
);
vertWidth = 0;
width = 388;
},
{
layerId = "140DECC1-64C4-40C0-9C07-503DBC3F4160";
shapes = (
{
closed = 1;
nodes = (
(261,0,o),
(284,15,o),
(291,42,cs),
(423,524,ls),
(430,551,o),
(419,568,o),
(377,568,cs),
(144,568,ls),
(114,568,o),
(94,546,o),
(94,522,cs),
(94,498,o),
(114,478,o),
(144,478,cs),
(348,478,l),
(326,517,l),
(194,50,ls),
(185,20,o),
(211,0,o),
(238,0,cs)
);
}
);
vertWidth = 0;
width = 411;
}
);
unicode = 55;
},
{
color = 6;
glyphname = eight;
layers = (
{
layerId = m01;
shapes = (
{
closed = 1;
nodes = (
(149,45,o),
(111,73,o),
(111,137,cs),
(111,201,o),
(144,235,o),
(221,291,cs),
(298,347,o),
(381,402,o),
(381,464,cs),
(381,547,o),
(309,568,o),
(242,568,cs),
(169,568,o),
(91,533,o),
(91,448,cs),
(91,387,o),
(160,329,o),
(187,302,cs),
(202,287,ls),
(238,251,o),
(296,194,o),
(296,149,cs),
(296,77,o),
(257,45,o),
(199,45,cs)
);
},
{
closed = 1;
nodes = (
(284,-1,o),
(346,58,o),
(346,149,cs),
(346,199,o),
(301,255,o),
(244,310,cs),
(214,339,ls),
(190,363,o),
(141,406,o),
(141,451,cs),
(141,504,o),
(195,522,o),
(239,522,cs),
(288,522,o),
(331,518,o),
(331,465,cs),
(331,421,o),
(260,376,o),
(190,325,cs),
(93,254,o),
(61,209,o),
(61,133,cs),
(61,54,o),
(120,-1,o),
(196,-1,cs)
);
}
);
vertWidth = 0;
width = 403;
},
{
layerId = "140DECC1-64C4-40C0-9C07-503DBC3F4160";
shapes = (
{
closed = 1;
nodes = (
(163,84,o),
(135,108,o),
(135,148,cs),
(135,177,o),
(155,219,o),
(248,287,cs),
(326,344,o),
(396,392,o),
(396,465,cs),
(396,532,o),
(310,568,o),
(238,568,cs),
(161,568,o),
(78,526,o),
(78,428,cs),
(78,355,o),
(142,311,o),
(164,289,cs),
(183,270,ls),
(219,234,o),
(266,190,o),
(266,147,cs),
(266,113,o),
(237,84,o),
(196,84,cs)
);
},
{
closed = 1;
nodes = (
(312,-1,o),
(361,86,o),
(361,156,cs),
(361,218,o),
(307,275,o),
(256,322,cs),
(231,345,ls),
(203,371,o),
(170,397,o),
(170,433,cs),
(170,470,o),
(207,483,o),
(242,483,cs),
(274,483,o),
(303,476,o),
(303,456,cs),
(303,436,o),
(242,391,o),
(185,352,cs),
(81,281,o),
(40,204,o),
(40,148,cs),
(40,87,o),
(86,-1,o),
(197,-1,cs)
);
}
);
vertWidth = 0;
width = 416;
}
);
unicode = 56;
},
{
color = 6;
glyphname = nine;
layers = (
{
layerId = m01;
shapes = (
{
closed = 1;
nodes = (
(217,214,o),
(305,311,o),
(395,505,c),
(359,522,l),
(275,349,o),
(203,260,o),
(140,260,cs),
(124,260,o),
(119,277,o),
(119,296,cs),
(119,433,o),
(180,522,o),
(278,522,cs),
(359,522,l),
(274,24,ls),
(271,8,o),
(283,0,o),
(295,0,cs),
(308,0,o),
(321,8,o),
(324,24,cs),
(416,546,ls),
(418,558,o),
(412,568,o),
(400,568,c),
(278,568,ls),
(149,568,o),
(69,462,o),
(69,291,cs),
(69,243,o),
(89,214,o),
(129,214,cs)
);
}
);
vertWidth = 0;
width = 420;
},
{
layerId = "140DECC1-64C4-40C0-9C07-503DBC3F4160";
shapes = (
{
closed = 1;
nodes = (
(214,209,o),
(292,279,o),
(381,481,c),
(328,481,l),
(289,403,o),
(204,299,o),
(172,299,cs),
(163,299,o),
(159,306,o),
(159,320,cs),
(159,412,o),
(210,478,o),
(279,478,cs),
(328,478,l),
(250,43,ls),
(244,11,o),
(273,-4,o),
(295,-4,cs),
(318,-4,o),
(345,10,o),
(350,36,cs),
(437,529,ls),
(442,555,o),
(427,568,o),
(394,568,cs),
(279,568,ls),
(152,568,o),
(57,450,o),
(57,291,cs),
(57,237,o),
(82,209,o),
(132,209,cs)
);
}
);
vertWidth = 0;
width = 444;
}
);
unicode = 57;
},
{
color = 6;
glyphname = .notdef;
layers = (
{
layerId = m01;
shapes = (
{
closed = 1;
nodes = (
(468,0,o),
(479,12,o),
(482,27,cs),
(596,673,ls),
(599,689,o),
(592,700,o),
(578,700,cs),
(182,700,ls),
(165,700,o),
(154,689,o),
(151,673,cs),
(37,27,ls),
(34,12,o),
(42,0,o),
(61,0,cs),
(457,0,ls)
);
},
{
closed = 1;
nodes = (
(199,655,l),
(542,655,l),
(435,45,l),
(91,45,l)
);
}
);
vertWidth = 0;
width = 625;
},
{
layerId = "140DECC1-64C4-40C0-9C07-503DBC3F4160";
shapes = (
{
closed = 1;
nodes = (
(513,0,o),
(536,26,o),
(540,49,cs),
(647,659,ls),
(652,687,o),
(637,700,o),
(600,700,c),
(220,700,l),
(192,700,o),
(171,687,o),
(166,659,cs),
(59,49,ls),
(54,21,o),
(68,0,o),
(107,0,cs),
(488,0,ls)
);
},
{
closed = 1;
nodes = (
(259,605,l),
(536,605,l),
(446,95,l),
(169,95,l)
);
}
);
vertWidth = 0;
width = 697;
}
);
},
{
color = 6;
glyphname = period;
kernLeft = period_left;
kernRight = period_right;
layers = (
{
layerId = m01;
shapes = (
{
closed = 1;
nodes = (
(103,-1,o),
(120,17,o),
(120,40,cs),
(120,62,o),
(103,79,o),
(80,79,cs),
(57,79,o),
(40,62,o),
(40,40,cs),
(40,17,o),
(57,-1,o),
(80,-1,cs)
);
}
);
vertWidth = 0;
width = 210;
},
{
layerId = "140DECC1-64C4-40C0-9C07-503DBC3F4160";
shapes = (
{
closed = 1;
nodes = (
(123,0,o),
(153,30,o),
(153,65,cs),
(153,98,o),
(123,126,o),
(90,126,cs),
(55,126,o),
(28,98,o),
(28,65,cs),
(28,30,o),
(55,0,o),
(90,0,cs)
);
}
);
vertWidth = 0;
width = 219;
}
);
unicode = 46;
},
{
color = 6;
glyphname = comma;
kernLeft = period_left;
kernRight = period_right;
layers = (
{
layerId = m01;
shapes = (
{
closed = 1;
nodes = (
(74,-102,o),
(83,-93,o),
(86,-78,cs),
(105,21,ls),
(108,39,o),
(95,50,o),
(80,50,cs),
(68,50,o),
(57,45,o),
(54,28,cs),
(36,-75,ls),
(33,-92,o),
(43,-102,o),
(60,-102,cs)
);
}
);
vertWidth = 0;
width = 210;
},
{
layerId = "140DECC1-64C4-40C0-9C07-503DBC3F4160";
shapes = (
{
closed = 1;
nodes = (
(89,-79,o),
(110,-68,o),
(118,-37,cs),
(144,67,ls),
(156,113,o),
(123,129,o),
(96,129,cs),
(70,129,o),
(50,119,o),
(42,87,cs),
(16,-17,ls),
(5,-62,o),
(37,-79,o),
(63,-79,cs)
);
}
);
vertWidth = 0;
width = 219;
}
);
unicode = 44;
},
{
color = 6;
glyphname = colon;
kernLeft = colon_left;
kernRight = colon_right;
layers = (
{
layerId = m01;
shapes = (
{
closed = 1;
nodes = (
(103,-1,o),
(120,17,o),
(120,40,cs),
(120,62,o),
(103,79,o),
(80,79,cs),
(57,79,o),
(40,62,o),
(40,40,cs),
(40,17,o),
(57,-1,o),
(80,-1,cs)
);
},
{
closed = 1;
nodes = (
(149,274,o),
(166,292,o),
(166,315,cs),
(166,337,o),
(149,354,o),
(126,354,cs),
(103,354,o),
(86,337,o),
(86,315,cs),
(86,292,o),
(103,274,o),
(126,274,cs)
);
}
);
vertWidth = 0;
width = 210;
},
{
layerId = "140DECC1-64C4-40C0-9C07-503DBC3F4160";
shapes = (
{
closed = 1;
nodes = (
(123,0,o),
(153,30,o),
(153,65,cs),
(153,98,o),
(123,126,o),
(90,126,cs),
(55,126,o),
(28,98,o),
(28,65,cs),
(28,30,o),
(55,0,o),
(90,0,cs)
);
},
{
closed = 1;
nodes = (
(171,233,o),
(201,263,o),
(201,298,cs),
(201,331,o),
(171,359,o),
(138,359,cs),
(103,359,o),
(76,331,o),
(76,298,cs),
(76,263,o),
(103,233,o),
(138,233,cs)
);
}
);
vertWidth = 0;
width = 219;
}
);
unicode = 58;
},
{
color = 6;
glyphname = semicolon;
kernLeft = colon_left;
kernRight = colon_right;
layers = (
{
layerId = m01;
shapes = (
{
closed = 1;
nodes = (
(75,-102,o),
(84,-93,o),
(87,-78,cs),
(105,21,ls),
(108,39,o),
(95,50,o),
(80,50,cs),
(68,50,o),
(57,45,o),
(54,28,cs),
(37,-75,ls),
(34,-92,o),
(44,-102,o),
(61,-102,cs)
);
},
{
closed = 1;
nodes = (
(149,274,o),
(166,292,o),
(166,315,cs),
(166,337,o),
(149,354,o),
(126,354,cs),
(103,354,o),
(86,337,o),
(86,315,cs),
(86,292,o),
(103,274,o),
(126,274,cs)
);
}
);
vertWidth = 0;
width = 210;
},
{
layerId = "140DECC1-64C4-40C0-9C07-503DBC3F4160";
shapes = (
{
closed = 1;
nodes = (
(89,-79,o),
(110,-68,o),
(118,-37,cs),
(144,67,ls),
(156,113,o),
(123,129,o),
(96,129,cs),
(70,129,o),
(50,119,o),
(42,87,cs),
(16,-17,ls),
(5,-62,o),
(37,-79,o),
(63,-79,cs)
);
},
{
closed = 1;
nodes = (
(171,233,o),
(201,263,o),
(201,298,cs),
(201,331,o),
(171,359,o),
(138,359,cs),
(103,359,o),
(76,331,o),
(76,298,cs),
(76,263,o),
(103,233,o),
(138,233,cs)
);
}
);
vertWidth = 0;
width = 219;
}
);
unicode = 59;
},
{
color = 6;
glyphname = ellipsis;
layers = (
{
layerId = m01;
shapes = (
{
closed = 1;
nodes = (
(117,-1,o),
(134,17,o),
(134,40,cs),
(134,62,o),
(117,79,o),
(94,79,cs),
(71,79,o),
(54,62,o),
(54,40,cs),
(54,17,o),
(71,-1,o),
(94,-1,cs)
);
},
{
closed = 1;
nodes = (
(257,-1,o),
(274,17,o),
(274,40,cs),
(274,62,o),
(257,79,o),
(234,79,cs),
(211,79,o),
(194,62,o),
(194,40,cs),
(194,17,o),
(211,-1,o),
(234,-1,cs)
);
},
{
closed = 1;
nodes = (
(397,-1,o),
(414,17,o),
(414,40,cs),
(414,62,o),
(397,79,o),
(374,79,cs),
(351,79,o),
(334,62,o),
(334,40,cs),
(334,17,o),
(351,-1,o),
(374,-1,cs)
);
}
);
vertWidth = 0;
width = 490;
},
{
layerId = "140DECC1-64C4-40C0-9C07-503DBC3F4160";
shapes = (
{
closed = 1;
nodes = (
(123,0,o),
(153,30,o),
(153,65,cs),
(153,98,o),
(123,126,o),
(90,126,cs),
(55,126,o),
(28,98,o),
(28,65,cs),
(28,30,o),
(55,0,o),
(90,0,cs)
);
},
{
closed = 1;
nodes = (
(313,0,o),
(343,30,o),
(343,65,cs),
(343,98,o),
(313,126,o),
(280,126,cs),
(245,126,o),
(218,98,o),
(218,65,cs),
(218,30,o),
(245,0,o),
(280,0,cs)
);
},
{
closed = 1;
nodes = (
(503,0,o),
(533,30,o),
(533,65,cs),
(533,98,o),
(503,126,o),
(470,126,cs),
(435,126,o),
(408,98,o),
(408,65,cs),
(408,30,o),
(435,0,o),
(470,0,cs)
);
}
);
vertWidth = 0;
width = 599;
}
);
unicode = 8230;
},
{
color = 6;
glyphname = exclam;
layers = (
{
layerId = m01;
shapes = (
{
closed = 1;
nodes = (
(111,-1,o),
(128,17,o),
(128,40,cs),
(128,62,o),
(111,79,o),
(88,79,cs),
(65,79,o),
(48,62,o),
(48,40,cs),
(48,17,o),
(65,-1,o),
(88,-1,cs)
);
},
{
closed = 1;
nodes = (
(123,174,o),
(138,183,o),
(141,202,cs),
(217,629,ls),
(219,643,o),
(209,650,o),
(197,650,cs),
(184,650,o),
(169,643,o),
(166,629,cs),
(90,202,ls),
(87,185,o),
(99,176,o),
(111,175,cs)
);
}
);
vertWidth = 0;
width = 232;
},
{
layerId = "140DECC1-64C4-40C0-9C07-503DBC3F4160";
shapes = (
{
closed = 1;
nodes = (
(147,0,o),
(177,30,o),
(177,65,cs),
(177,98,o),
(147,126,o),
(114,126,cs),
(79,126,o),
(52,98,o),
(52,65,cs),
(52,30,o),
(79,0,o),
(114,0,cs)
);
},
{
closed = 1;
nodes = (
(159,173,o),
(188,191,o),
(193,220,cs),
(262,605,ls),
(267,632,o),
(240,650,o),
(216,650,cs),
(194,650,o),
(165,635,o),
(161,611,cs),
(92,226,ls),
(87,197,o),
(111,177,o),
(136,175,cs)
);
}
);
vertWidth = 0;
width = 276;
}
);
unicode = 33;
},
{
color = 6;
glyphname = exclamdown;
layers = (
{
layerId = m01;
shapes = (
{
closed = 1;
nodes = (
(92,-1,o),
(107,6,o),
(110,20,cs),
(186,447,ls),
(189,464,o),
(177,473,o),
(165,474,cs),
(153,475,o),
(138,466,o),
(135,447,cs),
(59,20,ls),
(57,6,o),
(67,-1,o),
(79,-1,cs)
);
},
{
closed = 1;
nodes = (
(211,570,o),
(228,587,o),
(228,609,cs),
(228,632,o),
(211,650,o),
(188,650,cs),
(165,650,o),
(148,632,o),
(148,609,cs),
(148,587,o),
(165,570,o),
(188,570,cs)
);
}
);
vertWidth = 0;
width = 232;
},
{
layerId = "140DECC1-64C4-40C0-9C07-503DBC3F4160";
shapes = (
{
closed = 1;
nodes = (
(127,0,o),
(156,15,o),
(160,39,cs),
(229,424,ls),
(234,453,o),
(210,473,o),
(185,475,cs),
(162,477,o),
(133,459,o),
(128,430,cs),
(59,45,ls),
(54,18,o),
(81,0,o),
(105,0,cs)
);
},
{
closed = 1;
nodes = (
(242,524,o),
(269,552,o),
(269,585,cs),
(269,620,o),
(242,650,o),
(207,650,cs),
(174,650,o),
(144,620,o),
(144,585,cs),
(144,552,o),
(174,524,o),
(207,524,cs)
);
}
);
vertWidth = 0;
width = 276;
}
);
unicode = 161;
},
{
color = 6;
glyphname = question;
layers = (
{
layerId = m01;
shapes = (
{
closed = 1;
nodes = (
(181,-1,o),
(198,17,o),
(198,40,cs),
(198,62,o),
(181,79,o),
(158,79,cs),
(135,79,o),
(118,62,o),
(118,40,cs),
(118,17,o),
(135,-1,o),
(158,-1,cs)
);
},
{
closed = 1;
nodes = (
(192,175,o),
(206,180,o),
(210,202,cs),
(223,273,l),
(362,282,o),
(448,371,o),
(448,505,cs),
(448,595,o),
(390,650,o),
(296,650,cs),
(186,650,o),
(124,590,o),
(107,495,cs),
(103,472,o),
(110,457,o),
(127,457,cs),
(142,457,o),
(153,468,o),
(156,485,cs),
(166,542,o),
(204,604,o),
(289,604,cs),
(356,604,o),
(398,563,o),
(398,497,cs),
(398,389,o),
(323,322,o),
(202,322,cs),
(191,322,o),
(179,314,o),
(177,303,cs),
(159,202,ls),
(157,188,o),
(167,175,o),
(182,175,cs)
);
}
);
vertWidth = 0;
width = 464;
},
{
layerId = "140DECC1-64C4-40C0-9C07-503DBC3F4160";
shapes = (
{
closed = 1;
nodes = (
(209,0,o),
(239,30,o),
(239,65,cs),
(239,98,o),
(209,126,o),
(176,126,cs),
(141,126,o),
(114,98,o),
(114,65,cs),
(114,30,o),
(141,0,o),
(176,0,cs)
);
},
{
closed = 1;
nodes = (
(226,176,o),
(245,193,o),
(251,225,cs),
(259,268,l),
(390,276,o),
(473,370,o),
(473,490,cs),
(473,589,o),
(413,650,o),
(317,650,cs),
(200,650,o),
(132,582,o),
(116,489,cs),
(110,453,o),
(125,430,o),
(157,430,cs),
(186,430,o),
(206,446,o),
(210,472,cs),
(218,520,o),
(243,561,o),
(305,561,cs),
(350,561,o),
(378,531,o),
(378,483,cs),
(378,403,o),
(315,356,o),
(218,356,cs),
(197,356,o),
(176,342,o),
(172,321,cs),
(156,233,ls),
(149,200,o),
(168,176,o),
(200,176,cs)
);
}
);
vertWidth = 0;
width = 490;
}
);
unicode = 63;
},
{
color = 6;
glyphname = questiondown;
layers = (
{
layerId = m01;
shapes = (
{
closed = 1;
nodes = (
(322,-1,o),
(384,59,o),
(401,154,cs),
(405,177,o),
(398,192,o),
(381,192,cs),
(366,192,o),
(355,181,o),
(352,164,cs),
(342,107,o),
(304,45,o),
(219,45,cs),
(152,45,o),
(110,86,o),
(110,152,cs),
(110,260,o),
(185,327,o),
(306,327,cs),
(317,327,o),
(329,335,o),
(331,346,cs),
(349,447,ls),
(351,461,o),
(341,474,o),
(326,474,cs),
(316,474,o),
(302,469,o),
(298,447,cs),
(285,376,l),
(146,367,o),
(60,278,o),
(60,144,cs),
(60,54,o),
(118,-1,o),
(212,-1,cs)
);
},
{
closed = 1;
nodes = (
(373,570,o),
(390,587,o),
(390,609,cs),
(390,632,o),
(373,650,o),
(350,650,cs),
(327,650,o),
(310,632,o),
(310,609,cs),
(310,587,o),
(327,570,o),
(350,570,cs)
);
}
);
vertWidth = 0;
width = 474;
},
{
layerId = "140DECC1-64C4-40C0-9C07-503DBC3F4160";
shapes = (
{
closed = 1;
nodes = (
(335,0,o),
(403,68,o),
(419,161,cs),
(425,197,o),
(410,220,o),
(378,220,cs),
(349,220,o),
(329,204,o),
(325,178,cs),
(317,130,o),
(292,89,o),
(230,89,cs),
(185,89,o),
(157,119,o),
(157,167,cs),
(157,247,o),
(220,294,o),
(317,294,cs),
(338,294,o),
(359,308,o),
(363,329,cs),
(379,417,ls),
(386,450,o),
(367,474,o),
(335,474,cs),
(309,474,o),
(290,457,o),
(284,425,cs),
(276,382,l),
(145,374,o),
(62,280,o),
(62,160,cs),
(62,61,o),
(122,0,o),
(218,0,cs)
);
},
{
closed = 1;
nodes = (
(394,524,o),
(421,552,o),
(421,585,cs),
(421,620,o),
(394,650,o),
(359,650,cs),
(326,650,o),
(296,620,o),
(296,585,cs),
(296,552,o),
(326,524,o),
(359,524,cs)
);
}
);
vertWidth = 0;
width = 491;
}
);
unicode = 191;
},
{
color = 6;
glyphname = periodcentered;
layers = (
{
layerId = m01;
shapes = (
{
closed = 1;
nodes = (
(148,193,o),
(165,211,o),
(165,234,cs),
(165,256,o),
(148,273,o),
(125,273,cs),
(102,273,o),
(85,256,o),
(85,234,cs),
(85,211,o),
(102,193,o),
(125,193,cs)
);
}
);
vertWidth = 0;
width = 210;
},
{
layerId = "140DECC1-64C4-40C0-9C07-503DBC3F4160";
shapes = (
{
closed = 1;
nodes = (
(154,171,o),
(184,201,o),
(184,236,cs),
(184,269,o),
(154,297,o),
(121,297,cs),
(86,297,o),
(59,269,o),
(59,236,cs),
(59,201,o),
(86,171,o),
(121,171,cs)
);
}
);
vertWidth = 0;
width = 219;
}
);
unicode = 183;
},
{
color = 6;
glyphname = bullet;
layers = (
{
layerId = m01;
shapes = (
{
closed = 1;
nodes = (
(229,278,o),
(266,314,o),
(266,355,cs),
(266,396,o),
(230,430,o),
(190,430,cs),
(148,430,o),
(116,395,o),
(116,355,cs),
(116,316,o),
(147,278,o),
(189,278,cs)
);
}
);
vertWidth = 0;
width = 330;
},
{
layerId = "140DECC1-64C4-40C0-9C07-503DBC3F4160";
shapes = (
{
closed = 1;
nodes = (
(291,254,o),
(340,301,o),
(340,355,cs),
(340,409,o),
(292,454,o),
(238,454,cs),
(183,454,o),
(140,408,o),
(140,355,cs),
(140,304,o),
(181,254,o),
(237,254,cs)
);
}
);
vertWidth = 0;
width = 419;
}
);
unicode = 8226;
},
{
color = 6;
glyphname = asterisk;
layers = (
{
layerId = m01;
shapes = (
{
closed = 1;
nodes = (
(329,584,o),
(332,598,o),
(326,607,cs),
(321,614,o),
(309,617,o),
(294,608,cs),
(158,524,ls),
(141,513,o),
(137,499,o),
(143,491,cs),
(148,483,o),
(160,481,o),
(176,490,cs),
(312,574,ls)
);
},
{
closed = 1;
nodes = (
(289,482,o),
(302,484,o),
(309,492,cs),
(314,499,o),
(314,511,o),
(301,521,cs),
(193,606,ls),
(181,616,o),
(169,614,o),
(163,606,cs),
(156,599,o),
(156,586,o),
(169,576,cs),
(276,492,ls)
);
},
{
closed = 1;
nodes = (
(270,641,o),
(262,650,o),
(253,650,cs),
(243,650,o),
(231,641,o),
(228,623,cs),
(202,475,ls),
(199,458,o),
(206,450,o),
(215,448,cs),
(225,447,o),
(238,456,o),
(241,475,cs),
(267,623,ls)
);
}
);
vertWidth = 0;
width = 352;
},
{
layerId = "140DECC1-64C4-40C0-9C07-503DBC3F4160";
shapes = (
{
closed = 1;
nodes = (
(386,570,o),
(396,594,o),
(381,617,cs),
(370,633,o),
(342,639,o),
(317,625,cs),
(184,543,l),
(162,527,o),
(150,504,o),
(163,483,cs),
(173,464,o),
(204,458,o),
(231,474,cs),
(360,554,ls)
);
},
{
closed = 1;
nodes = (
(321,460,o),
(350,464,o),
(364,481,cs),
(377,499,o),
(375,521,o),
(353,538,cs),
(248,621,ls),
(226,638,o),
(197,634,o),
(184,617,cs),
(169,599,o),
(171,576,o),
(195,558,cs),
(296,477,l)
);
},
{
closed = 1;
nodes = (
(334,648,o),
(314,668,o),
(290,668,cs),
(269,668,o),
(246,651,o),
(241,624,cs),
(216,482,ls),
(211,453,o),
(227,436,o),
(248,431,cs),
(270,426,o),
(298,443,o),
(304,474,cs),
(329,616,ls)
);
}
);
vertWidth = 0;
width = 430;
}
);
unicode = 42;
},
{
color = 6;
glyphname = numbersign;
layers = (
{
layerId = m01;
shapes = (
{
closed = 1;
nodes = (
(213,-1,o),
(228,8,o),
(232,28,cs),
(323,543,ls),
(326,559,o),
(315,568,o),
(302,568,cs),
(289,568,o),
(275,560,o),
(272,543,cs),
(181,28,ls),
(178,10,o),
(188,0,o),
(200,0,cs)
);
},
{
closed = 1;
nodes = (
(471,0,o),
(485,9,o),
(488,28,cs),
(579,543,ls),
(582,559,o),
(571,567,o),
(559,568,cs),
(546,568,o),
(531,560,o),
(528,543,cs),
(437,28,ls),
(434,9,o),
(445,-1,o),
(458,0,cs)
);
},
{
closed = 1;
nodes = (
(632,147,ls),
(649,147,o),
(658,159,o),
(658,170,cs),
(658,181,o),
(650,192,o),
(632,192,cs),
(87,192,ls),
(69,192,o),
(61,181,o),
(61,170,cs),
(61,159,o),
(70,147,o),
(87,147,cs)
);
},
{
closed = 1;
nodes = (
(673,384,ls),
(691,384,o),
(700,395,o),
(700,406,cs),
(700,417,o),
(691,429,o),
(673,429,cs),
(129,429,ls),
(111,429,o),
(102,417,o),
(102,406,cs),
(102,395,o),
(111,384,o),
(129,384,cs)
);
}
);
vertWidth = 0;
width = 729;
},
{
layerId = "140DECC1-64C4-40C0-9C07-503DBC3F4160";
shapes = (
{
closed = 1;
nodes = (
(239,0,o),
(268,10,o),
(273,39,cs),
(358,523,ls),
(363,552,o),
(339,568,o),
(312,568,cs),
(287,568,o),
(266,557,o),
(261,530,cs),
(175,47,ls),
(169,16,o),
(189,0,o),
(215,0,cs)
);
},
{
closed = 1;
nodes = (
(487,0,o),
(509,11,o),
(514,39,cs),
(599,523,ls),
(605,555,o),
(581,568,o),
(558,568,cs),
(534,568,o),
(506,558,o),
(501,531,cs),
(416,47,ls),
(410,13,o),
(436,0,o),
(463,0,cs)
);
},
{
closed = 1;
nodes = (
(624,133,ls),
(653,133,o),
(673,153,o),
(673,177,cs),
(673,200,o),
(654,218,o),
(624,218,cs),
(112,218,ls),
(82,218,o),
(62,200,o),
(62,177,cs),
(62,153,o),
(83,133,o),
(112,133,cs)
);
},
{
closed = 1;
nodes = (
(662,357,ls),
(692,357,o),
(713,375,o),
(713,399,cs),
(713,422,o),
(692,442,o),
(662,442,cs),
(151,442,ls),
(121,442,o),
(101,422,o),
(101,399,cs),
(101,375,o),
(121,357,o),
(151,357,cs)
);
}
);
vertWidth = 0;
width = 756;
}
);
unicode = 35;
},
{
color = 6;
glyphname = slash;
layers = (
{
layerId = m01;
shapes = (
{
closed = 1;
nodes = (
(48,0,o),
(59,6,o),
(65,20,cs),
(322,616,ls),
(331,637,o),
(316,650,o),
(301,650,cs),
(290,650,o),
(279,644,o),
(272,627,cs),
(15,31,ls),
(7,12,o),
(21,0,o),
(37,0,cs)
);
}
);
vertWidth = 0;
width = 283;
},
{
layerId = "140DECC1-64C4-40C0-9C07-503DBC3F4160";
shapes = (
{
closed = 1;
nodes = (
(127,0,o),
(149,10,o),
(159,32,cs),
(400,588,ls),
(416,624,o),
(385,650,o),
(355,650,cs),
(335,650,o),
(313,639,o),
(302,614,cs),
(62,60,ls),
(47,25,o),
(76,0,o),
(108,0,cs)
);
}
);
vertWidth = 0;
width = 417;
}
);
unicode = 47;
},
{
color = 6;
glyphname = backslash;
layers = (
{
layerId = m01;
shapes = (
{
closed = 1;
nodes = (
(230,0,o),
(239,13,o),
(236,31,cs),
(122,627,ls),
(119,644,o),
(104,650,o),
(93,650,cs),
(78,650,o),
(68,637,o),
(72,616,cs),
(186,20,ls),
(189,5,o),
(204,0,o),
(215,0,cs)
);
}
);
vertWidth = 0;
width = 283;
},
{
layerId = "140DECC1-64C4-40C0-9C07-503DBC3F4160";
shapes = (
{
closed = 1;
nodes = (
(370,13,o),
(381,41,o),
(370,69,cs),
(164,614,ls),
(151,648,o),
(118,655,o),
(93,646,cs),
(71,638,o),
(59,608,o),
(72,574,cs),
(277,32,ls),
(289,1,o),
(324,-6,o),
(349,4,cs)
);
}
);
vertWidth = 0;
width = 417;
}
);
unicode = 92;
},
{
color = 6;
glyphname = hyphen;
kernLeft = hyphen_left;
kernRight = hyphen_right;
layers = (
{
layerId = m01;
shapes = (
{
closed = 1;
nodes = (
(248,177,ls),
(267,177,o),
(279,185,o),
(279,200,cs),
(279,215,o),
(268,223,o),
(250,223,cs),
(102,223,ls),
(83,223,o),
(71,215,o),
(71,200,cs),
(71,185,o),
(82,177,o),
(100,177,cs)
);
}
);
vertWidth = 0;
width = 338;
},
{
layerId = "140DECC1-64C4-40C0-9C07-503DBC3F4160";
shapes = (
{
closed = 1;
nodes = (
(265,154,ls),
(301,154,o),
(323,172,o),
(323,200,cs),
(323,227,o),
(304,244,o),
(274,244,cs),
(129,244,ls),
(93,244,o),
(71,226,o),
(71,198,cs),
(71,171,o),
(90,154,o),
(120,154,cs)
);
}
);
vertWidth = 0;
width = 382;
}
);
unicode = 45;
},
{
color = 6;
glyphname = endash;
kernLeft = hyphen_left;
kernRight = hyphen_right;
layers = (
{
layerId = m01;
shapes = (
{
closed = 1;
nodes = (
(298,177,ls),
(317,177,o),
(329,185,o),
(329,200,cs),
(329,215,o),
(318,223,o),
(300,223,cs),
(102,223,ls),
(83,223,o),
(71,215,o),
(71,200,cs),
(71,185,o),
(82,177,o),
(100,177,cs)
);
}
);
vertWidth = 0;
width = 388;
},
{
layerId = "140DECC1-64C4-40C0-9C07-503DBC3F4160";
shapes = (
{
closed = 1;
nodes = (
(346,154,ls),
(382,154,o),
(404,172,o),
(404,200,cs),
(404,227,o),
(385,244,o),
(355,244,cs),
(129,244,ls),
(93,244,o),
(71,226,o),
(71,198,cs),
(71,171,o),
(90,154,o),
(120,154,cs)
);
}
);
vertWidth = 0;
width = 463;
}
);
unicode = 8211;
},
{
color = 6;
glyphname = emdash;
kernLeft = hyphen_left;
kernRight = hyphen_right;
layers = (
{
layerId = m01;
shapes = (
{
closed = 1;
nodes = (
(448,177,ls),
(467,177,o),
(479,185,o),
(479,200,cs),
(479,215,o),
(468,223,o),
(450,223,cs),
(102,223,ls),
(83,223,o),
(71,215,o),
(71,200,cs),
(71,185,o),
(82,177,o),
(100,177,cs)
);
}
);
vertWidth = 0;
width = 538;
},
{
layerId = "140DECC1-64C4-40C0-9C07-503DBC3F4160";
shapes = (
{
closed = 1;
nodes = (
(438,154,ls),
(474,154,o),
(496,172,o),
(496,200,cs),
(496,227,o),
(477,244,o),
(447,244,cs),
(129,244,ls),
(93,244,o),
(71,226,o),
(71,198,cs),
(71,171,o),
(90,154,o),
(120,154,cs)
);
}
);
vertWidth = 0;
width = 555;
}
);
unicode = 8212;
},
{
color = 6;
glyphname = underscore;
kernLeft = hyphen_left;
kernRight = hyphen_right;
layers = (
{
layerId = m01;
shapes = (
{
closed = 1;
nodes = (
(301,-80,ls),
(320,-80,o),
(332,-72,o),
(332,-57,cs),
(332,-42,o),
(321,-34,o),
(303,-34,cs),
(55,-34,ls),
(36,-34,o),
(24,-42,o),
(24,-57,cs),
(24,-72,o),
(35,-80,o),
(53,-80,cs)
);
}
);
vertWidth = 0;
width = 438;
},
{
layerId = "140DECC1-64C4-40C0-9C07-503DBC3F4160";
shapes = (
{
closed = 1;
nodes = (
(310,-98,ls),
(346,-98,o),
(368,-80,o),
(368,-52,cs),
(368,-25,o),
(349,-8,o),
(319,-8,cs),
(93,-8,ls),
(57,-8,o),
(35,-26,o),
(35,-54,cs),
(35,-81,o),
(54,-98,o),
(84,-98,cs)
);
}
);
vertWidth = 0;
width = 464;
}
);
unicode = 95;
},
{
color = 6;
glyphname = parenleft;
layers = (
{
layerId = m01;
shapes = (
{
closed = 1;
nodes = (
(222,-292,o),
(223,-278,o),
(215,-261,cs),
(143,-110,o),
(110,73,o),
(136,219,cs),
(158,342,o),
(249,490,o),
(366,607,cs),
(384,625,o),
(386,639,o),
(379,646,cs),
(371,654,o),
(353,651,o),
(333,633,cs),
(203,509,o),
(109,351,o),
(85,219,cs),
(60,78,o),
(96,-114,o),
(179,-283,cs),
(187,-299,o),
(203,-303,o),
(214,-297,cs)
);
}
);
vertWidth = 0;
width = 365;
},
{
layerId = "140DECC1-64C4-40C0-9C07-503DBC3F4160";
shapes = (
{
closed = 1;
nodes = (
(277,-283,o),
(282,-264,o),
(270,-235,c),
(189,-66,o),
(177,80,o),
(201,213,cs),
(222,333,o),
(292,456,o),
(410,574,cs),
(441,605,o),
(436,628,o),
(422,643,cs),
(407,658,o),
(374,659,o),
(343,631,cs),
(211,505,o),
(116,330,o),
(97,221,cs),
(76,96,o),
(101,-95,o),
(190,-275,cs),
(205,-303,o),
(241,-310,o),
(262,-295,cs)
);
}
);
vertWidth = 0;
width = 452;
}
);
unicode = 40;
},
{
color = 6;
glyphname = parenright;
layers = (
{
layerId = m01;
shapes = (
{
closed = 1;
nodes = (
(-15,-284,o),
(2,-285,o),
(15,-273,cs),
(149,-144,o),
(249,24,o),
(275,167,cs),
(298,298,o),
(263,479,o),
(183,640,cs),
(170,664,o),
(155,673,o),
(144,668,cs),
(135,664,o),
(132,650,o),
(143,627,cs),
(213,476,o),
(248,308,o),
(227,186,cs),
(201,39,o),
(107,-124,o),
(-12,-240,cs),
(-25,-253,o),
(-29,-267,o),
(-23,-274,cs)
);
}
);
vertWidth = 0;
width = 365;
},
{
layerId = "140DECC1-64C4-40C0-9C07-503DBC3F4160";
shapes = (
{
closed = 1;
nodes = (
(15,-289,o),
(52,-291,o),
(73,-270,cs),
(219,-132,o),
(308,41,o),
(331,164,cs),
(349,274,o),
(321,469,o),
(241,631,cs),
(220,669,o),
(191,679,o),
(169,669,cs),
(151,660,o),
(139,640,o),
(156,601,cs),
(227,448,o),
(251,309,o),
(230,190,cs),
(207,56,o),
(146,-76,o),
(14,-207,cs),
(-6,-225,o),
(-16,-249,o),
(-1,-267,cs)
);
}
);
vertWidth = 0;
width = 452;
}
);
unicode = 41;
},
{
color = 6;
glyphname = braceleft;
layers = (
{
layerId = m01;
shapes = (
{
closed = 1;
nodes = (
(240,-306,o),
(258,-308,o),
(268,-298,cs),
(279,-289,o),
(273,-268,o),
(258,-258,cs),
(218,-231,o),
(183,-212,o),
(175,-158,cs),
(166,-95,o),
(221,9,o),
(224,63,cs),
(227,107,o),
(214,144,o),
(172,197,c),
(226,236,o),
(245,267,o),
(252,311,cs),
(259,364,o),
(222,479,o),
(251,534,cs),
(270,570,o),
(322,583,o),
(367,595,cs),
(383,599,o),
(398,615,o),
(394,629,cs),
(391,644,o),
(365,652,o),
(343,645,cs),
(304,634,o),
(229,600,o),
(205,550,cs),
(176,492,o),
(208,366,o),
(199,317,cs),
(194,288,o),
(175,264,o),
(143,240,cs),
(126,228,o),
(112,221,o),
(111,205,cs),
(111,188,o),
(124,178,o),
(136,162,cs),
(161,129,o),
(173,100,o),
(171,71,cs),
(167,14,o),
(114,-94,o),
(124,-160,cs),
(133,-217,o),
(188,-267,o),
(224,-294,cs)
);
}
);
vertWidth = 0;
width = 379;
},
{
layerId = "140DECC1-64C4-40C0-9C07-503DBC3F4160";
shapes = (
{
closed = 1;
nodes = (
(210,-311,o),
(241,-308,o),
(255,-289,cs),
(272,-268,o),
(260,-251,o),
(245,-235,cs),
(222,-210,o),
(206,-187,o),
(204,-139,cs),
(203,-83,o),
(249,12,o),
(254,66,cs),
(259,108,o),
(255,144,o),
(234,193,c),
(269,230,o),
(281,262,o),
(289,302,cs),
(298,357,o),
(284,459,o),
(302,511,cs),
(318,552,o),
(352,566,o),
(381,576,cs),
(404,584,o),
(415,605,o),
(406,628,cs),
(395,656,o),
(363,652,o),
(340,642,cs),
(311,629,o),
(232,599,o),
(211,540,cs),
(189,475,o),
(200,368,o),
(191,316,cs),
(187,291,o),
(175,273,o),
(156,254,cs),
(140,239,o),
(131,230,o),
(128,209,cs),
(124,179,o),
(133,170,o),
(142,153,cs),
(155,126,o),
(159,103,o),
(156,79,cs),
(149,26,o),
(104,-75,o),
(107,-143,cs),
(110,-203,o),
(160,-256,o),
(187,-285,cs)
);
}
);
vertWidth = 0;
width = 422;
}
);
unicode = 123;
},
{
color = 6;
glyphname = braceright;
layers = (
{
layerId = m01;
shapes = (
{
closed = 1;
nodes = (
(87,-288,o),
(162,-255,o),
(187,-205,cs),
(216,-147,o),
(184,10,o),
(193,59,cs),
(199,88,o),
(217,112,o),
(249,136,cs),
(266,148,o),
(281,155,o),
(281,171,cs),
(282,188,o),
(269,198,o),
(256,214,cs),
(231,247,o),
(220,276,o),
(221,305,cs),
(226,362,o),
(277,439,o),
(267,505,cs),
(258,562,o),
(204,612,o),
(167,639,cs),
(151,651,o),
(133,653,o),
(123,643,cs),
(113,634,o),
(119,613,o),
(133,603,cs),
(173,576,o),
(209,557,o),
(216,503,cs),
(225,440,o),
(172,367,o),
(168,313,cs),
(165,269,o),
(180,232,o),
(221,179,c),
(168,140,o),
(148,109,o),
(141,65,cs),
(133,13,o),
(169,-134,o),
(140,-188,cs),
(121,-224,o),
(69,-239,o),
(25,-250,cs),
(8,-255,o),
(-6,-270,o),
(-3,-284,cs),
(0,-299,o),
(26,-307,o),
(48,-300,cs)
);
}
);
vertWidth = 0;
width = 379;
},
{
layerId = "140DECC1-64C4-40C0-9C07-503DBC3F4160";
shapes = (
{
closed = 1;
nodes = (
(99,-283,o),
(178,-253,o),
(199,-194,cs),
(221,-129,o),
(210,-22,o),
(219,30,cs),
(223,55,o),
(235,73,o),
(254,92,cs),
(270,107,o),
(279,116,o),
(282,137,cs),
(286,167,o),
(277,176,o),
(268,193,cs),
(255,220,o),
(251,243,o),
(254,267,cs),
(261,320,o),
(306,421,o),
(303,489,cs),
(300,549,o),
(250,602,o),
(223,631,cs),
(200,657,o),
(169,654,o),
(155,635,cs),
(138,614,o),
(150,597,o),
(165,581,cs),
(188,556,o),
(204,533,o),
(206,485,cs),
(207,429,o),
(161,334,o),
(156,280,cs),
(151,238,o),
(155,202,o),
(176,153,c),
(141,116,o),
(129,84,o),
(121,44,cs),
(112,-11,o),
(126,-113,o),
(108,-165,cs),
(92,-206,o),
(58,-220,o),
(29,-230,cs),
(6,-238,o),
(-5,-259,o),
(4,-282,cs),
(15,-310,o),
(47,-306,o),
(70,-296,cs)
);
}
);
vertWidth = 0;
width = 422;
}
);
unicode = 125;
},
{
color = 6;
glyphname = bracketleft;
layers = (
{
layerId = m01;
shapes = (
{
closed = 1;
nodes = (
(149,-300,ls),
(166,-300,o),
(175,-288,o),
(175,-277,cs),
(175,-266,o),
(167,-255,o),
(149,-255,cs),
(36,-255,l),
(188,605,l),
(308,605,ls),
(325,605,o),
(334,616,o),
(335,627,cs),
(336,638,o),
(327,650,o),
(308,650,cs),
(170,650,ls),
(151,650,o),
(143,639,o),
(140,623,cs),
(-18,-273,ls),
(-21,-287,o),
(-14,-300,o),
(4,-300,cs)
);
}
);
vertWidth = 0;
width = 325;
},
{
layerId = "140DECC1-64C4-40C0-9C07-503DBC3F4160";
shapes = (
{
closed = 1;
nodes = (
(191,-300,ls),
(221,-300,o),
(238,-284,o),
(243,-258,cs),
(248,-230,o),
(222,-215,o),
(191,-215,cs),
(114,-215,l),
(252,565,l),
(344,565,ls),
(372,565,o),
(391,582,o),
(395,605,cs),
(400,633,o),
(373,650,o),
(344,650,cs),
(213,650,l),
(183,650,o),
(163,637,o),
(158,609,cs),
(6,-251,ls),
(1,-279,o),
(21,-300,o),
(55,-300,cs)
);
}
);
vertWidth = 0;
width = 422;
}
);
unicode = 91;
},
{
color = 6;
glyphname = bracketright;
layers = (
{
layerId = m01;
shapes = (
{
closed = 1;
nodes = (
(144,-300,l),
(166,-300,o),
(173,-289,o),
(176,-273,cs),
(334,623,ls),
(337,638,o),
(329,650,o),
(309,650,cs),
(168,650,ls),
(150,650,o),
(141,638,o),
(141,627,cs),
(141,616,o),
(150,605,o),
(168,605,cs),
(280,605,l),
(128,-255,l),
(9,-255,ls),
(-8,-255,o),
(-18,-266,o),
(-18,-277,cs),
(-18,-289,o),
(-10,-300,o),
(9,-300,cs)
);
}
);
vertWidth = 0;
width = 324;
},
{
layerId = "140DECC1-64C4-40C0-9C07-503DBC3F4160";
shapes = (
{
closed = 1;
nodes = (
(186,-300,l),
(217,-300,o),
(236,-287,o),
(241,-259,cs),
(393,601,ls),
(398,629,o),
(378,650,o),
(344,650,cs),
(209,650,ls),
(178,650,o),
(162,634,o),
(157,607,cs),
(153,583,o),
(178,565,o),
(209,565,cs),
(285,565,l),
(147,-215,l),
(56,-215,ls),
(30,-215,o),
(9,-233,o),
(5,-257,cs),
(1,-281,o),
(22,-300,o),
(56,-300,cs)
);
}
);
vertWidth = 0;
width = 422;
}
);
unicode = 93;
},
{
color = 6;
glyphname = quotedbl;
kernLeft = quote_left;
kernRight = quote_right;
layers = (
{
layerId = m01;
shapes = (
{
closed = 1;
nodes = (
(157,500,o),
(171,508,o),
(174,524,cs),
(191,620,ls),
(195,640,o),
(182,650,o),
(169,650,cs),
(157,650,o),
(143,641,o),
(140,624,cs),
(123,528,ls),
(120,510,o),
(132,500,o),
(145,500,cs)
);
},
{
closed = 1;
nodes = (
(266,500,o),
(280,507,o),
(282,521,cs),
(299,620,ls),
(302,640,o),
(290,650,o),
(276,650,cs),
(264,650,o),
(252,642,o),
(249,628,cs),
(231,528,ls),
(228,509,o),
(240,500,o),
(254,500,cs)
);
}
);
vertWidth = 0;
width = 290;
},
{
layerId = "140DECC1-64C4-40C0-9C07-503DBC3F4160";
shapes = (
{
closed = 1;
nodes = (
(190,456,o),
(215,471,o),
(220,498,cs),
(237,594,ls),
(243,628,o),
(219,650,o),
(191,650,cs),
(168,650,o),
(142,634,o),
(137,606,cs),
(120,510,ls),
(114,477,o),
(139,456,o),
(167,456,cs)
);
},
{
closed = 1;
nodes = (
(348,456,o),
(375,470,o),
(379,496,cs),
(396,595,ls),
(402,629,o),
(376,650,o),
(348,650,cs),
(325,650,o),
(301,635,o),
(296,610,cs),
(278,510,ls),
(271,472,o),
(302,456,o),
(326,456,cs)
);
}
);
vertWidth = 0;
width = 392;
}
);
unicode = 34;
},
{
color = 6;
glyphname = quotesingle;
kernLeft = quote_left;
kernRight = quote_right;
layers = (
{
layerId = m01;
shapes = (
{
closed = 1;
nodes = (
(158,500,o),
(172,507,o),
(174,521,cs),
(191,620,ls),
(194,640,o),
(182,650,o),
(168,650,cs),
(156,650,o),
(144,642,o),
(141,628,cs),
(123,528,ls),
(120,509,o),
(132,500,o),
(146,500,cs)
);
}
);
vertWidth = 0;
width = 182;
},
{
layerId = "140DECC1-64C4-40C0-9C07-503DBC3F4160";
shapes = (
{
closed = 1;
nodes = (
(190,456,o),
(217,470,o),
(221,496,cs),
(238,595,ls),
(243,629,o),
(218,650,o),
(190,650,cs),
(167,650,o),
(144,635,o),
(138,610,cs),
(120,510,ls),
(114,472,o),
(144,456,o),
(168,456,cs)
);
}
);
vertWidth = 0;
width = 234;
}
);
unicode = 39;
},
{
color = 6;
glyphname = at;
layers = (
{
layerId = m01;
shapes = (
{
closed = 1;
nodes = (
(363,52,o),
(410,126,o),
(437,234,cs),
(463,338,o),
(450,406,o),
(383,406,cs),
(303,406,o),
(236,332,o),
(209,224,cs),
(183,120,o),
(216,52,o),
(283,52,cs)
);
},
{
closed = 1;
nodes = (
(254,97,o),
(240,137,o),
(259,215,cs),
(280,300,o),
(324,361,o),
(372,361,cs),
(412,361,o),
(426,321,o),
(407,243,cs),
(386,158,o),
(342,97,o),
(294,97,cs)
);
},
{
closed = 1;
nodes = (
(320,-80,o),
(369,-68,o),
(399,-60,cs),
(419,-55,o),
(423,-41,o),
(420,-29,cs),
(415,-13,o),
(396,-12,o),
(384,-16,cs),
(354,-25,o),
(311,-35,o),
(276,-35,cs),
(155,-35,o),
(86,77,o),
(120,214,cs),
(162,382,o),
(272,481,o),
(402,481,cs),
(524,481,o),
(593,385,o),
(561,250,cs),
(542,172,o),
(488,97,o),
(448,97,cs),
(432,97,o),
(430,131,o),
(444,185,cs),
(492,374,ls),
(496,390,o),
(492,402,o),
(475,402,cs),
(456,402,o),
(446,395,o),
(441,377,cs),
(395,196,ls),
(372,107,o),
(392,52,o),
(443,52,cs),
(506,52,o),
(585,146,o),
(611,251,cs),
(650,409,o),
(561,526,o),
(404,526,cs),
(247,526,o),
(117,410,o),
(70,223,cs),
(27,49,o),
(119,-80,o),
(279,-80,cs)
);
}
);
vertWidth = 0;
width = 668;
},
{
layerId = "140DECC1-64C4-40C0-9C07-503DBC3F4160";
shapes = (
{
closed = 1;
nodes = (
(365,49,o),
(396,124,o),
(424,229,cs),
(453,337,o),
(457,408,o),
(388,408,cs),
(311,408,o),
(239,341,o),
(212,233,cs),
(184,119,o),
(219,49,o),
(299,49,cs)
);
},
{
closed = 1;
nodes = (
(299,139,o),
(293,167,o),
(305,213,cs),
(321,278,o),
(352,318,o),
(386,318,cs),
(406,318,o),
(412,292,o),
(401,249,cs),
(384,181,o),
(353,139,o),
(320,139,cs)
);
},
{
closed = 1;
nodes = (
(324,-120,o),
(382,-111,o),
(430,-98,cs),
(467,-88,o),
(484,-64,o),
(475,-33,cs),
(466,-4,o),
(436,6,o),
(395,-8,cs),
(365,-18,o),
(321,-25,o),
(292,-25,cs),
(171,-25,o),
(107,78,o),
(141,215,cs),
(184,384,o),
(292,489,o),
(424,489,cs),
(541,489,o),
(605,395,o),
(576,268,cs),
(558,192,o),
(516,136,o),
(485,136,cs),
(470,136,o),
(475,164,o),
(479,179,cs),
(523,354,ls),
(532,390,o),
(517,408,o),
(485,408,cs),
(455,408,o),
(439,397,o),
(432,369,cs),
(389,200,ls),
(358,80,o),
(401,49,o),
(453,49,c),
(552,49,o),
(647,137,o),
(676,254,cs),
(724,443,o),
(617,584,o),
(427,584,cs),
(243,584,o),
(96,453,o),
(43,240,cs),
(-8,34,o),
(99,-120,o),
(294,-120,cs)
);
}
);
vertWidth = 0;
width = 712;
}
);
unicode = 64;
},
{
color = 6;
glyphname = ampersand;
layers = (
{
layerId = m01;
shapes = (
{
closed = 1;
nodes = (
(307,-4,o),
(390,62,o),
(493,224,cs),
(503,239,o),
(507,257,o),
(493,267,cs),
(478,277,o),
(466,270,o),
(454,254,c),
(360,104,o),
(288,42,o),
(207,42,cs),
(147,42,o),
(110,86,o),
(110,140,cs),
(110,222,o),
(156,282,o),
(246,336,cs),
(292,363,ls),
(403,428,o),
(455,491,o),
(455,556,cs),
(455,614,o),
(411,650,o),
(340,650,cs),
(230,650,o),
(162,600,o),
(162,520,cs),
(162,488,o),
(187,424,o),
(227,353,cs),
(413,22,ls),
(423,5,o),
(441,-9,o),
(456,1,cs),
(470,11,o),
(466,33,o),
(458,47,c),
(270,383,ls),
(235,447,o),
(212,500,o),
(212,520,cs),
(212,572,o),
(258,604,o),
(332,604,cs),
(377,604,o),
(405,582,o),
(405,546,cs),
(405,500,o),
(347,445,o),
(245,387,cs),
(224,375,ls),
(115,312,o),
(60,238,o),
(60,138,cs),
(60,56,o),
(116,-4,o),
(207,-4,cs)
);
}
);
vertWidth = 0;
width = 562;
},
{
layerId = "140DECC1-64C4-40C0-9C07-503DBC3F4160";
shapes = (
{
closed = 1;
nodes = (
(326,-4,o),
(410,62,o),
(516,222,cs),
(533,248,o),
(525,275,o),
(503,288,cs),
(479,303,o),
(441,294,o),
(423,269,cs),
(337,147,o),
(285,97,o),
(244,97,cs),
(198,97,o),
(171,122,o),
(171,172,cs),
(171,218,o),
(204,262,o),
(265,301,cs),
(301,324,ls),
(405,390,o),
(477,468,o),
(477,542,cs),
(477,623,o),
(406,650,o),
(340,650,cs),
(226,650,o),
(141,587,o),
(141,502,cs),
(141,441,o),
(185,383,o),
(218,329,c),
(402,24,l),
(416,1,o),
(458,-14,o),
(485,7,cs),
(514,30,o),
(512,59,o),
(497,83,cs),
(306,393,ls),
(274,445,o),
(250,479,o),
(250,504,cs),
(250,529,o),
(285,547,o),
(333,547,cs),
(363,547,o),
(373,541,o),
(373,526,cs),
(373,504,o),
(335,468,o),
(248,413,cs),
(216,393,ls),
(136,343,o),
(62,254,o),
(62,170,cs),
(62,55,o),
(119,-4,o),
(226,-4,cs)
);
}
);
vertWidth = 0;
width = 600;
}
);
unicode = 38;
},
{
color = 6;
glyphname = copyright;
layers = (
{
layerId = m01;
shapes = (
{
closed = 1;
nodes = (
(664,-80,o),
(839,95,o),
(839,310,cs),
(839,525,o),
(664,700,o),
(449,700,cs),
(234,700,o),
(59,525,o),
(59,310,cs),
(59,95,o),
(234,-80,o),
(449,-80,cs)
);
},
{
closed = 1;
nodes = (
(262,-30,o),
(109,123,o),
(109,311,cs),
(109,497,o),
(263,650,o),
(449,650,cs),
(635,650,o),
(789,497,o),
(789,311,cs),
(789,123,o),
(636,-30,o),
(449,-30,cs)
);
},
{
closed = 1;
nodes = (
(428,120,o),
(469,151,o),
(518,223,cs),
(532,245,o),
(532,250,o),
(532,255,cs),
(532,268,o),
(523,278,o),
(511,278,cs),
(497,278,o),
(491,272,o),
(478,254,cs),
(435,192,o),
(409,170,o),
(377,170,cs),
(352,170,o),
(349,191,o),
(349,212,cs),
(349,242,o),
(357,300,o),
(363,329,cs),
(377,398,o),
(392,466,o),
(518,466,cs),
(549,466,o),
(555,465,o),
(563,469,cs),
(576,476,o),
(578,501,o),
(565,510,cs),
(558,514,o),
(550,516,o),
(518,516,cs),
(354,516,o),
(328,421,o),
(312,329,cs),
(310,317,o),
(299,251,o),
(299,213,cs),
(299,171,o),
(313,120,o),
(378,120,cs)
);
}
);
width = 887;
},
{
layerId = "140DECC1-64C4-40C0-9C07-503DBC3F4160";
shapes = (
{
closed = 1;
nodes = (
(635,-80,o),
(810,95,o),
(810,310,cs),
(810,525,o),
(635,700,o),
(420,700,cs),
(205,700,o),
(30,525,o),
(30,310,cs),
(30,95,o),
(205,-80,o),
(420,-80,cs)
);
},
{
closed = 1;
nodes = (
(255,10,o),
(120,143,o),
(120,310,cs),
(120,474,o),
(253,610,o),
(421,610,cs),
(587,610,o),
(720,475,o),
(720,310,cs),
(720,145,o),
(586,10,o),
(421,10,cs)
);
},
{
closed = 1;
nodes = (
(415,120,o),
(452,154,o),
(499,221,cs),
(512,242,o),
(516,262,o),
(512,277,cs),
(508,295,o),
(494,306,o),
(472,306,cs),
(450,306,o),
(439,297,o),
(422,274,cs),
(385,221,o),
(371,210,o),
(359,210,cs),
(353,210,o),
(353,219,o),
(353,233,cs),
(353,259,o),
(361,298,o),
(365,323,cs),
(376,385,o),
(387,426,o),
(478,426,cs),
(492,426,o),
(518,425,o),
(530,432,cs),
(558,447,o),
(561,489,o),
(533,507,cs),
(524,512,o),
(499,516,o),
(478,516,cs),
(312,516,o),
(285,414,o),
(270,331,cs),
(269,323,o),
(259,268,o),
(259,231,cs),
(259,181,o),
(268,120,o),
(354,120,cs)
);
}
);
width = 835;
}
);
unicode = 169;
},
{
color = 6;
glyphname = registered;
layers = (
{
layerId = m01;
shapes = (
{
closed = 1;
nodes = (
(301,408,o),
(309,416,o),
(310,424,cs),
(344,617,l),
(346,628,o),
(328,633,o),
(318,633,cs),
(309,633,o),
(305,630,o),
(303,620,cs),
(268,426,ls),
(267,416,o),
(273,408,o),
(286,408,cs)
);
},
{
closed = 1;
nodes = (
(399,408,o),
(406,413,o),
(410,418,cs),
(413,422,o),
(414,431,o),
(412,436,cs),
(348,529,l),
(295,532,l),
(375,416,ls),
(378,410,o),
(388,408,o),
(393,408,cs)
);
},
{
closed = 1;
nodes = (
(364,514,o),
(425,511,o),
(435,570,cs),
(442,616,o),
(398,633,o),
(318,633,c),
(314,592,l),
(362,592,o),
(398,586,o),
(395,571,cs),
(392,555,o),
(357,555,o),
(312,555,c),
(308,515,l)
);
},
{
closed = 1;
nodes = (
(480,289,o),
(583,392,o),
(583,519,cs),
(583,646,o),
(480,749,o),
(353,749,cs),
(226,749,o),
(123,646,o),
(123,519,cs),
(123,392,o),
(226,289,o),
(353,289,cs)
);
},
{
closed = 1;
nodes = (
(252,337,o),
(171,418,o),
(171,519,cs),
(171,619,o),
(252,700,o),
(353,700,cs),
(453,700,o),
(534,619,o),
(534,519,cs),
(534,418,o),
(453,337,o),
(353,337,cs)
);
}
);
width = 589;
},
{
layerId = "140DECC1-64C4-40C0-9C07-503DBC3F4160";
shapes = (
{
closed = 1;
nodes = (
(242,407,o),
(255,419,o),
(258,435,cs),
(289,609,ls),
(293,629,o),
(281,643,o),
(262,643,cs),
(246,643,o),
(234,632,o),
(231,617,cs),
(200,439,ls),
(196,419,o),
(209,407,o),
(225,407,cs)
);
},
{
closed = 1;
nodes = (
(347,407,o),
(358,413,o),
(363,424,cs),
(366,433,o),
(364,441,o),
(359,448,cs),
(317,512,l),
(243,512,l),
(306,419,ls),
(312,411,o),
(321,407,o),
(335,407,cs)
);
},
{
closed = 1;
nodes = (
(281,496,o),
(372,494,o),
(386,567,cs),
(396,626,o),
(325,643,o),
(262,643,c),
(262,587,l),
(315,588,o),
(328,583,o),
(325,567,cs),
(322,553,o),
(278,553,o),
(262,553,c),
(259,496,l)
);
},
{
closed = 1;
nodes = (
(417,289,o),
(520,392,o),
(520,519,cs),
(520,646,o),
(417,749,o),
(290,749,cs),
(163,749,o),
(60,646,o),
(60,519,cs),
(60,392,o),
(163,289,o),
(290,289,cs)
);
},
{
closed = 1;
nodes = (
(203,364,o),
(135,436,o),
(135,519,cs),
(135,604,o),
(205,674,o),
(290,674,cs),
(375,674,o),
(445,605,o),
(445,519,cs),
(445,433,o),
(375,364,o),
(290,364,cs)
);
}
);
width = 589;
}
);
unicode = 174;
},
{
color = 6;
glyphname = trademark;
layers = (
{
layerId = m01;
shapes = (
{
closed = 1;
nodes = (
(213,666,l),
(163,379,ls),
(161,365,o),
(169,350,o),
(187,350,cs),
(205,350,o),
(211,364,o),
(213,374,cs),
(264,666,l)
);
},
{
closed = 1;
nodes = (
(350,650,o),
(359,661,o),
(359,676,cs),
(359,691,o),
(350,703,o),
(334,703,cs),
(149,703,ls),
(132,703,o),
(123,691,o),
(123,676,cs),
(123,661,o),
(132,650,o),
(149,650,cs),
(334,650,ls)
);
},
{
closed = 1;
nodes = (
(509,704,l),
(494,704,o),
(488,696,o),
(480,681,cs),
(327,389,ls),
(318,371,o),
(327,350,o),
(347,350,cs),
(355,350,o),
(366,355,o),
(374,371,cs),
(512,635,l)
);
},
{
closed = 1;
nodes = (
(533,682,ls),
(532,693,o),
(526,704,o),
(509,704,c),
(486,635,l),
(518,374,ls),
(520,361,o),
(525,350,o),
(542,350,c),
(566,400,l)
);
},
{
closed = 1;
nodes = (
(557,350,o),
(564,358,o),
(569,367,cs),
(723,635,l),
(720,704,l),
(707,704,o),
(699,696,o),
(693,686,cs),
(534,408,l),
(541,350,l)
);
},
{
closed = 1;
nodes = (
(744,692,o),
(734,704,o),
(720,704,c),
(698,635,l),
(720,375,ls),
(721,362,o),
(729,350,o),
(746,350,cs),
(762,350,o),
(771,363,o),
(770,378,cs),
(745,675,ls)
);
}
);
width = 776;
},
{
layerId = "140DECC1-64C4-40C0-9C07-503DBC3F4160";
shapes = (
{
closed = 1;
nodes = (
(194,623,l),
(155,402,ls),
(150,375,o),
(171,350,o),
(202,350,cs),
(229,350,o),
(247,368,o),
(251,390,cs),
(292,623,l)
);
},
{
closed = 1;
nodes = (
(358,612,o),
(378,632,o),
(378,658,cs),
(378,685,o),
(358,705,o),
(331,705,cs),
(168,705,ls),
(140,705,o),
(120,685,o),
(120,658,cs),
(120,632,o),
(140,612,o),
(168,612,cs),
(331,612,ls)
);
},
{
closed = 1;
nodes = (
(535,706,l),
(513,706,o),
(501,703,o),
(486,674,cs),
(352,417,ls),
(336,386,o),
(357,350,o),
(392,350,cs),
(408,350,o),
(426,359,o),
(438,381,cs),
(562,617,l)
);
},
{
closed = 1;
nodes = (
(580,666,ls),
(577,695,o),
(557,706,o),
(536,706,c),
(489,625,l),
(518,392,ls),
(522,361,o),
(542,350,o),
(564,350,c),
(610,413,l)
);
},
{
closed = 1;
nodes = (
(588,350,o),
(597,356,o),
(610,378,cs),
(748,617,l),
(730,706,l),
(704,706,o),
(687,699,o),
(674,676,cs),
(531,428,l),
(565,350,l)
);
},
{
closed = 1;
nodes = (
(773,699,o),
(756,706,o),
(729,706,c),
(683,625,l),
(703,393,ls),
(705,369,o),
(724,350,o),
(751,350,cs),
(780,350,o),
(800,372,o),
(798,400,cs),
(776,660,ls)
);
}
);
width = 807;
}
);
unicode = 8482;
},
{
color = 6;
glyphname = degree;
layers = (
{
layerId = m01;
shapes = (
{
closed = 1;
nodes = (
(271,404,o),
(305,469,o),
(312,530,cs),
(318,593,o),
(293,654,o),
(231,654,cs),
(179,654,o),
(133,612,o),
(124,530,cs),
(118,467,o),
(143,404,o),
(205,404,cs)
);
},
{
closed = 1;
nodes = (
(177,450,o),
(166,487,o),
(170,528,cs),
(176,583,o),
(198,608,o),
(228,608,cs),
(265,608,o),
(269,559,o),
(266,531,cs),
(260,478,o),
(236,450,o),
(212,450,cs)
);
}
);
vertWidth = 0;
width = 319;
},
{
layerId = "140DECC1-64C4-40C0-9C07-503DBC3F4160";
shapes = (
{
closed = 1;
nodes = (
(292,372,o),
(331,445,o),
(340,514,cs),
(347,585,o),
(318,654,o),
(245,654,cs),
(184,654,o),
(131,607,o),
(121,514,cs),
(114,443,o),
(143,372,o),
(215,372,cs)
);
},
{
closed = 1;
nodes = (
(201,459,o),
(194,485,o),
(197,513,cs),
(200,552,o),
(216,569,o),
(237,569,cs),
(262,569,o),
(266,536,o),
(263,515,cs),
(260,478,o),
(243,459,o),
(225,459,cs)
);
}
);
vertWidth = 0;
width = 350;
}
);
unicode = 176;
},
{
color = 6;
glyphname = bar;
layers = (
{
layerId = m01;
shapes = (
{
closed = 1;
nodes = (
(213,690,o),
(202,700,o),
(189,700,cs),
(177,700,o),
(162,690,o),
(159,672,cs),
(-8,-273,ls),
(-11,-288,o),
(-2,-300,o),
(16,-300,cs),
(38,-300,o),
(41,-285,o),
(43,-275,cs),
(209,668,ls)
);
}
);
vertWidth = 0;
width = 201;
},
{
layerId = "140DECC1-64C4-40C0-9C07-503DBC3F4160";
shapes = (
{
closed = 1;
nodes = (
(261,681,o),
(238,702,o),
(210,702,cs),
(188,702,o),
(162,685,o),
(157,657,cs),
(-4,-250,ls),
(-10,-278,o),
(12,-302,o),
(44,-302,cs),
(78,-302,o),
(90,-281,o),
(95,-260,c),
(255,645,ls)
);
}
);
vertWidth = 0;
width = 251;
}
);
unicode = 124;
},
{
color = 6;
glyphname = brokenbar;
layers = (
{
layerId = m01;
shapes = (
{
closed = 1;
nodes = (
(118,152,o),
(107,162,o),
(95,162,cs),
(82,162,o),
(67,152,o),
(64,135,cs),
(-8,-273,ls),
(-11,-288,o),
(-2,-300,o),
(16,-300,cs),
(38,-300,o),
(41,-285,o),
(43,-275,cs),
(115,135,ls)
);
},
{
closed = 1;
nodes = (
(213,690,o),
(202,700,o),
(189,700,cs),
(177,700,o),
(162,690,o),
(159,672,cs),
(87,266,ls),
(84,249,o),
(95,238,o),
(108,239,cs),
(121,239,o),
(135,249,o),
(138,266,cs),
(209,668,ls)
);
}
);
vertWidth = 0;
width = 201;
},
{
layerId = "140DECC1-64C4-40C0-9C07-503DBC3F4160";
shapes = (
{
closed = 1;
nodes = (
(165,141,o),
(143,163,o),
(116,163,cs),
(93,163,o),
(66,146,o),
(61,119,cs),
(-4,-248,ls),
(-9,-276,o),
(12,-300,o),
(44,-300,cs),
(78,-300,o),
(91,-279,o),
(95,-258,cs),
(160,111,ls)
);
},
{
closed = 1;
nodes = (
(260,679,o),
(237,700,o),
(209,700,cs),
(187,700,o),
(161,683,o),
(156,655,cs),
(91,290,ls),
(85,259,o),
(109,236,o),
(137,238,cs),
(160,239,o),
(185,256,o),
(190,282,cs),
(254,643,ls)
);
}
);
vertWidth = 0;
width = 251;
}
);
unicode = 166;
},
{
color = 6;
glyphname = cent;
layers = (
{
layerId = m01;
shapes = (
{
closed = 1;
nodes = (
(169,-4,o),
(230,48,o),
(272,131,cs),
(276,140,o),
(271,152,o),
(260,158,cs),
(247,165,o),
(233,164,o),
(228,154,cs),
(195,87,o),
(152,42,o),
(116,42,cs),
(89,42,o),
(73,69,o),
(74,105,cs),
(77,219,o),
(129,308,o),
(196,308,cs),
(219,308,o),
(250,304,o),
(269,297,cs),
(286,290,o),
(300,291,o),
(306,306,cs),
(313,321,o),
(307,335,o),
(290,341,cs),
(267,350,o),
(229,354,o),
(196,354,cs),
(97,354,o),
(23,243,o),
(23,95,cs),
(23,34,o),
(57,-4,o),
(112,-4,cs)
);
},
{
closed = 1;
nodes = (
(130,-157,o),
(131,-142,o),
(133,-132,cs),
(240,449,ls),
(244,471,o),
(231,481,o),
(218,481,cs),
(206,481,o),
(193,471,o),
(190,453,cs),
(82,-130,ls),
(79,-145,o),
(90,-157,o),
(108,-157,cs)
);
}
);
width = 320;
},
{
layerId = "140DECC1-64C4-40C0-9C07-503DBC3F4160";
shapes = (
{
closed = 1;
nodes = (
(185,-4,o),
(250,44,o),
(292,121,cs),
(298,132,o),
(297,159,o),
(271,172,cs),
(245,185,o),
(225,177,o),
(217,162,cs),
(191,112,o),
(155,83,o),
(132,83,cs),
(119,83,o),
(107,96,o),
(109,118,cs),
(120,216,o),
(157,276,o),
(208,276,cs),
(223,276,o),
(245,275,o),
(264,267,cs),
(287,258,o),
(308,265,o),
(319,288,cs),
(335,322,o),
(309,340,o),
(296,345,cs),
(274,354,o),
(248,358,o),
(213,358,cs),
(111,358,o),
(38,267,o),
(22,120,cs),
(13,43,o),
(51,-4,o),
(122,-4,cs)
);
},
{
closed = 1;
nodes = (
(147,-157,o),
(148,-142,o),
(150,-132,cs),
(257,449,ls),
(261,471,o),
(248,481,o),
(235,481,cs),
(223,481,o),
(210,471,o),
(207,453,cs),
(99,-130,ls),
(96,-145,o),
(107,-157,o),
(125,-157,cs)
);
}
);
width = 340;
}
);
unicode = 162;
},
{
color = 6;
glyphname = dollar;
layers = (
{
layerId = m01;
shapes = (
{
closed = 1;
nodes = (
(311,-4,o),
(386,45,o),
(403,141,cs),
(420,237,o),
(362,279,o),
(285,325,cs),
(206,372,o),
(156,390,o),
(167,447,cs),
(176,497,o),
(230,523,o),
(328,523,cs),
(369,523,o),
(408,497,o),
(419,462,cs),
(423,449,o),
(436,443,o),
(450,447,cs),
(464,451,o),
(467,467,o),
(462,485,cs),
(450,533,o),
(393,569,o),
(329,569,cs),
(204,569,o),
(134,529,o),
(119,451,cs),
(104,371,o),
(169,335,o),
(245,289,cs),
(329,238,o),
(365,212,o),
(355,148,cs),
(343,78,o),
(291,42,o),
(199,42,cs),
(146,42,o),
(101,66,o),
(95,99,cs),
(92,116,o),
(78,122,o),
(64,118,cs),
(48,114,o),
(45,98,o),
(48,82,cs),
(57,33,o),
(113,-4,o),
(180,-4,cs)
);
},
{
closed = 1;
nodes = (
(348,639,o),
(338,650,o),
(326,650,cs),
(315,650,o),
(302,641,o),
(299,622,cs),
(180,-52,ls),
(177,-71,o),
(187,-80,o),
(198,-80,cs),
(209,-80,o),
(222,-71,o),
(225,-54,cs),
(344,618,ls)
);
}
);
vertWidth = 0;
width = 482;
},
{
layerId = "140DECC1-64C4-40C0-9C07-503DBC3F4160";
shapes = (
{
closed = 1;
nodes = (
(335,-3,o),
(447,33,o),
(468,145,cs),
(490,262,o),
(416,303,o),
(351,343,cs),
(293,379,o),
(223,400,o),
(231,441,cs),
(237,474,o),
(279,479,o),
(340,479,cs),
(398,479,o),
(422,467,o),
(429,444,cs),
(438,415,o),
(463,404,o),
(493,413,cs),
(518,421,o),
(529,442,o),
(524,466,cs),
(509,538,o),
(461,568,o),
(362,568,cs),
(224,568,o),
(143,532,o),
(128,444,cs),
(111,348,o),
(218,303,o),
(281,266,cs),
(349,226,o),
(384,204,o),
(373,149,cs),
(364,104,o),
(313,93,o),
(242,93,cs),
(180,93,o),
(163,102,o),
(156,123,cs),
(145,153,o),
(112,162,o),
(87,154,cs),
(64,147,o),
(46,125,o),
(51,101,cs),
(63,33,o),
(124,-3,o),
(236,-3,cs)
);
},
{
closed = 1;
nodes = (
(411,629,o),
(388,650,o),
(362,650,cs),
(340,650,o),
(315,635,o),
(310,606,cs),
(199,-28,ls),
(193,-61,o),
(216,-80,o),
(241,-80,cs),
(263,-80,o),
(288,-65,o),
(293,-38,cs),
(405,594,ls)
);
}
);
vertWidth = 0;
width = 546;
}
);
unicode = 36;
},
{
color = 6;
glyphname = euro;
layers = (
{
layerId = m01;
shapes = (
{
closed = 1;
nodes = (
(376,0,o),
(443,45,o),
(500,108,cs),
(525,135,o),
(527,147,o),
(526,154,cs),
(524,166,o),
(515,172,o),
(503,172,cs),
(487,172,o),
(481,155,o),
(461,137,cs),
(406,85,o),
(356,46,o),
(291,46,cs),
(219,46,o),
(145,136,o),
(174,304,cs),
(194,419,o),
(242,604,o),
(417,604,cs),
(463,604,o),
(512,583,o),
(557,536,cs),
(570,523,o),
(584,526,o),
(592,535,cs),
(600,544,o),
(598,560,o),
(589,569,cs),
(540,620,o),
(480,650,o),
(418,650,cs),
(206,650,o),
(149,447,o),
(124,305,cs),
(89,108,o),
(194,0,o),
(290,0,cs)
);
},
{
closed = 1;
nodes = (
(257,199,ls),
(275,199,o),
(284,211,o),
(284,222,cs),
(284,233,o),
(275,244,o),
(257,244,cs),
(30,244,ls),
(12,244,o),
(3,232,o),
(3,221,cs),
(3,210,o),
(12,199,o),
(30,199,cs)
);
},
{
closed = 1;
nodes = (
(294,350,ls),
(312,350,o),
(321,362,o),
(321,373,cs),
(321,384,o),
(312,395,o),
(294,395,cs),
(67,395,ls),
(49,395,o),
(40,383,o),
(40,372,cs),
(40,361,o),
(49,350,o),
(67,350,cs)
);
}
);
width = 571;
},
{
layerId = "140DECC1-64C4-40C0-9C07-503DBC3F4160";
shapes = (
{
closed = 1;
nodes = (
(386,0,o),
(472,39,o),
(530,103,cs),
(555,130,o),
(564,143,o),
(564,162,cs),
(564,180,o),
(550,196,o),
(524,196,cs),
(508,196,o),
(488,190,o),
(464,164,cs),
(423,118,o),
(363,90,o),
(306,90,cs),
(232,90,o),
(193,181,o),
(214,304,cs),
(243,474,o),
(316,560,o),
(432,560,cs),
(478,560,o),
(510,550,o),
(542,520,cs),
(566,498,o),
(596,489,o),
(618,511,cs),
(641,534,o),
(628,563,o),
(603,586,cs),
(550,634,o),
(495,650,o),
(433,650,cs),
(261,650,o),
(154,534,o),
(114,305,cs),
(84,130,o),
(165,0,o),
(305,0,cs)
);
},
{
closed = 1;
nodes = (
(273,190,ls),
(307,190,o),
(319,214,o),
(319,233,cs),
(319,253,o),
(307,276,o),
(273,276,cs),
(46,276,ls),
(12,276,o),
(0,253,o),
(0,233,cs),
(0,213,o),
(12,190,o),
(46,190,cs)
);
},
{
closed = 1;
nodes = (
(306,321,ls),
(340,321,o),
(352,345,o),
(352,364,cs),
(352,384,o),
(340,407,o),
(306,407,cs),
(79,407,ls),
(45,407,o),
(33,384,o),
(33,364,cs),
(33,344,o),
(45,321,o),
(79,321,cs)
);
}
);
width = 596;
}
);
unicode = 8364;
},
{
color = 6;
glyphname = sterling;
layers = (
{
layerId = m01;
shapes = (
{
closed = 1;
nodes = (
(109,316,o),
(116,305,o),
(136,305,cs),
(349,305,ls),
(369,305,o),
(374,316,o),
(375,328,cs),
(376,340,o),
(369,350,o),
(349,350,cs),
(136,350,ls),
(116,350,o),
(111,340,o),
(110,328,cs)
);
},
{
closed = 1;
nodes = (
(98,0,l),
(143,54,o),
(213,131,o),
(250,213,cs),
(276,271,o),
(281,369,o),
(252,412,cs),
(223,456,o),
(193,509,o),
(196,548,cs),
(197,565,o),
(204,579,o),
(221,588,cs),
(235,596,o),
(254,599,o),
(274,599,cs),
(321,599,o),
(377,580,o),
(409,551,cs),
(432,531,o),
(448,534,o),
(457,543,cs),
(466,553,o),
(471,566,o),
(451,585,cs),
(411,621,o),
(343,650,o),
(280,650,cs),
(253,650,o),
(227,645,o),
(204,632,cs),
(164,610,o),
(143,580,o),
(141,543,cs),
(138,501,o),
(159,449,o),
(205,386,cs),
(219,366,o),
(224,284,o),
(201,233,cs),
(162,144,o),
(61,45,o),
(56,38,cs),
(41,17,o),
(44,0,o),
(69,0,c)
);
},
{
closed = 1;
nodes = (
(344,0,ls),
(364,0,o),
(370,13,o),
(370,25,cs),
(369,37,o),
(364,50,o),
(344,50,cs),
(94,50,l),
(73,0,l)
);
}
);
width = 483;
},
{
layerId = "140DECC1-64C4-40C0-9C07-503DBC3F4160";
shapes = (
{
closed = 1;
nodes = (
(108,283,o),
(126,265,o),
(158,265,cs),
(368,265,ls),
(400,265,o),
(418,283,o),
(419,307,cs),
(421,332,o),
(401,350,o),
(369,350,cs),
(159,350,ls),
(127,350,o),
(111,332,o),
(109,307,cs)
);
},
{
closed = 1;
nodes = (
(138,0,l),
(194,54,o),
(260,138,o),
(292,220,cs),
(314,278,o),
(321,382,o),
(292,425,cs),
(256,479,o),
(240,511,o),
(242,535,cs),
(243,544,o),
(246,551,o),
(254,555,cs),
(264,561,o),
(278,564,o),
(293,564,cs),
(330,564,o),
(375,548,o),
(405,521,cs),
(432,495,o),
(467,503,o),
(481,520,cs),
(496,539,o),
(502,561,o),
(477,586,cs),
(439,623,o),
(371,651,o),
(305,651,cs),
(273,651,o),
(242,644,o),
(216,629,cs),
(170,603,o),
(145,573,o),
(142,533,cs),
(138,479,o),
(181,407,o),
(207,373,cs),
(221,353,o),
(218,280,o),
(196,229,cs),
(157,140,o),
(94,99,o),
(60,55,cs),
(48,40,o),
(37,0,o),
(92,0,cs)
);
},
{
closed = 1;
nodes = (
(346,0,ls),
(376,0,o),
(396,14,o),
(396,41,cs),
(395,65,o),
(378,86,o),
(346,86,cs),
(148,86,l),
(112,0,l)
);
}
);
width = 515;
}
);
unicode = 163;
},
{
color = 6;
glyphname = yen;
layers = (
{
layerId = m01;
shapes = (
{
closed = 1;
nodes = (
(200,0,o),
(204,15,o),
(206,25,cs),
(258,322,l),
(469,609,ls),
(474,616,o),
(477,623,o),
(477,629,cs),
(477,640,o),
(465,650,o),
(454,650,cs),
(444,650,o),
(435,647,o),
(428,637,cs),
(224,356,l),
(249,352,l),
(142,630,ls),
(138,641,o),
(129,650,o),
(114,650,cs),
(102,650,o),
(91,640,o),
(91,630,cs),
(91,624,o),
(92,621,o),
(95,613,cs),
(207,323,l),
(155,27,ls),
(152,12,o),
(160,0,o),
(178,0,cs)
);
},
{
closed = 1;
nodes = (
(318,148,ls),
(336,148,o),
(345,160,o),
(345,171,cs),
(345,182,o),
(336,193,o),
(318,193,cs),
(91,193,ls),
(73,193,o),
(64,181,o),
(64,170,cs),
(64,159,o),
(73,148,o),
(91,148,cs)
);
},
{
closed = 1;
nodes = (
(355,299,ls),
(373,299,o),
(382,311,o),
(382,322,cs),
(382,333,o),
(373,344,o),
(355,344,cs),
(128,344,ls),
(110,344,o),
(101,332,o),
(101,321,cs),
(101,310,o),
(110,299,o),
(128,299,cs)
);
}
);
width = 416;
},
{
layerId = "140DECC1-64C4-40C0-9C07-503DBC3F4160";
shapes = (
{
closed = 1;
nodes = (
(232,-2,o),
(246,19,o),
(250,40,cs),
(298,316,l),
(493,575,ls),
(501,586,o),
(505,596,o),
(505,608,cs),
(505,634,o),
(474,650,o),
(456,650,cs),
(440,650,o),
(424,642,o),
(415,629,cs),
(246,396,l),
(270,392,l),
(184,619,ls),
(176,640,o),
(163,650,o),
(142,650,cs),
(113,650,o),
(89,634,o),
(89,613,cs),
(89,603,o),
(91,597,o),
(95,586,cs),
(197,322,l),
(150,49,ls),
(145,21,o),
(166,-2,o),
(198,-2,cs)
);
},
{
closed = 1;
nodes = (
(335,133,ls),
(369,133,o),
(381,157,o),
(381,176,cs),
(381,196,o),
(369,219,o),
(335,219,cs),
(108,219,ls),
(74,219,o),
(62,196,o),
(62,176,cs),
(62,156,o),
(74,133,o),
(108,133,cs)
);
},
{
closed = 1;
nodes = (
(368,264,ls),
(402,264,o),
(414,288,o),
(414,307,cs),
(414,327,o),
(402,350,o),
(368,350,cs),
(141,350,ls),
(107,350,o),
(95,327,o),
(95,307,cs),
(95,287,o),
(107,264,o),
(141,264,cs)
);
}
);
width = 449;
}
);
unicode = 165;
},
{
color = 6;
glyphname = plus;
layers = (
{
layerId = m01;
shapes = (
{
closed = 1;
nodes = (
(211,88,o),
(221,94,o),
(225,110,cs),
(280,331,ls),
(284,349,o),
(273,361,o),
(261,362,cs),
(251,363,o),
(241,356,o),
(236,341,cs),
(182,120,ls),
(178,101,o),
(189,89,o),
(201,88,cs)
);
},
{
closed = 1;
nodes = (
(344,205,ls),
(362,205,o),
(371,217,o),
(371,228,cs),
(371,239,o),
(362,250,o),
(344,250,cs),
(117,250,ls),
(99,250,o),
(90,239,o),
(90,228,cs),
(90,216,o),
(99,205,o),
(117,205,cs)
);
}
);
vertWidth = 0;
width = 426;
},
{
layerId = "140DECC1-64C4-40C0-9C07-503DBC3F4160";
shapes = (
{
closed = 1;
nodes = (
(213,68,o),
(233,76,o),
(240,105,cs),
(294,327,ls),
(302,362,o),
(278,382,o),
(257,382,cs),
(240,382,o),
(218,377,o),
(211,348,cs),
(157,125,l),
(149,87,o),
(174,68,o),
(195,68,cs)
);
},
{
closed = 1;
nodes = (
(337,184,ls),
(371,184,o),
(383,208,o),
(383,227,cs),
(383,247,o),
(371,270,o),
(337,270,cs),
(110,270,ls),
(76,270,o),
(64,247,o),
(64,227,cs),
(64,207,o),
(76,184,o),
(110,184,cs)
);
}
);
vertWidth = 0;
width = 426;
}
);
unicode = 43;
},
{
color = 6;
glyphname = minus;
layers = (
{
layerId = m01;
shapes = (
{
closed = 1;
nodes = (
(346,205,ls),
(364,205,o),
(373,217,o),
(373,228,cs),
(373,239,o),
(364,250,o),
(346,250,cs),
(119,250,ls),
(101,250,o),
(92,239,o),
(92,228,cs),
(92,216,o),
(101,205,o),
(119,205,cs)
);
}
);
vertWidth = 0;
width = 426;
},
{
layerId = "140DECC1-64C4-40C0-9C07-503DBC3F4160";
shapes = (
{
closed = 1;
nodes = (
(337,184,ls),
(371,184,o),
(383,208,o),
(383,227,cs),
(383,247,o),
(371,270,o),
(337,270,cs),
(110,270,ls),
(76,270,o),
(64,247,o),
(64,227,cs),
(64,207,o),
(76,184,o),
(110,184,cs)
);
}
);
vertWidth = 0;
width = 426;
}
);
unicode = 8722;
},
{
color = 6;
glyphname = multiply;
layers = (
{
layerId = m01;
shapes = (
{
closed = 1;
nodes = (
(371,327,ls),
(385,339,o),
(385,352,o),
(376,360,cs),
(367,369,o),
(353,370,o),
(339,358,cs),
(71,123,ls),
(59,113,o),
(59,100,o),
(67,91,cs),
(76,82,o),
(89,79,o),
(105,93,cs)
);
},
{
closed = 1;
nodes = (
(302,79,o),
(315,80,o),
(324,87,cs),
(335,95,o),
(338,107,o),
(328,121,cs),
(156,353,ls),
(145,368,o),
(131,370,o),
(122,363,cs),
(112,355,o),
(109,340,o),
(118,327,cs),
(291,93,ls)
);
}
);
vertWidth = 0;
width = 426;
},
{
layerId = "140DECC1-64C4-40C0-9C07-503DBC3F4160";
shapes = (
{
closed = 1;
nodes = (
(371,300,ls),
(401,327,o),
(392,348,o),
(376,364,cs),
(362,378,o),
(338,385,o),
(313,363,cs),
(73,150,ls),
(50,130,o),
(53,105,o),
(68,89,cs),
(83,73,o),
(104,63,o),
(133,88,cs)
);
},
{
closed = 1;
nodes = (
(291,65,o),
(316,70,o),
(332,82,cs),
(351,96,o),
(359,118,o),
(340,144,c),
(179,354,ls),
(156,385,o),
(131,379,o),
(116,368,cs),
(98,354,o),
(91,327,o),
(108,305,cs),
(270,92,ls)
);
}
);
vertWidth = 0;
width = 426;
}
);
unicode = 215;
},
{
color = 6;
glyphname = divide;
layers = (
{
layerId = m01;
shapes = (
{
closed = 1;
nodes = (
(220,87,o),
(236,103,o),
(236,120,cs),
(236,138,o),
(219,152,o),
(202,152,cs),
(183,152,o),
(171,136,o),
(171,120,cs),
(171,103,o),
(184,87,o),
(202,87,cs)
);
},
{
closed = 1;
nodes = (
(344,205,ls),
(362,205,o),
(371,217,o),
(371,228,cs),
(371,239,o),
(362,250,o),
(344,250,cs),
(117,250,ls),
(99,250,o),
(90,239,o),
(90,228,cs),
(90,217,o),
(99,205,o),
(117,205,cs)
);
},
{
closed = 1;
nodes = (
(274,303,o),
(290,319,o),
(290,336,cs),
(290,353,o),
(274,368,o),
(257,368,cs),
(239,368,o),
(225,352,o),
(225,336,cs),
(225,320,o),
(239,303,o),
(257,303,cs)
);
}
);
vertWidth = 0;
width = 426;
},
{
layerId = "140DECC1-64C4-40C0-9C07-503DBC3F4160";
shapes = (
{
closed = 1;
nodes = (
(228,48,o),
(255,75,o),
(255,106,cs),
(255,135,o),
(228,160,o),
(199,160,cs),
(168,160,o),
(144,135,o),
(144,106,cs),
(144,75,o),
(168,48,o),
(199,48,cs)
);
},
{
closed = 1;
nodes = (
(337,184,ls),
(371,184,o),
(383,208,o),
(383,227,cs),
(383,247,o),
(371,270,o),
(337,270,cs),
(110,270,ls),
(76,270,o),
(64,247,o),
(64,227,cs),
(64,207,o),
(76,184,o),
(110,184,cs)
);
},
{
closed = 1;
nodes = (
(267,294,o),
(294,321,o),
(294,352,cs),
(294,381,o),
(267,406,o),
(238,406,cs),
(207,406,o),
(183,381,o),
(183,352,cs),
(183,321,o),
(207,294,o),
(238,294,cs)
);
}
);
vertWidth = 0;
width = 426;
}
);
unicode = 247;
},
{
color = 6;
glyphname = equal;
layers = (
{
layerId = m01;
shapes = (
{
closed = 1;
nodes = (
(323,129,ls),
(341,129,o),
(350,141,o),
(350,152,cs),
(350,163,o),
(341,174,o),
(323,174,cs),
(96,174,ls),
(78,174,o),
(69,162,o),
(69,151,cs),
(69,140,o),
(78,129,o),
(96,129,cs)
);
},
{
closed = 1;
nodes = (
(360,280,ls),
(378,280,o),
(387,292,o),
(387,303,cs),
(387,314,o),
(378,325,o),
(360,325,cs),
(133,325,ls),
(115,325,o),
(106,313,o),
(106,302,cs),
(106,291,o),
(115,280,o),
(133,280,cs)
);
}
);
vertWidth = 0;
width = 426;
},
{
layerId = "140DECC1-64C4-40C0-9C07-503DBC3F4160";
shapes = (
{
closed = 1;
nodes = (
(315,120,ls),
(349,120,o),
(361,144,o),
(361,163,cs),
(361,183,o),
(349,206,o),
(315,206,cs),
(88,206,ls),
(54,206,o),
(42,183,o),
(42,163,cs),
(42,143,o),
(54,120,o),
(88,120,cs)
);
},
{
closed = 1;
nodes = (
(348,251,ls),
(382,251,o),
(394,275,o),
(394,294,cs),
(394,314,o),
(382,337,o),
(348,337,cs),
(121,337,ls),
(87,337,o),
(75,314,o),
(75,294,cs),
(75,274,o),
(87,251,o),
(121,251,cs)
);
}
);
vertWidth = 0;
width = 426;
}
);
unicode = 61;
},
{
color = 6;
glyphname = notequal;
layers = (
{
layerId = m01;
shapes = (
{
closed = 1;
nodes = (
(323,129,ls),
(341,129,o),
(350,141,o),
(350,152,cs),
(350,163,o),
(341,174,o),
(323,174,cs),
(96,174,ls),
(78,174,o),
(69,162,o),
(69,151,cs),
(69,140,o),
(78,129,o),
(96,129,cs)
);
},
{
closed = 1;
nodes = (
(360,280,ls),
(378,280,o),
(387,292,o),
(387,303,cs),
(387,314,o),
(378,325,o),
(360,325,cs),
(133,325,ls),
(115,325,o),
(106,313,o),
(106,302,cs),
(106,291,o),
(115,280,o),
(133,280,cs)
);
},
{
closed = 1;
nodes = (
(309,338,ls),
(323,362,o),
(309,377,o),
(295,377,cs),
(285,377,o),
(278,373,o),
(271,362,cs),
(132,110,ls),
(123,92,o),
(130,80,o),
(141,75,cs),
(150,71,o),
(164,73,o),
(173,89,cs)
);
}
);
vertWidth = 0;
width = 426;
},
{
layerId = "140DECC1-64C4-40C0-9C07-503DBC3F4160";
shapes = (
{
closed = 1;
nodes = (
(315,120,ls),
(349,120,o),
(361,144,o),
(361,163,cs),
(361,183,o),
(349,206,o),
(315,206,cs),
(88,206,ls),
(54,206,o),
(42,183,o),
(42,163,cs),
(42,143,o),
(54,120,o),
(88,120,cs)
);
},
{
closed = 1;
nodes = (
(348,251,ls),
(382,251,o),
(394,275,o),
(394,294,cs),
(394,314,o),
(382,337,o),
(348,337,cs),
(121,337,ls),
(87,337,o),
(75,314,o),
(75,294,cs),
(75,274,o),
(87,251,o),
(121,251,cs)
);
},
{
closed = 1;
nodes = (
(336,337,ls),
(370,393,o),
(326,407,o),
(303,407,cs),
(286,407,o),
(274,402,o),
(262,383,cs),
(96,111,ls),
(77,80,o),
(96,56,o),
(115,47,cs),
(131,40,o),
(158,43,o),
(174,69,cs)
);
}
);
vertWidth = 0;
width = 426;
}
);
unicode = 8800;
},
{
color = 6;
glyphname = greater;
layers = (
{
guides = (
{
name = " [#GqRMvt6B8x]";
pos = (131,333);
}
);
layerId = m01;
shapes = (
{
closed = 1;
nodes = (
(352,198,ls),
(360,202,o),
(366,210,o),
(366,218,cs),
(366,225,o),
(363,231,o),
(356,237,cs),
(187,362,ls),
(172,373,o),
(159,373,o),
(150,364,cs),
(141,353,o),
(143,338,o),
(158,327,cs),
(323,205,l),
(326,235,l),
(108,139,ls),
(88,130,o),
(84,120,o),
(87,108,cs),
(90,98,o),
(101,88,o),
(120,96,cs)
);
}
);
vertWidth = 0;
width = 426;
},
{
guides = (
{
name = " [#GqRMvt6B8x]";
pos = (131,333);
}
);
layerId = "140DECC1-64C4-40C0-9C07-503DBC3F4160";
shapes = (
{
closed = 1;
nodes = (
(350,182,ls),
(366,188,o),
(376,206,o),
(376,221,cs),
(376,233,o),
(374,246,o),
(359,255,cs),
(190,358,ls),
(162,375,o),
(143,372,o),
(127,356,cs),
(109,338,o),
(108,307,o),
(137,290,cs),
(282,205,l),
(287,247,l),
(101,178,ls),
(65,165,o),
(65,144,o),
(70,125,cs),
(75,106,o),
(92,82,o),
(130,98,cs)
);
}
);
vertWidth = 0;
width = 426;
}
);
unicode = 62;
},
{
color = 6;
glyphname = less;
layers = (
{
layerId = m01;
shapes = (
{
closed = 1;
nodes = (
(293,91,o),
(306,91,o),
(315,100,cs),
(324,111,o),
(322,126,o),
(307,137,cs),
(142,259,l),
(139,229,l),
(357,325,ls),
(377,334,o),
(381,344,o),
(378,356,cs),
(375,366,o),
(364,376,o),
(345,368,c),
(113,266,ls),
(105,262,o),
(99,254,o),
(99,246,cs),
(99,239,o),
(102,233,o),
(109,227,cs),
(278,102,ls)
);
}
);
vertWidth = 0;
width = 426;
},
{
layerId = "140DECC1-64C4-40C0-9C07-503DBC3F4160";
shapes = (
{
closed = 1;
nodes = (
(281,93,o),
(308,94,o),
(322,108,cs),
(341,126,o),
(341,157,o),
(312,174,cs),
(167,259,l),
(162,217,l),
(348,286,ls),
(384,299,o),
(384,320,o),
(379,339,cs),
(374,358,o),
(357,381,o),
(319,366,cs),
(99,282,ls),
(83,276,o),
(73,258,o),
(73,243,cs),
(73,231,o),
(75,218,o),
(90,209,cs),
(259,106,ls)
);
}
);
vertWidth = 0;
width = 426;
}
);
unicode = 60;
},
{
color = 6;
glyphname = greaterequal;
layers = (
{
layerId = m01;
shapes = (
{
closed = 1;
nodes = (
(320,129,ls),
(338,129,o),
(347,140,o),
(347,152,cs),
(347,163,o),
(338,174,o),
(320,174,cs),
(93,174,ls),
(75,174,o),
(66,162,o),
(66,151,cs),
(66,140,o),
(75,129,o),
(93,129,cs)
);
},
{
closed = 1;
nodes = (
(346,234,ls),
(364,234,o),
(373,245,o),
(373,257,cs),
(373,263,o),
(370,270,o),
(364,274,cs),
(178,392,ls),
(162,402,o),
(149,401,o),
(141,391,cs),
(133,380,o),
(136,366,o),
(151,356,cs),
(297,263,l),
(302,279,l),
(119,279,ls),
(101,279,o),
(92,267,o),
(92,256,cs),
(92,245,o),
(101,234,o),
(119,234,cs)
);
}
);
vertWidth = 0;
width = 426;
},
{
layerId = "140DECC1-64C4-40C0-9C07-503DBC3F4160";
shapes = (
{
closed = 1;
nodes = (
(315,106,ls),
(349,106,o),
(361,130,o),
(361,149,cs),
(361,169,o),
(349,192,o),
(315,192,cs),
(88,192,ls),
(54,192,o),
(42,169,o),
(42,149,cs),
(42,129,o),
(54,106,o),
(88,106,cs)
);
},
{
closed = 1;
nodes = (
(323,221,ls),
(356,221,o),
(369,244,o),
(369,264,cs),
(369,277,o),
(364,290,o),
(351,299,cs),
(179,415,ls),
(150,435,o),
(129,425,o),
(116,409,c),
(102,389,o),
(99,362,o),
(130,345,cs),
(229,292,l),
(242,307,l),
(118,307,ls),
(84,307,o),
(71,283,o),
(71,264,c),
(71,245,o),
(83,221,o),
(118,221,cs)
);
}
);
vertWidth = 0;
width = 426;
}
);
unicode = 8805;
},
{
color = 6;
glyphname = lessequal;
layers = (
{
layerId = m01;
shapes = (
{
closed = 1;
nodes = (
(320,129,ls),
(338,129,o),
(347,140,o),
(347,152,cs),
(347,163,o),
(338,174,o),
(320,174,cs),
(93,174,ls),
(75,174,o),
(66,162,o),
(66,151,cs),
(66,140,o),
(75,129,o),
(93,129,cs)
);
},
{
closed = 1;
nodes = (
(346,234,ls),
(364,234,o),
(373,245,o),
(373,257,cs),
(373,268,o),
(364,279,o),
(346,279,cs),
(179,279,l),
(182,265,l),
(358,356,ls),
(374,364,o),
(376,380,o),
(368,391,cs),
(360,401,o),
(348,401,o),
(331,392,cs),
(105,276,ls),
(96,271,o),
(92,264,o),
(92,256,cs),
(92,245,o),
(101,234,o),
(119,234,cs)
);
}
);
vertWidth = 0;
width = 426;
},
{
layerId = "140DECC1-64C4-40C0-9C07-503DBC3F4160";
shapes = (
{
closed = 1;
nodes = (
(306,106,ls),
(340,106,o),
(352,130,o),
(352,149,cs),
(352,169,o),
(340,192,o),
(306,192,cs),
(79,192,ls),
(45,192,o),
(33,169,o),
(33,149,cs),
(33,129,o),
(45,106,o),
(79,106,cs)
);
},
{
closed = 1;
nodes = (
(314,221,ls),
(347,221,o),
(360,244,o),
(360,264,cs),
(360,283,o),
(348,307,o),
(314,307,cs),
(182,307,l),
(193,281,l),
(335,343,ls),
(366,356,o),
(366,388,o),
(351,408,cs),
(338,425,o),
(319,432,o),
(290,416,cs),
(86,302,ls),
(68,292,o),
(62,278,o),
(62,264,cs),
(62,245,o),
(74,221,o),
(108,221,cs)
);
}
);
vertWidth = 0;
width = 426;
}
);
unicode = 8804;
},
{
color = 6;
glyphname = plusminus;
layers = (
{
layerId = m01;
shapes = (
{
closed = 1;
nodes = (
(229,186,o),
(239,192,o),
(243,208,cs),
(276,340,ls),
(281,358,o),
(269,371,o),
(256,371,c),
(247,371,o),
(236,365,o),
(232,350,cs),
(200,218,ls),
(195,199,o),
(207,186,o),
(219,186,cs)
);
},
{
closed = 1;
nodes = (
(351,257,ls),
(369,257,o),
(378,269,o),
(378,280,cs),
(378,291,o),
(369,302,o),
(351,302,cs),
(124,302,ls),
(106,302,o),
(97,291,o),
(97,280,cs),
(97,268,o),
(106,257,o),
(124,257,cs)
);
},
{
closed = 1;
nodes = (
(320,129,ls),
(338,129,o),
(347,141,o),
(347,152,cs),
(347,163,o),
(338,174,o),
(320,174,cs),
(93,174,ls),
(75,174,o),
(66,163,o),
(66,152,cs),
(66,140,o),
(75,129,o),
(93,129,cs)
);
}
);
vertWidth = 0;
width = 426;
},
{
layerId = "140DECC1-64C4-40C0-9C07-503DBC3F4160";
shapes = (
{
closed = 1;
nodes = (
(226,212,o),
(246,220,o),
(253,249,cs),
(307,471,ls),
(315,506,o),
(291,526,o),
(270,526,cs),
(253,526,o),
(231,521,o),
(224,492,cs),
(170,269,l),
(162,231,o),
(187,212,o),
(208,212,cs)
);
},
{
closed = 1;
nodes = (
(350,328,ls),
(384,328,o),
(396,352,o),
(396,371,cs),
(396,391,o),
(384,414,o),
(350,414,cs),
(123,414,ls),
(89,414,o),
(77,391,o),
(77,371,cs),
(77,351,o),
(89,328,o),
(123,328,cs)
);
},
{
closed = 1;
nodes = (
(306,106,ls),
(340,106,o),
(352,130,o),
(352,149,cs),
(352,169,o),
(340,192,o),
(306,192,cs),
(79,192,ls),
(45,192,o),
(33,169,o),
(33,149,cs),
(33,129,o),
(45,106,o),
(79,106,cs)
);
}
);
vertWidth = 0;
width = 426;
}
);
unicode = 177;
},
{
color = 6;
glyphname = approxequal;
layers = (
{
layerId = m01;
shapes = (
{
closed = 1;
nodes = (
(119,138,o),
(137,145,o),
(150,145,cs),
(191,145,o),
(225,117,o),
(263,117,cs),
(289,117,o),
(315,127,o),
(333,134,cs),
(348,140,o),
(355,151,o),
(350,164,cs),
(345,177,o),
(333,181,o),
(317,175,cs),
(302,169,o),
(284,162,o),
(271,162,cs),
(233,162,o),
(199,190,o),
(158,190,cs),
(132,190,o),
(106,180,o),
(88,173,cs),
(73,167,o),
(66,156,o),
(71,143,cs),
(76,130,o),
(88,126,o),
(104,132,cs)
);
},
{
closed = 1;
nodes = (
(157,289,o),
(175,296,o),
(188,296,cs),
(229,296,o),
(263,268,o),
(301,268,cs),
(327,268,o),
(353,278,o),
(371,285,cs),
(386,291,o),
(393,302,o),
(388,315,cs),
(383,328,o),
(371,332,o),
(355,326,cs),
(340,320,o),
(322,313,o),
(309,313,cs),
(271,313,o),
(237,341,o),
(196,341,cs),
(170,341,o),
(144,331,o),
(126,324,cs),
(111,318,o),
(104,307,o),
(109,294,cs),
(114,281,o),
(126,277,o),
(142,283,cs)
);
}
);
vertWidth = 0;
width = 426;
},
{
layerId = "140DECC1-64C4-40C0-9C07-503DBC3F4160";
shapes = (
{
closed = 1;
nodes = (
(124,124,o),
(136,131,o),
(146,131,cs),
(179,131,o),
(214,109,o),
(249,109,cs),
(276,109,o),
(303,116,o),
(323,124,cs),
(354,137,o),
(362,162,o),
(353,183,cs),
(343,205,o),
(322,215,o),
(288,201,cs),
(278,197,o),
(265,192,o),
(256,192,cs),
(221,192,o),
(190,214,o),
(153,214,cs),
(125,214,o),
(98,205,o),
(79,196,cs),
(47,181,o),
(38,157,o),
(48,136,cs),
(58,114,o),
(80,104,o),
(113,119,cs)
);
},
{
closed = 1;
nodes = (
(159,264,o),
(171,271,o),
(181,271,cs),
(214,271,o),
(249,249,o),
(284,249,cs),
(311,249,o),
(338,256,o),
(358,264,cs),
(389,277,o),
(397,302,o),
(388,323,cs),
(378,345,o),
(357,355,o),
(323,341,cs),
(313,337,o),
(300,332,o),
(291,332,cs),
(256,332,o),
(225,354,o),
(188,354,cs),
(160,354,o),
(133,345,o),
(114,336,cs),
(82,321,o),
(73,297,o),
(83,276,cs),
(93,254,o),
(115,244,o),
(148,259,cs)
);
}
);
vertWidth = 0;
width = 426;
}
);
unicode = 8776;
},
{
color = 6;
glyphname = asciitilde;
layers = (
{
layerId = m01;
shapes = (
{
closed = 1;
nodes = (
(306,158,o),
(326,168,o),
(347,177,cs),
(365,185,o),
(373,191,o),
(373,202,cs),
(373,213,o),
(361,233,o),
(344,225,cs),
(325,216,o),
(312,203,o),
(282,203,cs),
(254,203,o),
(211,241,o),
(180,241,cs),
(154,241,o),
(137,232,o),
(119,225,cs),
(101,218,o),
(92,213,o),
(92,202,cs),
(92,190,o),
(102,169,o),
(120,177,cs),
(135,184,o),
(149,196,o),
(172,196,cs),
(203,196,o),
(246,158,o),
(274,158,cs)
);
}
);
width = 426;
},
{
layerId = "140DECC1-64C4-40C0-9C07-503DBC3F4160";
shapes = (
{
closed = 1;
nodes = (
(301,139,o),
(326,151,o),
(344,159,cs),
(372,172,o),
(384,183,o),
(384,203,cs),
(384,231,o),
(352,261,o),
(320,245,cs),
(296,233,o),
(291,226,o),
(272,226,cs),
(255,226,o),
(213,262,o),
(174,262,cs),
(143,262,o),
(121,252,o),
(105,245,cs),
(78,234,o),
(64,223,o),
(64,203,cs),
(64,171,o),
(96,144,o),
(127,159,cs),
(145,168,o),
(153,175,o),
(166,175,cs),
(186,175,o),
(227,139,o),
(264,139,cs)
);
}
);
width = 427;
}
);
unicode = 126;
},
{
color = 6;
glyphname = asciicircum;
layers = (
{
layerId = m01;
shapes = (
{
closed = 1;
nodes = (
(298,409,l),
(256,413,l),
(354,296,ls),
(365,283,o),
(380,285,o),
(389,293,cs),
(399,302,o),
(402,317,o),
(392,329,cs),
(299,439,ls),
(291,449,o),
(274,451,o),
(260,439,cs),
(127,328,ls),
(115,318,o),
(116,304,o),
(124,295,cs),
(133,286,o),
(145,281,o),
(161,294,cs)
);
}
);
vertWidth = 0;
width = 456;
},
{
layerId = "140DECC1-64C4-40C0-9C07-503DBC3F4160";
shapes = (
{
closed = 1;
nodes = (
(275,388,l),
(245,390,l),
(335,284,ls),
(353,262,o),
(377,267,o),
(391,279,cs),
(406,292,o),
(411,316,o),
(395,335,cs),
(295,454,ls),
(282,469,o),
(259,475,o),
(236,456,cs),
(100,342,ls),
(80,325,o),
(83,302,o),
(96,287,c),
(110,273,o),
(129,264,o),
(153,284,cs)
);
}
);
vertWidth = 0;
width = 451;
}
);
unicode = 94;
},
{
color = 6;
glyphname = infinity;
layers = (
{
layerId = m01;
shapes = (
{
closed = 1;
nodes = (
(227,80,o),
(294,128,o),
(357,193,c),
(329,230,l),
(273,175,o),
(214,125,o),
(165,125,cs),
(125,125,o),
(107,169,o),
(121,227,cs),
(136,286,o),
(165,316,o),
(208,316,cs),
(242,316,o),
(278,288,o),
(315,233,cs),
(351,180,ls),
(396,114,o),
(444,80,o),
(491,80,cs),
(568,80,o),
(617,125,o),
(637,215,cs),
(652,281,o),
(631,361,o),
(550,361,cs),
(480,361,o),
(413,313,o),
(350,248,c),
(378,211,l),
(434,266,o),
(493,316,o),
(542,316,cs),
(582,316,o),
(600,272,o),
(586,214,cs),
(571,155,o),
(542,125,o),
(499,125,cs),
(465,125,o),
(429,153,o),
(392,208,cs),
(356,261,ls),
(311,327,o),
(263,361,o),
(216,361,cs),
(139,361,o),
(90,316,o),
(70,226,cs),
(55,160,o),
(76,80,o),
(157,80,cs)
);
}
);
vertWidth = 0;
width = 699;
},
{
layerId = "140DECC1-64C4-40C0-9C07-503DBC3F4160";
shapes = (
{
closed = 1;
nodes = (
(250,70,o),
(322,121,o),
(379,181,c),
(321,246,l),
(281,206,o),
(229,157,o),
(193,157,cs),
(163,157,o),
(151,181,o),
(161,220,cs),
(171,260,o),
(197,284,o),
(229,284,cs),
(249,284,o),
(279,258,o),
(306,217,cs),
(336,173,ls),
(380,109,o),
(436,70,o),
(480,70,cs),
(566,70,o),
(628,124,o),
(646,211,cs),
(671,310,o),
(627,371,o),
(530,371,cs),
(467,371,o),
(395,320,o),
(338,260,c),
(396,195,l),
(436,235,o),
(488,284,o),
(524,284,cs),
(556,284,o),
(566,261,o),
(556,221,cs),
(546,181,o),
(522,157,o),
(488,157,cs),
(463,157,o),
(433,183,o),
(411,224,cs),
(381,278,ls),
(349,335,o),
(293,371,o),
(235,371,cs),
(153,371,o),
(91,317,o),
(71,230,cs),
(48,131,o),
(92,70,o),
(187,70,cs)
);
}
);
vertWidth = 0;
width = 709;
}
);
unicode = 8734;
},
{
color = 6;
glyphname = percent;
layers = (
{
layerId = m01;
shapes = (
{
closed = 1;
nodes = (
(229,432,o),
(296,516,o),
(296,594,cs),
(296,634,o),
(273,654,o),
(228,654,cs),
(162,654,o),
(122,593,o),
(122,495,cs),
(122,456,o),
(139,432,o),
(166,432,cs)
);
},
{
closed = 1;
nodes = (
(166,471,o),
(161,483,o),
(161,502,cs),
(161,571,o),
(186,614,o),
(226,614,cs),
(246,614,o),
(256,605,o),
(256,587,cs),
(256,531,o),
(213,471,o),
(173,471,cs)
);
},
{
closed = 1;
nodes = (
(438,637,o),
(423,650,o),
(408,650,cs),
(397,650,o),
(386,644,o),
(379,627,cs),
(122,31,ls),
(114,12,o),
(128,0,o),
(144,0,cs),
(155,0,o),
(166,6,o),
(172,20,cs),
(429,616,ls)
);
},
{
closed = 1;
nodes = (
(372,-4,o),
(439,80,o),
(439,158,cs),
(439,198,o),
(416,218,o),
(371,218,cs),
(305,218,o),
(265,157,o),
(265,59,cs),
(265,20,o),
(282,-4,o),
(309,-4,cs)
);
},
{
closed = 1;
nodes = (
(309,35,o),
(304,47,o),
(304,66,cs),
(304,135,o),
(329,178,o),
(369,178,cs),
(389,178,o),
(399,169,o),
(399,151,cs),
(399,95,o),
(356,35,o),
(316,35,cs)
);
}
);
vertWidth = 0;
width = 513;
},
{
layerId = "140DECC1-64C4-40C0-9C07-503DBC3F4160";
shapes = (
{
closed = 1;
nodes = (
(262,398,o),
(334,491,o),
(334,577,cs),
(334,625,o),
(300,654,o),
(244,654,cs),
(162,654,o),
(120,595,o),
(120,478,cs),
(120,429,o),
(149,398,o),
(195,398,cs)
);
},
{
closed = 1;
nodes = (
(199,476,o),
(196,484,o),
(196,496,cs),
(196,552,o),
(211,580,o),
(236,580,cs),
(248,580,o),
(253,570,o),
(253,555,cs),
(253,517,o),
(228,476,o),
(205,476,cs)
);
},
{
closed = 1;
nodes = (
(536,624,o),
(505,650,o),
(475,650,cs),
(455,650,o),
(433,639,o),
(422,614,cs),
(182,60,ls),
(167,25,o),
(196,0,o),
(228,0,cs),
(247,0,o),
(269,10,o),
(279,32,cs),
(520,588,ls)
);
},
{
closed = 1;
nodes = (
(531,-4,o),
(603,89,o),
(603,175,cs),
(603,223,o),
(569,252,o),
(513,252,cs),
(431,252,o),
(389,193,o),
(389,76,cs),
(389,27,o),
(418,-4,o),
(464,-4,cs)
);
},
{
closed = 1;
nodes = (
(468,74,o),
(465,82,o),
(465,94,cs),
(465,150,o),
(480,178,o),
(505,178,cs),
(517,178,o),
(522,168,o),
(522,153,cs),
(522,115,o),
(497,74,o),
(474,74,cs)
);
}
);
vertWidth = 0;
width = 675;
}
);
unicode = 37;
},
{
color = 6;
glyphname = grave;
layers = (
{
layerId = m01;
shapes = (
{
closed = 1;
nodes = (
(221,563,o),
(224,573,o),
(218,587,cs),
(176,683,ls),
(170,696,o),
(157,701,o),
(146,701,cs),
(130,701,o),
(115,686,o),
(128,664,cs),
(182,572,ls),
(191,557,o),
(204,554,o),
(213,559,cs)
);
}
);
width = 212;
},
{
layerId = "140DECC1-64C4-40C0-9C07-503DBC3F4160";
shapes = (
{
closed = 1;
nodes = (
(265,530,o),
(268,547,o),
(257,573,cs),
(222,657,ls),
(209,690,o),
(185,700,o),
(158,700,cs),
(130,700,o),
(107,661,o),
(127,630,cs),
(184,542,ls),
(202,515,o),
(227,508,o),
(246,519,cs)
);
}
);
width = 258;
}
);
unicode = 96;
},
{
color = 6;
glyphname = tilde;
layers = (
{
layerId = m01;
shapes = (
{
closed = 1;
nodes = (
(306,470,o),
(326,480,o),
(347,489,cs),
(365,497,o),
(373,503,o),
(373,514,cs),
(373,525,o),
(361,545,o),
(344,537,cs),
(325,528,o),
(312,515,o),
(282,515,cs),
(254,515,o),
(211,553,o),
(180,553,cs),
(154,553,o),
(137,544,o),
(119,537,cs),
(101,530,o),
(92,525,o),
(92,514,cs),
(92,502,o),
(102,481,o),
(120,489,cs),
(135,496,o),
(149,508,o),
(172,508,cs),
(203,508,o),
(246,470,o),
(274,470,cs)
);
}
